<?xml version="1.0" standalone="no"?>
<!DOCTYPE svg PUBLIC "-//W3C//DTD SVG 20010904//EN"
 "http://www.w3.org/TR/2001/REC-SVG-20010904/DTD/svg10.dtd">
<svg version="1.0" xmlns="http://www.w3.org/2000/svg"
 width="544.000000pt" height="544.000000pt" viewBox="0 0 544.000000 544.000000"
 preserveAspectRatio="xMidYMid meet">
<metadata>
Created by potrace 1.11, written by Peter Selinger 2001-2013
</metadata>
<g transform="translate(0.000000,544.000000) scale(0.100000,-0.100000)"
fill="#000000" stroke="none">
<path d="M1970 5265 c-106 -22 -235 -78 -300 -130 -61 -50 -141 -130 -167
-168 -15 -23 -31 -43 -35 -45 -5 -2 -8 -12 -8 -23 0 -10 -3 -19 -8 -19 -4 0
-13 -13 -20 -28 -10 -24 -21 -30 -75 -41 -108 -21 -161 -44 -272 -116 -62 -41
-195 -171 -195 -191 0 -3 -13 -24 -28 -47 -71 -105 -105 -233 -111 -417 -1 -9
-17 -24 -37 -35 -47 -25 -190 -165 -241 -235 -45 -62 -115 -194 -128 -240 0
-3 -8 -30 -17 -60 -26 -88 -37 -244 -23 -325 7 -42 18 -99 20 -105 19 -59 19
-58 -42 -118 -33 -31 -77 -80 -100 -109 -38 -49 -128 -216 -138 -258 -40 -160
-44 -195 -41 -305 5 -136 9 -160 43 -265 59 -181 182 -348 333 -451 55 -37 70
-53 71 -73 4 -152 27 -255 85 -377 81 -170 209 -300 379 -383 127 -63 228 -88
358 -90 20 -1 37 -6 37 -12 0 -33 136 -195 220 -261 254 -201 635 -232 910
-74 25 14 52 29 60 33 25 12 63 45 143 125 l78 79 77 -79 c42 -43 93 -90 113
-104 30 -23 152 -90 169 -94 7 -1 40 -14 65 -24 20 -9 48 -15 120 -28 73 -13
256 -7 325 11 81 22 200 68 200 77 0 5 11 11 24 14 14 3 31 12 38 19 7 6 31
25 53 41 62 44 144 133 192 208 41 63 47 68 81 69 20 0 46 2 57 3 93 13 127
20 188 41 340 119 559 425 566 792 1 37 5 43 43 66 59 35 150 118 203 186 25
31 49 61 54 67 17 21 77 140 96 188 36 97 54 206 53 321 -2 244 -97 465 -271
637 l-69 68 12 47 c7 27 15 62 18 78 9 42 8 252 0 300 -27 150 -107 308 -223
440 -59 67 -174 165 -193 165 -16 0 -24 30 -27 100 -9 181 -90 363 -221 494
-32 31 -94 86 -98 86 -3 0 -24 13 -48 29 -56 37 -166 80 -240 94 -58 11 -60
12 -85 61 -61 120 -178 241 -304 313 -33 19 -162 67 -213 80 -12 3 -70 7 -131
9 -224 7 -402 -66 -567 -231 -38 -37 -68 -63 -68 -57 0 6 -29 39 -65 74 -91
90 -222 164 -340 194 -16 4 -37 9 -45 11 -39 11 -231 10 -290 -2z m290 -329
c24 -9 64 -28 87 -42 50 -29 143 -121 143 -141 0 -7 4 -13 9 -13 5 0 11 -8 14
-17 3 -10 13 -38 22 -63 10 -25 19 -85 21 -135 3 -49 7 -96 9 -102 2 -7 1 -13
-3 -13 -4 0 -5 -27 -2 -60 3 -33 3 -65 0 -70 -4 -6 -3 -33 0 -60 4 -28 4 -50
0 -50 -3 0 -3 -27 0 -60 3 -33 3 -65 0 -70 -4 -6 -3 -33 0 -60 4 -28 4 -50 0
-50 -3 0 -3 -27 0 -60 3 -33 3 -65 0 -70 -4 -6 -3 -33 0 -60 4 -28 4 -50 0
-50 -3 0 -3 -27 0 -60 3 -33 3 -65 0 -70 -4 -6 -3 -33 0 -60 4 -28 4 -50 0
-50 -3 0 -3 -27 0 -60 3 -33 3 -65 0 -70 -4 -6 -3 -33 0 -60 4 -28 4 -50 0
-50 -3 0 -3 -27 0 -60 3 -33 3 -65 0 -70 -4 -6 -3 -33 0 -60 4 -28 2 -50 -2
-50 -5 0 -7 -4 -4 -9 5 -8 6 -38 6 -186 1 -130 -1 -179 -6 -187 -3 -4 -1 -8 4
-8 4 0 6 -22 2 -50 -3 -27 -4 -54 0 -60 3 -5 3 -37 0 -70 -3 -33 -3 -60 0 -60
4 0 4 -22 0 -50 -3 -27 -4 -54 0 -60 3 -5 3 -37 0 -70 -3 -33 -3 -60 0 -60 4
0 4 -22 0 -50 -3 -27 -4 -54 0 -60 3 -5 3 -37 0 -70 -3 -33 -3 -60 0 -60 4 0
4 -22 0 -50 -3 -27 -4 -54 0 -60 3 -5 3 -37 0 -70 -3 -33 -2 -60 3 -60 4 0 6
-4 3 -8 -6 -9 -7 -45 -6 -215 0 -65 -2 -123 -5 -128 -4 -5 -3 -9 2 -9 8 0 9
-127 1 -135 -2 -3 -1 -29 2 -60 3 -31 4 -57 2 -60 -2 -2 -6 -29 -8 -61 -7
-111 -60 -222 -148 -309 -111 -111 -224 -155 -384 -150 -231 7 -363 111 -472
377 -20 48 -39 90 -42 93 -3 3 -50 -2 -104 -11 -129 -21 -267 -8 -313 30 -8 6
-17 10 -20 9 -15 -6 -125 73 -166 120 -55 62 -110 172 -123 245 -12 69 -8 169
12 257 8 38 14 70 13 70 -16 9 -119 55 -122 55 -7 0 -131 77 -156 97 -98 79
-166 184 -192 300 -19 80 -15 252 8 318 35 100 54 131 135 214 61 63 91 86
195 150 39 24 71 45 73 46 1 1 -6 20 -17 41 -48 94 -70 144 -64 144 3 0 1 6
-5 13 -24 29 -39 115 -36 207 1 52 5 105 8 118 3 12 8 31 10 42 13 56 72 154
126 210 69 69 129 110 251 169 47 23 88 43 91 46 2 3 -4 37 -14 77 -48 186
-14 334 105 452 94 94 201 134 356 132 52 -1 96 3 99 9 3 5 19 48 35 95 66
198 164 304 312 339 58 13 203 6 255 -13z m1216 1 c80 -29 149 -85 199 -162
11 -16 20 -32 21 -35 0 -3 11 -27 23 -55 30 -65 60 -163 53 -170 -7 -6 -11 -6
118 -10 128 -3 148 -7 229 -47 57 -27 129 -88 171 -143 60 -79 90 -230 66
-335 -4 -14 -9 -36 -12 -50 -21 -89 -25 -82 83 -135 115 -56 190 -108 256
-179 45 -48 102 -148 113 -199 3 -12 8 -35 12 -52 3 -16 6 -75 5 -130 0 -109
-13 -154 -87 -305 -28 -56 -33 -76 -24 -82 54 -34 95 -59 108 -65 8 -3 17 -9
20 -13 3 -3 21 -17 40 -30 105 -73 183 -174 221 -288 18 -52 23 -90 23 -172 0
-99 -7 -171 -20 -191 -3 -5 -7 -18 -9 -29 -6 -33 -71 -134 -113 -176 -67 -68
-104 -93 -224 -152 -124 -61 -118 -54 -104 -122 49 -222 7 -388 -131 -528 -83
-83 -203 -140 -318 -149 -33 -2 -105 3 -160 12 -94 15 -100 15 -112 -2 -7 -9
-13 -23 -13 -31 0 -21 -97 -214 -124 -247 -80 -96 -166 -151 -274 -174 -75
-16 -220 -6 -287 19 -101 38 -211 124 -263 205 -25 40 -61 127 -68 163 -4 20
-9 46 -11 57 -3 11 -4 27 -4 35 0 8 0 44 0 80 0 36 0 72 0 80 0 24 0 324 0
335 -1 6 0 21 1 35 1 21 1 87 1 155 0 16 0 73 0 103 0 9 0 69 0 132 0 63 0
120 1 125 0 6 -1 26 -1 45 -1 19 -2 106 -1 193 0 87 -2 162 -5 167 -3 6 -3 10
2 10 4 0 8 25 8 55 0 30 -3 55 -6 55 -3 0 -3 22 1 50 3 27 4 54 0 60 -3 5 -3
35 0 66 3 30 4 57 1 59 -3 2 -4 43 -1 92 3 48 3 114 0 146 -3 31 -3 57 0 57 3
0 5 25 5 55 0 30 -3 55 -6 55 -3 0 -3 22 1 50 3 27 4 54 0 60 -3 5 -3 35 0 65
3 31 4 58 2 60 -3 2 -4 30 -4 62 1 51 2 159 1 203 0 8 0 85 0 170 0 85 0 162
0 170 -1 8 0 26 1 40 1 21 1 87 1 155 0 15 0 70 0 103 0 9 0 62 0 117 0 55 1
114 3 130 18 179 149 332 326 381 58 15 212 10 266 -9z"/>
</g>
</svg>
