<svg width="1320" height="403" viewBox="0 0 1320 403" fill="none" xmlns="http://www.w3.org/2000/svg">
<path d="M76.704 272.44C65.568 272.44 52.992 271.48 38.976 269.56C31.296 268.6 26.016 266.584 23.136 263.512C20.256 260.44 19.008 255.448 19.392 248.536C20.736 229.528 23.904 206.104 28.896 178.264C33.888 150.232 39.936 123.256 47.04 97.336C48.384 92.536 51.072 89.176 55.104 87.256C59.136 85.336 64.416 84.376 70.944 84.376C82.656 84.376 88.512 87.64 88.512 94.168C88.512 96.856 87.936 99.928 86.784 103.384C81.792 118.744 76.8 139.384 71.808 165.304C66.816 191.032 63.264 215.608 61.152 239.032C66.912 239.608 73.44 239.896 80.736 239.896C114.336 239.896 139.392 229.72 155.904 209.368C172.608 189.016 180.96 161.848 180.96 127.864C180.96 105.016 174.432 87.352 161.376 74.872C148.32 62.392 129.888 56.152 106.08 56.152C90.72 56.152 75.456 58.552 60.288 63.352C45.312 68.152 31.776 74.488 19.68 82.36C17.184 84.088 14.496 84.952 11.616 84.952C8.352 84.952 5.76 83.608 3.84 80.92C1.92 78.04 0.960001 74.584 0.960001 70.552C0.960001 65.944 1.728 62.2 3.264 59.32C4.8 56.248 7.392 53.464 11.04 50.968C24.288 41.944 39.84 35.128 57.696 30.52C75.552 25.72 92.736 23.32 109.248 23.32C132.672 23.32 152.928 27.448 170.016 35.704C187.104 43.768 200.256 55.672 209.472 71.416C218.688 87.16 223.296 106.168 223.296 128.44C223.296 157.432 217.536 182.776 206.016 204.472C194.496 225.976 177.696 242.68 155.616 254.584C133.536 266.488 107.232 272.44 76.704 272.44ZM241.998 272.44C230.094 272.44 220.59 268.12 213.486 259.48C206.382 250.84 202.83 239.512 202.83 225.496C202.83 210.136 206.382 195.64 213.486 182.008C220.59 168.184 229.998 157.144 241.71 148.888C253.614 140.44 266.19 136.216 279.438 136.216C283.662 136.216 286.446 137.08 287.79 138.808C289.326 140.344 290.574 143.224 291.534 147.448C295.566 146.68 299.79 146.296 304.206 146.296C313.614 146.296 318.318 149.656 318.318 156.376C318.318 160.408 316.878 170.008 313.998 185.176C309.582 207.256 307.374 222.616 307.374 231.256C307.374 234.136 308.046 236.44 309.39 238.168C310.926 239.896 312.846 240.76 315.15 240.76C318.798 240.76 323.214 238.456 328.398 233.848C333.582 229.048 340.59 221.368 349.422 210.808C351.726 208.12 354.318 206.776 357.198 206.776C359.694 206.776 361.614 207.928 362.958 210.232C364.494 212.536 365.262 215.704 365.262 219.736C365.262 227.416 363.438 233.368 359.79 237.592C351.918 247.384 343.566 255.64 334.734 262.36C325.902 269.08 317.358 272.44 309.102 272.44C302.766 272.44 296.91 270.328 291.534 266.104C286.35 261.688 282.414 255.736 279.726 248.248C269.742 264.376 257.166 272.44 241.998 272.44ZM252.366 243.352C256.59 243.352 260.622 240.856 264.462 235.864C268.302 230.872 271.086 224.248 272.814 215.992L283.47 163C275.406 163.192 267.918 166.264 261.006 172.216C254.286 177.976 248.91 185.656 244.878 195.256C240.846 204.856 238.83 215.032 238.83 225.784C238.83 231.736 239.982 236.152 242.286 239.032C244.782 241.912 248.142 243.352 252.366 243.352ZM379.583 117.784C371.519 117.784 365.471 115.96 361.439 112.312C357.407 108.472 355.391 103.192 355.391 96.472C355.391 89.752 357.983 84.184 363.167 79.768C368.543 75.16 375.167 72.856 383.039 72.856C390.143 72.856 395.903 74.584 400.319 78.04C404.735 81.496 406.943 86.392 406.943 92.728C406.943 100.408 404.447 106.552 399.455 111.16C394.463 115.576 387.839 117.784 379.583 117.784ZM377.279 272.44C364.799 272.44 355.679 268.024 349.919 259.192C344.351 250.36 341.567 238.648 341.567 224.056C341.567 215.416 342.623 204.376 344.735 190.936C347.039 177.304 349.919 164.632 353.375 152.92C355.103 146.776 357.407 142.552 360.287 140.248C363.167 137.944 367.775 136.792 374.111 136.792C383.903 136.792 388.799 140.056 388.799 146.584C388.799 151.384 386.975 162.52 383.327 179.992C378.719 201.112 376.415 215.416 376.415 222.904C376.415 228.664 377.183 233.08 378.719 236.152C380.255 239.224 382.847 240.76 386.495 240.76C389.951 240.76 394.271 238.36 399.455 233.56C404.639 228.76 411.551 221.176 420.191 210.808C422.495 208.12 425.087 206.776 427.967 206.776C430.463 206.776 432.383 207.928 433.727 210.232C435.263 212.536 436.031 215.704 436.031 219.736C436.031 227.416 434.207 233.368 430.559 237.592C411.551 260.824 393.791 272.44 377.279 272.44ZM521.882 206.776C524.378 206.776 526.298 207.928 527.642 210.232C529.178 212.536 529.946 215.704 529.946 219.736C529.946 227.416 528.122 233.368 524.474 237.592C516.218 247.768 507.194 256.12 497.402 262.648C487.802 269.176 476.858 272.44 464.57 272.44C447.674 272.44 435.098 264.76 426.842 249.4C418.778 234.04 414.746 214.168 414.746 189.784C414.746 166.36 417.722 139.672 423.674 109.72C429.818 79.768 438.746 54.04 450.458 32.536C462.362 11.032 476.474 0.279984 492.794 0.279984C502.01 0.279984 509.21 4.59999 514.394 13.24C519.77 21.688 522.458 33.88 522.458 49.816C522.458 72.664 516.122 99.16 503.45 129.304C490.778 159.448 473.594 189.304 451.898 218.872C453.242 226.744 455.45 232.408 458.522 235.864C461.594 239.128 465.626 240.76 470.618 240.76C478.49 240.76 485.402 238.552 491.354 234.136C497.306 229.528 504.89 221.752 514.106 210.808C516.41 208.12 519.002 206.776 521.882 206.776ZM486.458 28.792C482.042 28.792 477.05 36.76 471.482 52.696C465.914 68.632 461.018 88.408 456.794 112.024C452.57 135.64 450.266 158.296 449.882 179.992C463.514 157.528 474.362 135.064 482.426 112.6C490.49 89.944 494.522 69.304 494.522 50.68C494.522 36.088 491.834 28.792 486.458 28.792ZM654.124 207.352C656.62 207.352 658.54 208.6 659.884 211.096C661.42 213.4 662.188 216.376 662.188 220.024C662.188 224.44 661.516 227.896 660.172 230.392C658.828 232.888 656.716 235.096 653.836 237.016L598.54 274.168C591.244 313.912 581.644 345.112 569.74 367.768C558.028 390.616 543.052 402.04 524.812 402.04C515.02 402.04 507.052 398.968 500.908 392.824C494.764 386.872 491.692 379 491.692 369.208C491.692 360.184 493.708 350.968 497.74 341.56C501.964 332.152 509.644 321.304 520.78 309.016C532.108 296.92 548.044 283 568.588 267.256L569.452 260.632C570.796 253.528 572.332 243.352 574.06 230.104C570.22 243.928 564.844 254.488 557.932 261.784C551.02 268.888 543.724 272.44 536.044 272.44C527.404 272.44 520.3 268.504 514.732 260.632C509.356 252.568 506.668 242.584 506.668 230.68C506.668 216.28 507.628 203.128 509.548 191.224C511.468 179.128 514.636 166.36 519.052 152.92C520.972 147.16 523.66 143.032 527.116 140.536C530.572 138.04 536.044 136.792 543.532 136.792C547.756 136.792 550.636 137.464 552.172 138.808C553.9 140.152 554.764 142.168 554.764 144.856C554.764 146.392 553.708 151.576 551.596 160.408C549.676 167.512 548.14 173.944 546.988 179.704C545.452 187.576 544.108 195.16 542.956 202.456C541.804 209.56 541.228 215.416 541.228 220.024C541.228 227.32 543.244 230.968 547.276 230.968C550.156 230.968 553.708 228.088 557.932 222.328C562.348 216.568 566.956 207.832 571.756 196.12C576.748 184.408 581.548 170.008 586.156 152.92C587.692 147.16 589.996 143.032 593.068 140.536C596.332 138.04 601.132 136.792 607.468 136.792C611.884 136.792 614.956 137.368 616.684 138.52C618.412 139.672 619.276 141.592 619.276 144.28C619.276 149.08 616.78 165.592 611.788 193.816L604.3 240.184C619.084 229.048 633.484 218.872 647.5 209.656C649.996 208.12 652.204 207.352 654.124 207.352ZM527.98 374.104C532.78 374.104 538.156 368.536 544.108 357.4C550.06 346.264 556.012 327.736 561.964 301.816C547.18 314.296 536.428 325.624 529.708 335.8C523.18 346.168 519.916 355.192 519.916 362.872C519.916 366.136 520.492 368.824 521.644 370.936C522.988 373.048 525.1 374.104 527.98 374.104ZM853.28 86.68C853.28 103 847.52 117.112 836 129.016C824.48 140.728 807.68 149.176 785.6 154.36C797.504 157.624 806.528 163 812.672 170.488C818.816 177.784 821.888 186.232 821.888 195.832C821.888 211 817.088 224.152 807.488 235.288C798.08 246.424 784.256 255.064 766.016 261.208C747.776 267.16 725.792 270.136 700.064 270.136C690.464 270.136 682.784 269.848 677.024 269.272C676.832 274.648 674.528 278.68 670.112 281.368C665.696 284.056 660.032 285.4 653.12 285.4C646.208 285.4 641.408 283.864 638.72 280.792C636.224 277.72 635.168 273.208 635.552 267.256C637.28 240.376 640.64 212.248 645.632 182.872C650.624 153.304 656.96 124.792 664.64 97.336C665.984 92.536 668.672 89.176 672.704 87.256C676.736 85.336 682.016 84.376 688.544 84.376C700.256 84.376 706.112 87.64 706.112 94.168C706.112 96.856 705.536 99.928 704.384 103.384C699.392 118.36 694.4 138.712 689.408 164.44C684.416 189.976 680.864 214.36 678.752 237.592C687.968 238.36 695.456 238.744 701.216 238.744C728.096 238.744 747.776 234.904 760.256 227.224C772.928 219.352 779.264 209.368 779.264 197.272C779.264 188.824 775.616 181.72 768.32 175.96C761.216 170.2 749.216 167.032 732.32 166.456C728.48 166.264 725.792 165.304 724.256 163.576C722.72 161.848 721.952 159.064 721.952 155.224C721.952 149.656 723.104 145.144 725.408 141.688C727.712 138.232 731.936 136.408 738.08 136.216C751.712 135.832 764 133.816 774.944 130.168C786.08 126.52 794.816 121.432 801.152 114.904C807.488 108.184 810.656 100.408 810.656 91.576C810.656 80.44 805.184 71.704 794.24 65.368C783.296 58.84 766.496 55.576 743.84 55.576C723.296 55.576 703.424 58.264 684.224 63.64C665.024 68.824 648.704 75.448 635.264 83.512C629.12 87.16 623.936 88.984 619.712 88.984C616.256 88.984 613.568 87.832 611.648 85.528C609.92 83.032 609.056 79.96 609.056 76.312C609.056 71.512 610.016 67.384 611.936 63.928C614.048 60.472 618.944 56.536 626.624 52.12C642.752 42.904 661.664 35.704 683.36 30.52C705.056 25.336 727.232 22.744 749.888 22.744C784.64 22.744 810.56 28.6 827.648 40.312C844.736 52.024 853.28 67.48 853.28 86.68ZM836.907 272.44C829.611 272.44 824.427 268.6 821.355 260.92C818.475 253.24 817.035 240.952 817.035 224.056C817.035 199.096 820.587 175.384 827.691 152.92C829.419 147.352 832.203 143.32 836.043 140.824C840.075 138.136 845.643 136.792 852.747 136.792C856.587 136.792 859.275 137.272 860.811 138.232C862.347 139.192 863.115 141.016 863.115 143.704C863.115 146.776 861.675 153.688 858.795 164.44C856.875 172.12 855.339 178.84 854.187 184.6C853.035 190.36 852.075 197.464 851.307 205.912C857.643 189.4 864.747 175.96 872.619 165.592C880.491 155.224 888.171 147.832 895.659 143.416C903.339 139 910.347 136.792 916.683 136.792C929.163 136.792 935.403 143.032 935.403 155.512C935.403 158.008 934.539 164.056 932.811 173.656C931.275 181.336 930.507 186.136 930.507 188.056C930.507 194.776 932.907 198.136 937.707 198.136C943.083 198.136 949.995 193.912 958.443 185.464C960.939 182.968 963.531 181.72 966.219 181.72C968.715 181.72 970.635 182.872 971.979 185.176C973.515 187.288 974.283 190.168 974.283 193.816C974.283 200.92 972.363 206.488 968.523 210.52C963.147 216.088 956.811 220.888 949.515 224.92C942.411 228.76 934.827 230.68 926.763 230.68C916.587 230.68 908.811 228.088 903.435 222.904C898.251 217.72 895.659 210.712 895.659 201.88C895.659 199 895.947 196.12 896.523 193.24C896.907 189.4 897.099 186.808 897.099 185.464C897.099 182.392 896.043 180.856 893.931 180.856C891.051 180.856 887.211 184.12 882.411 190.648C877.803 196.984 873.195 205.432 868.587 215.992C863.979 226.552 860.235 237.688 857.355 249.4C855.243 258.424 852.747 264.568 849.867 267.832C847.179 270.904 842.859 272.44 836.907 272.44ZM982.946 272.44C971.042 272.44 961.538 268.12 954.434 259.48C947.33 250.84 943.778 239.512 943.778 225.496C943.778 210.136 947.33 195.64 954.434 182.008C961.538 168.184 970.946 157.144 982.658 148.888C994.562 140.44 1007.14 136.216 1020.39 136.216C1024.61 136.216 1027.39 137.08 1028.74 138.808C1030.27 140.344 1031.52 143.224 1032.48 147.448C1036.51 146.68 1040.74 146.296 1045.15 146.296C1054.56 146.296 1059.27 149.656 1059.27 156.376C1059.27 160.408 1057.83 170.008 1054.95 185.176C1050.53 207.256 1048.32 222.616 1048.32 231.256C1048.32 234.136 1048.99 236.44 1050.34 238.168C1051.87 239.896 1053.79 240.76 1056.1 240.76C1059.75 240.76 1064.16 238.456 1069.35 233.848C1074.53 229.048 1081.54 221.368 1090.37 210.808C1092.67 208.12 1095.27 206.776 1098.15 206.776C1100.64 206.776 1102.56 207.928 1103.91 210.232C1105.44 212.536 1106.21 215.704 1106.21 219.736C1106.21 227.416 1104.39 233.368 1100.74 237.592C1092.87 247.384 1084.51 255.64 1075.68 262.36C1066.85 269.08 1058.31 272.44 1050.05 272.44C1043.71 272.44 1037.86 270.328 1032.48 266.104C1027.3 261.688 1023.36 255.736 1020.67 248.248C1010.69 264.376 998.114 272.44 982.946 272.44ZM993.314 243.352C997.538 243.352 1001.57 240.856 1005.41 235.864C1009.25 230.872 1012.03 224.248 1013.76 215.992L1024.42 163C1016.35 163.192 1008.87 166.264 1001.95 172.216C995.234 177.976 989.858 185.656 985.826 195.256C981.794 204.856 979.778 215.032 979.778 225.784C979.778 231.736 980.93 236.152 983.234 239.032C985.73 241.912 989.09 243.352 993.314 243.352ZM1120.53 117.784C1112.47 117.784 1106.42 115.96 1102.39 112.312C1098.35 108.472 1096.34 103.192 1096.34 96.472C1096.34 89.752 1098.93 84.184 1104.11 79.768C1109.49 75.16 1116.11 72.856 1123.99 72.856C1131.09 72.856 1136.85 74.584 1141.27 78.04C1145.68 81.496 1147.89 86.392 1147.89 92.728C1147.89 100.408 1145.39 106.552 1140.4 111.16C1135.41 115.576 1128.79 117.784 1120.53 117.784ZM1118.23 272.44C1105.75 272.44 1096.63 268.024 1090.87 259.192C1085.3 250.36 1082.51 238.648 1082.51 224.056C1082.51 215.416 1083.57 204.376 1085.68 190.936C1087.99 177.304 1090.87 164.632 1094.32 152.92C1096.05 146.776 1098.35 142.552 1101.23 140.248C1104.11 137.944 1108.72 136.792 1115.06 136.792C1124.85 136.792 1129.75 140.056 1129.75 146.584C1129.75 151.384 1127.92 162.52 1124.27 179.992C1119.67 201.112 1117.36 215.416 1117.36 222.904C1117.36 228.664 1118.13 233.08 1119.67 236.152C1121.2 239.224 1123.79 240.76 1127.44 240.76C1130.9 240.76 1135.22 238.36 1140.4 233.56C1145.59 228.76 1152.5 221.176 1161.14 210.808C1163.44 208.12 1166.03 206.776 1168.91 206.776C1171.41 206.776 1173.33 207.928 1174.67 210.232C1176.21 212.536 1176.98 215.704 1176.98 219.736C1176.98 227.416 1175.15 233.368 1171.51 237.592C1152.5 260.824 1134.74 272.44 1118.23 272.44ZM1174.13 272.44C1166.83 272.44 1161.65 268.6 1158.57 260.92C1155.69 253.24 1154.25 240.952 1154.25 224.056C1154.25 199.096 1157.81 175.384 1164.91 152.92C1166.64 147.352 1169.42 143.32 1173.26 140.824C1177.29 138.136 1182.86 136.792 1189.97 136.792C1193.81 136.792 1196.49 137.272 1198.03 138.232C1199.57 139.192 1200.33 141.016 1200.33 143.704C1200.33 146.776 1198.89 153.688 1196.01 164.44C1194.09 172.12 1192.56 178.84 1191.41 184.6C1190.25 190.36 1189.29 197.464 1188.53 205.912C1194.86 189.4 1201.97 175.96 1209.84 165.592C1217.71 155.224 1225.39 147.832 1232.88 143.416C1240.56 139 1247.57 136.792 1253.9 136.792C1266.38 136.792 1272.62 143.032 1272.62 155.512C1272.62 163 1270.51 176.536 1266.29 196.12C1262.64 212.824 1260.81 223.864 1260.81 229.24C1260.81 236.92 1263.6 240.76 1269.17 240.76C1273.01 240.76 1277.52 238.456 1282.7 233.848C1288.08 229.048 1295.18 221.368 1304.01 210.808C1306.32 208.12 1308.91 206.776 1311.79 206.776C1314.29 206.776 1316.21 207.928 1317.55 210.232C1319.09 212.536 1319.85 215.704 1319.85 219.736C1319.85 227.416 1318.03 233.368 1314.38 237.592C1306.13 247.768 1297.2 256.12 1287.6 262.648C1278.19 269.176 1267.44 272.44 1255.34 272.44C1245.55 272.44 1238.16 269.656 1233.17 264.088C1228.17 258.328 1225.68 250.072 1225.68 239.32C1225.68 233.944 1227.02 224.344 1229.71 210.52C1232.21 198.424 1233.45 190.072 1233.45 185.464C1233.45 182.392 1232.4 180.856 1230.29 180.856C1227.79 180.856 1224.24 184.12 1219.63 190.648C1215.21 196.984 1210.61 205.432 1205.81 215.992C1201.2 226.552 1197.45 237.688 1194.57 249.4C1192.46 258.424 1189.97 264.568 1187.09 267.832C1184.4 270.904 1180.08 272.44 1174.13 272.44Z" fill="black"/>
</svg>