<?xml version="1.0" encoding="UTF-8" standalone="no"?>
<svg
   xmlns:dc="http://purl.org/dc/elements/1.1/"
   xmlns:cc="http://creativecommons.org/ns#"
   xmlns:rdf="http://www.w3.org/1999/02/22-rdf-syntax-ns#"
   xmlns:svg="http://www.w3.org/2000/svg"
   xmlns="http://www.w3.org/2000/svg"
   xmlns:sodipodi="http://sodipodi.sourceforge.net/DTD/sodipodi-0.dtd"
   xmlns:inkscape="http://www.inkscape.org/namespaces/inkscape"
   id="Layer_1"
   data-name="Layer 1"
   viewBox="0 0 172.05022 171.37384"
   version="1.1"
   sodipodi:docname="elastic.svg"
   width="172.05022"
   height="171.37384"
   inkscape:version="1.0.2 (e86c870879, 2021-01-15)">
  <metadata
     id="metadata40">
    <rdf:RDF>
      <cc:Work
         rdf:about="">
        <dc:format>image/svg+xml</dc:format>
        <dc:type
           rdf:resource="http://purl.org/dc/dcmitype/StillImage" />
        <dc:title>logo-elastic-horizontal-color</dc:title>
      </cc:Work>
    </rdf:RDF>
  </metadata>
  <sodipodi:namedview
     pagecolor="#ffffff"
     bordercolor="#666666"
     borderopacity="1"
     objecttolerance="10"
     gridtolerance="10"
     guidetolerance="10"
     inkscape:pageopacity="0"
     inkscape:pageshadow="2"
     inkscape:window-width="1517"
     inkscape:window-height="965"
     id="namedview38"
     showgrid="false"
     inkscape:zoom="1.318"
     inkscape:cx="275.33025"
     inkscape:cy="138.72783"
     inkscape:window-x="292"
     inkscape:window-y="27"
     inkscape:window-maximized="0"
     inkscape:current-layer="Layer_1"
     inkscape:document-rotation="0"
     fit-margin-top="0"
     fit-margin-left="0"
     fit-margin-right="0"
     fit-margin-bottom="0" />
  <defs
     id="defs4">
    <style
       id="style2">.cls-1{fill:#fff;}.cls-2{fill:#fec514;}.cls-3{fill:#00bfb3;}.cls-4{fill:#f04e98;}.cls-5{fill:#1ba9f5;}.cls-6{fill:#93c90e;}.cls-7{fill:#07c;}.cls-8{fill:#1c1e23;}</style>
  </defs>
  <title
     id="title6">logo-elastic-horizontal-color</title>
  <g
     id="g44">
    <path
       class="cls-1"
       d="m 172.05012,89.797485 a 33.85,33.85 0 0 0 -22.39,-31.93 48.11,48.11 0 0 0 0.9,-9.25 48.59,48.59 0 0 0 -88.000005,-28.45 25.81,25.81 0 0 0 -40,29.399999 A 34.31,34.31 0 0 0 1.1522881e-4,81.627485 33.88,33.88 0 0 0 22.500115,113.62748 a 49.73,49.73 0 0 0 -0.89,9.24 48.46,48.46 0 0 0 87.860005,28.26 25.77,25.77 0 0 0 40,-29.29 34.29,34.29 0 0 0 22.57,-32.059995"
       id="path8" />
    <path
       class="cls-2"
       d="m 67.640115,73.817485 37.650005,17.19 38,-33.280001 a 42,42 0 0 0 0.81,-8.34 42.46,42.46 0 0 0 -77.480005,-24 l -6.33,32.74 z"
       id="path10" />
    <path
       class="cls-3"
       d="m 28.670115,113.68748 a 43.14,43.14 0 0 0 -0.83,8.47 42.57,42.57 0 0 0 77.770005,23.94 l 6.27,-32.67 -8.37,-15.999995 -37.790005,-17.22 z"
       id="path12" />
    <path
       class="cls-4"
       d="m 28.440115,48.537484 25.8,6.090001 5.65,-29.34 a 20.38,20.38 0 0 0 -31.45,23.249999"
       id="path14" />
    <path
       class="cls-5"
       d="M 26.200115,54.677484 A 28.74,28.74 0 0 0 6.6501152,81.677485 28.44,28.44 0 0 0 25.000115,108.28748 l 36.2,-32.719995 -6.65,-14.200001 z"
       id="path16" />
    <path
       class="cls-6"
       d="m 112.23012,146.09748 a 20.35,20.35 0 0 0 31.39,-23.2 l -25.78,-6 z"
       id="path18" />
    <path
       class="cls-7"
       d="m 117.47012,110.10748 28.38,6.63 a 28.7,28.7 0 0 0 19.55,-26.999996 28.41,28.41 0 0 0 -18.34,-26.54 l -37.12,32.500001 z"
       id="path20" />
  </g>
</svg>
