<?xml version="1.0" encoding="UTF-8" standalone="no"?>
<svg
   xmlns:dc="http://purl.org/dc/elements/1.1/"
   xmlns:cc="http://creativecommons.org/ns#"
   xmlns:rdf="http://www.w3.org/1999/02/22-rdf-syntax-ns#"
   xmlns:svg="http://www.w3.org/2000/svg"
   xmlns="http://www.w3.org/2000/svg"
   xmlns:sodipodi="http://sodipodi.sourceforge.net/DTD/sodipodi-0.dtd"
   xmlns:inkscape="http://www.inkscape.org/namespaces/inkscape"
   viewBox="-1.6 -1.1 486.06899 486.06899"
   version="1.1"
   id="svg14"
   sodipodi:docname="github-actions.svg"
   width="486.069"
   height="486.069"
   inkscape:version="1.0.2 (e86c870879, 2021-01-15)">
  <metadata
     id="metadata18">
    <rdf:RDF>
      <cc:Work
         rdf:about="">
        <dc:format>image/svg+xml</dc:format>
        <dc:type
           rdf:resource="http://purl.org/dc/dcmitype/StillImage" />
        <dc:title></dc:title>
      </cc:Work>
    </rdf:RDF>
  </metadata>
  <sodipodi:namedview
     pagecolor="#ffffff"
     bordercolor="#666666"
     borderopacity="1"
     objecttolerance="10"
     gridtolerance="10"
     guidetolerance="10"
     inkscape:pageopacity="0"
     inkscape:pageshadow="2"
     inkscape:window-width="1517"
     inkscape:window-height="965"
     id="namedview16"
     showgrid="false"
     inkscape:zoom="1.1739828"
     inkscape:cx="242.77201"
     inkscape:cy="294.88296"
     inkscape:window-x="0"
     inkscape:window-y="27"
     inkscape:window-maximized="0"
     inkscape:current-layer="svg14"
     inkscape:document-rotation="0"
     fit-margin-top="0"
     fit-margin-left="0"
     fit-margin-right="0"
     fit-margin-bottom="0" />
  <defs
     id="defs4">
    <style
       id="style2">
      .cls-1{fill:#2671e5}.cls-2{fill:#fff}
    </style>
  </defs>
  <rect
     width="486.069"
     height="486.069"
     x="-1.6"
     y="-1.1"
     class="cls-1"
     rx="144"
     id="rect8" />
  <path
     d="m 373.053,223.685 a 39.137,39.137 0 0 0 -62.28,-3.376 41.039,41.039 0 0 0 -6.63,9.563 49.903,49.903 0 0 0 -3.996,10.563 h -24.07 a 9.71,9.71 0 0 1 -1.144,-2.867 c -3.275,-12.86 -11.301,-22.055 -23.473,-27.123 -23.433,-9.759 -48.868,3.186 -55.421,27.865 -0.43,1.621 -0.11,3.456 -2.853,3.833 -11.36,1.562 -24.183,-4.938 -29.567,-15.308 -3.63,-6.992 -3.438,-7.6 4.365,-8.58 32.39,-4.068 58.84,-36.956 47.644,-75.096 -8.112,-27.633 -38.396,-45.567 -66.762,-39.691 -26.74,5.539 -45.62,27.835 -47.019,55.526 -1.286,25.474 16.333,49.822 41.917,57.39 3.855,1.14 4.726,2.846 4.707,6.546 -0.132,25.827 -0.25,51.658 0.032,77.483 0.262,23.886 17.783,43.331 41.26,45.85 4.424,0.474 5.92,2.036 7.03,6.142 4.373,16.193 18.915,27.711 35.85,28.995 a 40.294,40.294 0 0 0 39.564,-22.76 c 10.35,-22.187 0.098,-47.524 -22.627,-55.92 -22.509,-8.316 -47.004,4.575 -53.217,28.333 -1.064,4.065 -2.849,4.315 -6.247,3.752 -17.443,-2.887 -29.555,-16.785 -30.042,-34.916 -0.196,-7.28 -0.047,-14.569 -0.049,-21.854 -0.003,-11.54 0,-23.082 0,-35.953 5.617,4.306 10.347,7.546 15.909,9.432 a 47.513,47.513 0 0 0 17.137,2.175 c 2.793,-0.097 2.56,2.004 2.998,3.65 2.997,11.253 9.314,20.03 19.495,25.814 a 40.424,40.424 0 0 0 59.324,-24.943 9.115,9.115 0 0 1 1.16,-2.806 h 24.472 a 21.595,21.595 0 0 0 0.83,3.902 c 5.055,18.2 21.745,29.802 40.829,29.154 15.31,-0.52 32.563,-10.16 37.839,-31.702 a 39.483,39.483 0 0 0 -6.965,-33.074 z m -137.332,88.318 a 28.734,28.734 0 0 1 29.008,28.961 29.05,29.05 0 1 1 -29.008,-28.961 z M 113.811,160.361 a 46.362,46.362 0 0 1 92.722,0.162 46.362,46.362 0 1 1 -92.722,-0.162 z m 121.711,116.485 a 28.937,28.937 0 1 1 29.201,-28.79 28.905,28.905 0 0 1 -29.201,28.79 z m 92.052,-2.865 a 29.153,29.153 0 1 1 12.849,2.863 c -0.27,0 -0.538,-0.011 -0.807,-0.018 a 30.97,30.97 0 0 1 -12.042,-2.846 z"
     class="cls-2"
     id="path10" />
  <path
     d="m 184.015,150.85 q -14.279,-9.423 -28.954,-18.242 c -8.629,-5.211 -17.92,0.049 -18.163,10.144 -0.144,5.951 -0.027,11.908 -0.02,17.862 0.008,6.12 -0.108,12.242 0.034,18.358 0.221,9.49 9.328,14.937 17.464,10.2 q 14.995,-8.73 29.53,-18.243 c 8.064,-5.274 8.084,-14.817 0.11,-20.08 z m -7.926,11.34 q -12.462,7.702 -24.912,15.42 c -1.44,0.892 -2.553,0.979 -2.557,-1.16 -0.018,-11.038 -0.008,-22.075 -0.008,-34.158 9.734,6.116 18.644,11.706 27.542,17.315 1.347,0.85 1.308,1.735 -0.065,2.584 z m 47.866,184.431 c 3.523,-0.23 5.671,-2.22 5.806,-5.526 a 5.201,5.201 0 0 0 -5.372,-5.778 c -3.687,-0.141 -5.9,1.914 -5.953,5.651 -0.051,3.57 2.212,5.217 5.519,5.653 z m 23.595,-0.07 c 3.407,-0.504 5.59,-2.332 5.408,-5.895 -0.178,-3.504 -2.4,-5.497 -5.896,-5.334 -3.466,0.162 -5.595,2.311 -5.45,5.807 0.146,3.5 2.46,5.218 5.938,5.422 z M 355.453,244.647 c 1.329,-1.325 2.4,-2.75 2.253,-4.912 a 5.076,5.076 0 0 0 -3.14,-5.03 5.296,5.296 0 0 0 -6.411,1.039 115.808,115.808 0 0 0 -8.774,8.772 c -3.136,3.684 -5.719,5.414 -9.562,0.63 -2.26,-2.812 -5.677,-2.757 -8.302,-0.012 -2.467,2.578 -2.068,5.508 0.209,8.022 2.44,2.696 5.047,5.255 7.704,7.741 3.677,3.44 6.177,3.447 9.85,-0.122 5.461,-5.304 10.782,-10.752 16.173,-16.128 z m -105.249,-9.824 a 5.26,5.26 0 0 0 -6.45,0.71 109.979,109.979 0 0 0 -8.5,8.311 c -3.257,3.65 -6.041,6.508 -10.407,1.042 -2.133,-2.672 -5.475,-2.296 -7.91,0.19 -2.486,2.536 -2.231,5.45 0.092,7.985 2.566,2.8 5.333,5.416 8.038,8.084 3.234,3.19 6.403,2.874 9.505,-0.23 q 8.057,-8.066 16.131,-16.116 c 1.44,-1.436 2.675,-2.957 2.451,-5.134 a 5.152,5.152 0 0 0 -2.95,-4.842 z"
     class="cls-2"
     id="path12" />
</svg>
