<?xml version="1.0" encoding="UTF-8" standalone="no"?>
<svg
   xmlns:dc="http://purl.org/dc/elements/1.1/"
   xmlns:cc="http://creativecommons.org/ns#"
   xmlns:rdf="http://www.w3.org/1999/02/22-rdf-syntax-ns#"
   xmlns:svg="http://www.w3.org/2000/svg"
   xmlns="http://www.w3.org/2000/svg"
   xmlns:sodipodi="http://sodipodi.sourceforge.net/DTD/sodipodi-0.dtd"
   xmlns:inkscape="http://www.inkscape.org/namespaces/inkscape"
   width="2499.9951"
   height="1252.926"
   viewBox="0 0 511.999 256.57529"
   preserveAspectRatio="xMidYMid"
   version="1.1"
   id="svg4"
   sodipodi:docname="gocd.svg"
   inkscape:version="1.0.2 (e86c870879, 2021-01-15)">
  <metadata
     id="metadata10">
    <rdf:RDF>
      <cc:Work
         rdf:about="">
        <dc:format>image/svg+xml</dc:format>
        <dc:type
           rdf:resource="http://purl.org/dc/dcmitype/StillImage" />
      </cc:Work>
    </rdf:RDF>
  </metadata>
  <defs
     id="defs8" />
  <sodipodi:namedview
     pagecolor="#ffffff"
     bordercolor="#666666"
     borderopacity="1"
     objecttolerance="10"
     gridtolerance="10"
     guidetolerance="10"
     inkscape:pageopacity="0"
     inkscape:pageshadow="2"
     inkscape:window-width="1517"
     inkscape:window-height="1002"
     id="namedview6"
     showgrid="false"
     inkscape:zoom="0.5272"
     inkscape:cx="1250"
     inkscape:cy="627.44263"
     inkscape:window-x="0"
     inkscape:window-y="27"
     inkscape:window-maximized="0"
     inkscape:current-layer="svg4" />
  <path
     d="m 354.948,213.45325 c -3.318,8.927 -8.058,16.59 -14.22,22.989 -6.162,6.399 -13.51,11.376 -22.12,14.852 -8.611,3.476 -18.091,5.293 -28.44,5.293 -16.116,0 -29.941,-4.029 -41.397,-12.008 -11.455,-7.979 -18.96,-18.881 -22.515,-32.785 h 23.384 c 2.291,5.056 5.135,9.164 8.69,12.245 3.477,3.08 7.269,5.372 11.219,6.952 3.95,1.58 7.742,2.607 11.455,3.16 3.713,0.553 6.715,0.79 9.243,0.79 8.61,0 15.879,-1.501 21.962,-4.582 6.083,-3.081 10.98,-7.031 14.694,-11.85 3.792,-4.82 6.478,-10.27 8.137,-16.432 1.659,-6.162 2.528,-12.245 2.528,-18.407 v -14.22 c -4.898,6.636 -11.376,12.324 -19.355,16.985 -7.98,4.66 -16.906,6.952 -26.702,6.952 -9.796,0 -18.881,-1.817 -27.097,-5.53 -8.216,-3.713 -15.406,-8.77 -21.41,-15.247 -6.083,-6.478 -10.823,-14.062 -14.22,-22.594 -3.397,-8.611 -5.135,-17.775 -5.135,-27.65 0,-9.875 1.738,-19.04 5.135,-27.73 3.397,-8.69 8.137,-16.194 14.22,-22.593 6.083,-6.4 13.194,-11.455 21.41,-15.247 8.216,-3.792 17.3,-5.688 27.097,-5.688 10.033,0 19.118,2.449 27.334,7.347 8.216,4.898 14.694,10.823 19.434,17.617 v -21.567 h 21.567 v 129.165 c 0.079,10.98 -1.58,20.856 -4.898,29.783 z m -21.014,-110.442 c -2.45,-6.162 -5.767,-11.534 -10.033,-16.195 -4.187,-4.661 -9.085,-8.295 -14.615,-10.902 -5.53,-2.607 -11.455,-3.95 -17.775,-3.95 -6.32,0 -12.245,1.343 -17.854,3.95 -5.61,2.607 -10.428,6.24 -14.457,10.902 -4.03,4.66 -7.269,10.033 -9.639,16.195 -2.37,6.162 -3.555,12.719 -3.555,19.75 0,6.873 1.185,13.35 3.555,19.434 2.37,6.162 5.53,11.455 9.639,16.037 4.029,4.582 8.848,8.137 14.457,10.823 a 42.06,42.06 0 0 0 17.854,3.95 c 6.32,0 12.245,-1.343 17.775,-3.95 5.53,-2.607 10.428,-6.241 14.615,-10.823 4.187,-4.582 7.505,-9.875 10.033,-16.037 a 52.169,52.169 0 0 0 3.713,-19.434 c -0.08,-7.031 -1.264,-13.667 -3.713,-19.75 z m 136.906,-46.215 c 8.295,3.792 15.484,8.927 21.567,15.405 6.083,6.478 10.823,14.062 14.299,22.752 3.476,8.69 5.293,17.933 5.293,27.729 0,9.796 -1.738,18.96 -5.293,27.492 -3.476,8.532 -8.295,15.958 -14.299,22.357 -6.083,6.399 -13.272,11.455 -21.567,15.089 -8.295,3.634 -17.301,5.53 -26.94,5.53 -9.637,0 -18.564,-1.817 -26.86,-5.53 -8.294,-3.713 -15.404,-8.69 -21.566,-15.09 -6.162,-6.398 -10.981,-13.824 -14.457,-22.356 -3.476,-8.532 -5.293,-17.696 -5.293,-27.492 0,-9.796 1.738,-19.04 5.293,-27.73 3.476,-8.69 8.295,-16.273 14.457,-22.751 6.162,-6.478 13.35,-11.613 21.567,-15.405 8.216,-3.792 17.222,-5.688 26.86,-5.688 9.638,0.079 18.565,1.975 26.939,5.688 z m -9.243,111.943 c 5.53,-2.607 10.428,-6.162 14.615,-10.665 4.187,-4.503 7.505,-9.796 9.875,-15.88 2.37,-6.161 3.555,-12.64 3.555,-19.433 0,-7.031 -1.185,-13.667 -3.555,-19.83 -2.37,-6.24 -5.688,-11.612 -9.875,-16.194 a 48.145,48.145 0 0 0 -14.615,-10.902 c -5.53,-2.686 -11.455,-4.108 -17.775,-4.108 -6.32,0 -12.245,1.343 -17.775,4.108 a 46.557,46.557 0 0 0 -14.457,10.902 c -4.108,4.582 -7.347,9.954 -9.717,16.195 -2.37,6.24 -3.555,12.877 -3.555,19.829 0,6.873 1.185,13.35 3.555,19.434 2.37,6.162 5.609,11.455 9.717,15.879 a 45.84,45.84 0 0 0 14.457,10.665 c 5.53,2.607 11.455,3.95 17.775,3.95 6.399,0 12.245,-1.343 17.775,-3.95 z m -439.161,55.142 c -3.634,0 -7.268,-0.87 -10.586,-2.686 A 22.378,22.378 0 0 1 2.2881577e-7,201.44525 v -89.507 C 2.2881577e-7,99.53525 10.033,89.58125 22.357,89.58125 c 12.324,0 22.357,10.033 22.357,22.357 v 47.716 l 71.574,-47.716 -106.255,-70.942 C -0.23699977,34.12325 -3.0019998,20.21825 3.7920002,9.9482502 10.665,-0.32174977 24.569,-3.0867498 34.839,3.7082502 L 169.219,93.29425 a 22.39,22.39 0 0 1 9.953,18.644 22.39,22.39 0 0 1 -9.954,18.644 l -134.3,89.586 c -3.792,2.449 -8.137,3.713 -12.482,3.713 z"
     id="path2" />
</svg>
