<?xml version="1.0" encoding="UTF-8" standalone="no"?>
<svg
   xmlns:dc="http://purl.org/dc/elements/1.1/"
   xmlns:cc="http://creativecommons.org/ns#"
   xmlns:rdf="http://www.w3.org/1999/02/22-rdf-syntax-ns#"
   xmlns:svg="http://www.w3.org/2000/svg"
   xmlns="http://www.w3.org/2000/svg"
   xmlns:sodipodi="http://sodipodi.sourceforge.net/DTD/sodipodi-0.dtd"
   xmlns:inkscape="http://www.inkscape.org/namespaces/inkscape"
   width="150.99965"
   height="150.5244"
   viewBox="0 0 150.99965 150.5244"
   version="1.1"
   id="svg54"
   sodipodi:docname="travis-ci.svg"
   inkscape:version="1.0.2 (e86c870879, 2021-01-15)">
  <metadata
     id="metadata60">
    <rdf:RDF>
      <cc:Work
         rdf:about="">
        <dc:format>image/svg+xml</dc:format>
        <dc:type
           rdf:resource="http://purl.org/dc/dcmitype/StillImage" />
        <dc:title>travis-ci-seeklogo.com 2</dc:title>
      </cc:Work>
    </rdf:RDF>
  </metadata>
  <defs
     id="defs58" />
  <sodipodi:namedview
     pagecolor="#ffffff"
     bordercolor="#666666"
     borderopacity="1"
     objecttolerance="10"
     gridtolerance="10"
     guidetolerance="10"
     inkscape:pageopacity="0"
     inkscape:pageshadow="2"
     inkscape:window-width="1517"
     inkscape:window-height="965"
     id="namedview56"
     showgrid="false"
     inkscape:zoom="3.0022779"
     inkscape:cx="136.22693"
     inkscape:cy="75.5"
     inkscape:window-x="0"
     inkscape:window-y="27"
     inkscape:window-maximized="0"
     inkscape:current-layer="svg54"
     inkscape:document-rotation="0"
     fit-margin-top="0"
     fit-margin-left="0"
     fit-margin-right="0"
     fit-margin-bottom="0" />
  <title
     id="title2">travis-ci-seeklogo.com 2</title>
  <g
     id="g6703"
     style="fill:none;fill-rule:nonzero;stroke:none;stroke-width:1">
    <g
       id="g6705"
       transform="translate(11.325,62.221106)"
       fill="#cb3349">
      <path
         d="m 24.749655,3.469206 c 0,0 -23.49409,16.619864 -24.412925,22.951241 l 1.762925,-0.364221 c 0,0 28.13432,-18.7414521 50.436265,-21.0269396 l 0.505095,-2.8447186 z"
         id="path6707" />
      <path
         d="M 61.629895,1.0941809 43.12409,14.285814 44.124465,15.092412 C 44.87871,14.480824 76.99641,4.6225729 76.99641,4.6225729 L 83.768005,0.35587437 C 79.224415,0.92421106 61.629895,1.0941809 61.629895,1.0941809 Z"
         id="path6709" />
      <path
         d="m 77.71366,17.049342 c 13.140775,0 32.83873,-12.9344023 32.83873,-12.9344023 L 104.18471,2.8970754 C 103.86988,3.2134925 93.916715,2.5465126 93.916715,2.5465126 L 89.191925,1.2277286 77.90392,14.154543 76.985085,16.397538 c 0.811625,-0.331593 0.728575,0.651804 0.728575,0.651804 z"
         id="path6711" />
    </g>
    <path
       d="m 131.91964,120.52076 -4.05963,1.14882 -18.75647,-0.40747 -11.733455,-9.17003 -14.18192,3.56633 -16.40313,-1.42653 -9.18533,10.08741 -17.23514,5.17421 -8.60549,-2.68157 c -0.274065,-0.23751 -0.43337,-0.37485 -0.43337,-0.37485 l 3.86258,9.50541 c 0,0 8.74894,9.42726 13.636055,10.53586 4.88636,1.10859 13.714575,-0.0797 20.335925,-1.11012 6.620595,-1.02968 11.90182,-3.40623 14.02941,-7.2867 2.12759,-3.88275 2.44318,-4.99134 2.44318,-4.99134 0,0 6.306515,8.95149 11.74478,9.98193 5.438265,1.02968 21.596775,-4.51634 21.596775,-4.51634 0,0 9.8535,-2.69296 11.58623,-6.09919 1.73423,-3.40622 6.30651,-14.57567 6.30651,-14.57567 z m -98.35536,7.74425 c -0.0906,-0.0417 -0.181955,-0.0842 -0.272555,-0.12595 -0.64628,-0.56075 -1.17478,-1.01906 -1.519815,-1.31727 z"
       id="path6713"
       fill="#cb3349" />
    <g
       id="g6715">
      <path
         d="m 147.85316,53.180075 c -0.0408,-0.50915 -0.0966,-1.018301 -0.15855,-1.524417 -0.0438,-0.358909 -0.10041,-0.733754 -0.16233,-1.080522 -1.35371,-1.14502 -2.8924,-2.163322 -4.49376,-3.089051 -1.73574,-1.01906 -3.55152,-1.931889 -5.40504,-2.779462 -1.84069,-0.872613 -3.73121,-1.662518 -5.63306,-2.433452 -0.94903,-0.386985 -1.90637,-0.762588 -2.86749,-1.120739 -0.95809,-0.375603 -1.92525,-0.725407 -2.89542,-1.080523 2.03623,0.339181 4.05133,0.803563 6.05132,1.321061 1.30087,0.338422 2.59494,0.71706 3.8807,1.120738 C 127.02497,18.494085 105.16169,2.8515477 81.29085,2.8515477 c -23.87461,0 -45.735635,15.6425373 -54.87793,39.6621603 1.285765,-0.403678 2.579835,-0.782316 3.878435,-1.120738 2.003015,-0.517498 4.018865,-0.98188 6.05359,-1.321061 -0.973195,0.355116 -1.938085,0.70492 -2.8992,1.080523 -0.956585,0.358151 -1.91468,0.733754 -2.86749,1.120739 -1.901845,0.770934 -3.78708,1.560839 -5.6323,2.433452 -1.84975,0.847573 -3.667035,1.760402 -5.40278,2.779462 -1.601355,0.92497 -3.138535,1.944031 -4.497535,3.089051 -0.05663,0.346768 -0.114005,0.721613 -0.15855,1.080522 -0.06116,0.506116 -0.117025,1.015267 -0.15855,1.524417 -0.08909,1.023613 -0.12533,2.051021 -0.133635,3.081463 -0.02039,2.058608 0.11778,4.117216 0.3775,6.153819 0.27935,2.042673 0.65232,4.071688 1.204225,6.033171 0.2718,0.982638 0.57984,1.951618 0.9362,2.889487 0.178935,0.468176 0.373725,0.929523 0.57682,1.37797 0.10117,0.223085 0.20687,0.443894 0.311815,0.655598 l 0.12986,0.248884 c 0.150245,0.07664 0.30804,0.154794 0.458285,0.227639 l 0.90902,0.436306 c 0.506605,0.231432 1.208,0.56606 1.78784,0.827085 0.03246,-0.02808 0.06493,-0.05691 0.09286,-0.0865 l -1.68742,-6.459615 c 0.35787,-0.09864 3.56209,-0.929523 9.08416,-1.985764 -0.44545,-0.08499 -0.89543,-0.182869 -1.33786,-0.2891 -1.257075,-0.314141 -2.498295,-0.697332 -3.698745,-1.186754 -0.59645,-0.252679 -1.18384,-0.52888 -1.743295,-0.846055 -0.56021,-0.323247 -1.11136,-0.688985 -1.537935,-1.174614 6.06718,1.989558 18.6032,1.088111 29.746245,-0.06905 10.191745,-1.055482 20.406895,-1.739914 30.67565,-1.760402 10.26951,0.02049 20.48844,0.70492 30.67565,1.760402 11.14833,1.157161 23.68435,2.058608 29.75077,0.06905 -0.42582,0.485629 -0.97621,0.852126 -1.53642,1.174614 -0.55946,0.317175 -1.14685,0.593376 -1.74254,0.846055 -1.20196,0.489422 -2.44167,0.872613 -3.69875,1.186754 -0.18648,0.04477 -0.37448,0.08574 -0.56096,0.125959 6.0551,1.129086 9.58019,2.046468 9.95694,2.148146 l -1.61419,6.153819 c 0.32465,-0.147206 0.65232,-0.2891 0.97395,-0.435548 l 0.90751,-0.436306 c 0.151,-0.0736 0.30426,-0.151 0.45828,-0.227638 l 0.12533,-0.248885 c 0.11023,-0.211703 0.21594,-0.432512 0.31635,-0.655598 0.20385,-0.448447 0.39864,-0.909794 0.57682,-1.37797 0.35711,-0.937869 0.66591,-1.906849 0.93695,-2.889487 0.55191,-1.961482 0.92488,-3.990497 1.20423,-6.033171 0.26047,-2.037362 0.39713,-4.09597 0.37825,-6.153819 -0.008,-1.028924 -0.0453,-2.056332 -0.13514,-3.079945 z"
         id="path6717"
         fill="#f4edae" />
      <path
         d="m 88.174185,138.60206 c -0.80332,0.12141 -1.60664,0.22385 -2.40543,0.28455 -0.51491,0.025 -1.06002,0.0774 -1.554545,0.0774 l -0.18271,0.004 c 0.62061,-1.3939 1.09173,-2.47366 1.448845,-3.2924 0.727065,0.81949 1.65194,1.834 2.69384,2.92666 z"
         id="path6719"
         fill="#e6ccad" />
      <path
         d="m 89.921255,140.39054 c 2.49452,2.48278 5.58549,3.90476 8.98752,4.15743 -5.714595,2.33254 -11.10001,3.23247 -15.248735,3.51322 -4.13589,0.27848 -8.32916,-0.2117 -12.43787,-1.34382 0.34428,-0.0622 0.59645,-0.10623 0.900715,-0.14342 0.337485,-0.041 7.70553,-1.00692 11.026775,-5.97019 l 0.311815,0.007 0.8154,-0.007 c 0.551905,0 1.053225,-0.0455 1.58097,-0.066 1.2533,-0.10927 2.478665,-0.2891 3.68289,-0.53343 0.126085,0.12975 0.251415,0.25647 0.38052,0.38622 z"
         id="path6721"
         fill="#e6ccad" />
      <path
         d="m 96.99032,66.06895 c -0.239335,0.313382 -0.506605,0.659392 -0.79124,1.01906 -1.459415,1.854493 -3.48357,4.226482 -5.88447,6.546116 -2.79048,-0.0865 -5.65797,-0.134307 -8.61002,-0.134307 -4.8773,0 -9.554525,0.129754 -13.995435,0.346769 6.274805,-2.617081 13.81348,-5.173457 21.977295,-6.709256 2.38429,-0.453759 4.825205,-0.816463 7.30387,-1.068382 z"
         id="path6723"
         fill="#656c67" />
      <path
         d="m 60.264855,68.892422 c -2.23933,1.581327 -4.769335,3.599719 -7.22233,6.048347 -6.282355,0.632075 -11.76139,1.397698 -16.283085,2.132211 6.951285,-3.211216 14.883315,-6.166719 23.505415,-8.180558 z"
         id="path6725"
         fill="#656c67" />
      <path
         d="m 137.0174,81.926226 -2.55492,17.967483 -12.24006,8.616101 -31.923665,-3.64752 -4.805575,-15.905079 c -0.114005,-0.386985 -0.438655,-0.671533 -0.83654,-0.736789 -1.183085,-0.191975 -2.229515,-0.289859 -3.10154,-0.289859 -0.8758,0 -1.918455,0.09788 -3.106825,0.289859 -0.39411,0.06526 -0.71725,0.349804 -0.83503,0.736789 L 72.92545,104.47455 41.179965,111.57458 28.600155,102.71794 26.12149,82.555266 c 0.539825,-0.306552 1.087955,-0.611588 1.64288,-0.917382 0.778405,-0.168452 1.654205,-0.346768 2.623625,-0.53419 l 2.33597,19.025246 c 0.03624,0.29744 0.19932,0.56226 0.44243,0.73375 l 8.65381,6.09463 c 0.17818,0.12141 0.38958,0.18667 0.600225,0.18667 0.07625,0 0.150245,-0.008 0.23103,-0.0251 l 26.10035,-5.83664 c 0.08984,-0.0205 0.178935,-0.0524 0.25972,-0.0941 0.24311,-0.12975 0.434125,-0.3536 0.51491,-0.62752 l 4.699875,-15.55376 c 1.26085,-0.326282 4.489985,-1.084317 7.32803,-1.084317 2.830495,0 6.06265,0.758035 7.324255,1.084317 l 4.699875,15.55376 c 0.121555,0.40368 0.47112,0.69202 0.88788,0.74134 l 26.100355,2.97978 c 0.25292,0.0281 0.51113,-0.0379 0.71876,-0.18362 l 8.65909,-6.089326 c 0.23405,-0.166934 0.3926,-0.429477 0.43261,-0.717819 l 2.31181,-16.254125 c 1.73726,0.336904 3.18912,0.641939 4.32842,0.889306 z"
         id="path6727"
         fill="#656c67" />
      <path
         d="m 140.242,70.658136 -2.24688,8.566784 c -4.59493,-1.018302 -14.68927,-3.016206 -28.42876,-4.360789 4.48922,-1.923543 9.06,-4.336508 13.2359,-7.352714 8.17589,1.160955 14.1789,2.404618 17.43974,3.146719 z"
         id="path6729"
         fill="#656c67" />
      <g
         id="g6731"
         transform="translate(31.71,75.879397)"
         fill="#e5caa3">
        <path
           d="m 16.489955,21.580859 c 1.779535,-0.966703 3.790855,-0.823291 6.93845,-0.818738 0.337485,0.0083 0.68554,0.0038 1.04945,-0.0038 0.30955,-0.0038 0.62061,-0.0083 0.94979,-0.01669 3.24348,-0.03187 5.941095,0.277719 5.89353,-4.841864 -0.04908,-5.118824 -2.31181,-9.255769 -5.55227,-9.2231409 -3.244235,0.028075 -6.38277,4.2219299 -6.188735,9.3377189 0.05285,1.332442 0.24764,2.293834 0.56021,2.987372 -2.827475,0.711748 -3.606635,2.469115 -3.650425,2.57914 z M 55.49099,0.52508543 C 54.233915,1.5486985 52.908135,2.5055377 51.527995,3.3417286 L 46.92476,6.1340905 c -2.88712,0.3535979 -5.392965,1.071417 -5.534905,1.1131507 -0.08456,0.023523 -0.165345,0.059945 -0.239335,0.1062312 -0.22348,0.1297537 -0.393355,0.3452512 -0.474895,0.6024824 L 35.98783,23.480879 10.933155,29.080779 3.041895,23.525648 0.74594,4.8335176 C 5.22762,4.0064322 11.22081,3.0488342 18.42049,2.2384422 17.64888,3.1679648 16.89992,4.1414975 16.189465,5.163593 l -4.286135,6.183412 6.24083,-4.1817135 c 0.09286,-0.065256 4.067185,-2.6929598 10.56849,-5.889 6.47941,-0.48866336 13.630015,-0.80358254 21.28194,-0.80358254 1.865605,-7.3911e-4 3.695725,0.0205071 5.4964,0.0523765 z"
           id="path6733" />
        <path
           d="m 82.925425,19.482035 c -0.03171,-0.121407 -0.713475,-2.180015 -3.73121,-1.818829 0.348055,-0.76107 0.50283,-1.787719 0.393355,-3.194523 -0.39864,-5.1074418 -3.354465,-9.1662307 -6.594925,-9.0531704 -3.24046,0.1153366 -5.31671,4.3486482 -5.137775,9.4682314 0.17818,5.11503 2.8992,5.079367 6.13966,4.964789 4.35635,-0.08119 6.748945,-1.426533 8.930895,-0.366498 z M 98.916325,4.7728141 96.657365,20.664995 88.70042,26.264136 63.678965,23.406518 59.0108,7.955196 C 58.9051,7.6129799 58.63783,7.3489196 58.297325,7.2464824 58.14255,7.2009548 55.044785,6.3131658 51.75978,6.0271005 l 0.600225,-0.040216 C 52.87869,5.9497035 61.509095,4.8858745 71.81409,1.31499 83.225915,2.1959499 92.54488,3.6065478 98.916325,4.7728141 Z"
           id="path6735" />
      </g>
      <g
         id="g6737"
         transform="translate(31.71,75.879397)"
         fill="#c7b39a">
        <path
           d="m 16.489955,21.580859 c 1.779535,-0.966703 3.790855,-0.823291 6.93845,-0.818738 0.337485,0.0083 0.68554,0.0038 1.04945,-0.0038 0.30955,-0.0038 0.62061,-0.0083 0.94979,-0.01669 3.24348,-0.03187 5.941095,0.277719 5.89353,-4.841864 -0.04908,-5.118824 -2.31181,-9.255769 -5.55227,-9.2231409 -3.244235,0.028075 -6.38277,4.2219299 -6.188735,9.3377189 0.05285,1.332442 0.24764,2.293834 0.56021,2.987372 -2.827475,0.711748 -3.606635,2.469115 -3.650425,2.57914 z M 55.49099,0.52508543 C 54.233915,1.5486985 52.908135,2.5055377 51.527995,3.3417286 L 46.92476,6.1340905 c -2.88712,0.3535979 -5.392965,1.071417 -5.534905,1.1131507 -0.08456,0.023523 -0.165345,0.059945 -0.239335,0.1062312 -0.22348,0.1297537 -0.393355,0.3452512 -0.474895,0.6024824 L 35.98783,23.480879 10.933155,29.080779 3.041895,23.525648 0.74594,4.8335176 C 5.22762,4.0064322 11.22081,3.0488342 18.42049,2.2384422 17.64888,3.1679648 16.89992,4.1414975 16.189465,5.163593 l -4.286135,6.183412 6.24083,-4.1817135 c 0.09286,-0.065256 4.067185,-2.6929598 10.56849,-5.889 6.47941,-0.48866336 13.630015,-0.80358254 21.28194,-0.80358254 1.865605,-7.3911e-4 3.695725,0.0205071 5.4964,0.0523765 z"
           id="path6739" />
        <path
           d="m 82.925425,19.482035 c -0.03171,-0.121407 -0.713475,-2.180015 -3.73121,-1.818829 0.348055,-0.76107 0.50283,-1.787719 0.393355,-3.194523 -0.39864,-5.1074418 -3.354465,-9.1662307 -6.594925,-9.0531704 -3.24046,0.1153366 -5.31671,4.3486482 -5.137775,9.4682314 0.17818,5.11503 2.8992,5.079367 6.13966,4.964789 4.35635,-0.08119 6.748945,-1.426533 8.930895,-0.366498 z M 98.916325,4.7728141 96.657365,20.664995 88.70042,26.264136 63.678965,23.406518 59.0108,7.955196 C 58.9051,7.6129799 58.63783,7.3489196 58.297325,7.2464824 58.14255,7.2009548 55.044785,6.3131658 51.75978,6.0271005 l 0.600225,-0.040216 C 52.87869,5.9497035 61.509095,4.8858745 71.81409,1.31499 83.225915,2.1959499 92.54488,3.6065478 98.916325,4.7728141 Z"
           id="path6741" />
      </g>
      <path
         d="m 141.54815,87.642221 c 0.38354,0.317935 0.68781,1.141226 0.34428,4.976171 -0.42204,4.695417 -2.3858,12.936678 -3.6021,14.265328 -1.34239,0.26102 -4.15628,-0.0486 -5.87239,-0.45148 0.29671,-1.18296 0.38127,-1.74978 0.62061,-2.9593 l 3.00112,-2.11021 c 0.23934,-0.16693 0.39713,-0.42947 0.4379,-0.71402 l 2.09739,-14.770685 c 1.27293,0.69202 2.58286,1.44095 2.97319,1.764196 z"
         id="path6743"
         fill="#e6ccad" />
      <path
         d="m 30.907435,106.92014 c 0.150245,0.53419 0.30804,1.06762 0.47112,1.59347 -1.614945,0.47652 -4.903725,0.93331 -6.391075,0.67229 -1.232915,-1.24822 -3.532645,-9.838523 -4.035475,-14.400393 -0.409965,-3.696085 -0.12231,-4.495095 0.251415,-4.8062 0.434125,-0.366498 2.05964,-1.296021 3.467715,-2.054056 l 1.901845,15.516579 c 0.03624,0.29821 0.194035,0.56227 0.44243,0.73375 z"
         id="path6745"
         fill="#e6ccad" />
      <path
         d="m 91.616985,107.13716 -0.114005,0.99022 c 0,0 -3.458655,3.22336 -9.02678,3.94497 -5.568125,0.72086 -9.944105,-2.718 -9.944105,-2.718 0.18271,0.59793 0.44243,1.94783 1.70328,3.10043 -1.483575,-0.17831 -3.085685,-0.2982 -4.766315,-0.2982 -0.60702,0 -1.22008,0.0174 -1.812755,0.0463 -3.426945,0.17984 -8.24762,5.38744 -11.63757,10.63374 -1.663265,0.52888 -6.862195,2.18761 -12.8803,3.97381 -5.6172,-7.82241 -8.37899,-15.81479 -8.659095,-16.64187 l 0.0038,-0.005 c -0.11325,-0.31793 -0.227255,-0.63662 -0.332955,-0.96215 l 1.444315,1.01527 v 0.004 l 3.56813,2.51085 1.1929,0.83544 c 0.17818,0.12671 0.388825,0.19197 0.59947,0.19197 0.07701,0 0.15402,-0.008 0.230275,-0.0235 L 73.9787,106.3979 c 0.367685,-0.0812 0.665155,-0.35891 0.773875,-0.72085 l 4.67647,-15.471813 c 0.807095,-0.110025 1.51604,-0.166934 2.12457,-0.166934 0.604755,0 1.31823,0.05691 2.125325,0.166934 l 4.81237,15.932393 c 0.12231,0.40368 0.47112,0.69734 0.884105,0.74135 l 2.241595,0.25799 z"
         id="path6747"
         fill="#e6ccad" />
      <path
         d="m 129.04913,106.28124 1.05851,-0.74666 c -0.17516,0.73831 -0.36542,1.47206 -0.56399,2.19747 -1.47149,4.74094 -3.20874,8.93404 -5.13777,12.63847 -0.42658,0.0296 -0.87655,0.0463 -1.359,0.0463 -1.48886,0 -3.00943,-0.12672 -4.69232,-0.28151 -2.92035,-0.26937 -7.55529,-0.80281 -9.01924,-0.97354 -1.26084,-1.01071 -5.57567,-4.45639 -9.1657,-7.2958 -0.14118,-0.11458 -0.262735,-0.22081 -0.38127,-0.31869 -0.631935,-0.53723 -1.350695,-1.14806 -2.806335,-1.14806 -1.322005,0 -3.25254,0.48411 -7.919195,1.90306 2.42506,-1.82187 2.440915,-4.17337 2.440915,-4.17337 l 0.114005,-0.99023 30.76474,3.51246 c 0.25066,0.0288 0.51038,-0.0364 0.72102,-0.18287 l 3.09097,-2.17622 2.85466,-2.0108 z"
         id="path6749"
         fill="#e6ccad" />
      <path
         d="m 106.40744,41.230588 c 0.0936,2.750628 0.0249,7.735146 -1.24953,12.402487 -0.0513,0.179835 -0.0438,0.363463 0,0.534191 -1.62174,-0.171487 -3.24424,-0.317934 -4.86673,-0.448447 1.82106,-3.834945 2.21819,-7.918774 2.30426,-9.357447 1.39826,-0.999332 2.79048,-2.197468 3.812,-3.130784 z"
         id="path6751"
         fill="#ebd599" />
      <path
         d="m 59.98928,44.360613 c 0.08456,1.438673 0.48169,5.514156 2.29973,9.346065 -1.622495,0.129754 -3.244235,0.280754 -4.862955,0.452242 0.04379,-0.167694 0.04908,-0.346769 0,-0.526603 -1.27293,-4.658237 -1.33786,-9.647307 -1.24877,-12.402488 1.021515,0.934075 2.40845,2.132211 3.811995,3.130784 z"
         id="path6753"
         fill="#ebd599" />
      <path
         d="m 114.63542,95.361432 c -2.18195,-1.059276 -4.57454,0.286065 -8.93013,0.367256 -3.24046,0.114578 -5.961485,0.150242 -6.139665,-4.964789 -0.178935,-5.119582 1.897315,-9.352894 5.137775,-9.468231 3.24046,-0.113819 6.19629,3.945729 6.59493,9.053171 0.10947,1.406804 -0.0453,2.433452 -0.39336,3.194523 3.01698,-0.361945 3.69874,1.695904 3.73045,1.81807 z m -10.18344,-7.495367 c 0.9128,-0.02049 1.64213,-0.778522 1.62628,-1.695904 -0.0159,-0.921176 -0.7701,-1.65493 -1.68743,-1.633684 -0.91581,0.01518 -1.64212,0.77397 -1.62476,1.695146 0.0159,0.916623 0.7701,1.651136 1.68591,1.634442 z"
         id="path6755"
         fill="#2d3136" />
      <circle
         id="ellipse6757"
         fill="#edf6fa"
         transform="rotate(-1.048605,104.42078,86.194716)"
         cx="104.42078"
         cy="86.194717"
         r="1" />
      <path
         d="m 63.03042,91.778407 c 0.04756,5.119583 -2.649295,4.809995 -5.89353,4.841864 -0.328425,0.0083 -0.64024,0.01214 -0.94979,0.01669 -0.36391,0.0083 -0.71272,0.01214 -1.04945,0.0038 -3.14684,-0.0038 -5.158915,-0.147206 -6.93845,0.818738 0.04379,-0.110025 0.82295,-1.867391 3.650425,-2.579899 -0.31257,-0.693538 -0.508115,-1.65493 -0.56021,-2.987372 -0.194035,-5.11503 2.9445,-9.309643 6.188735,-9.337719 3.24046,-0.03187 5.503195,4.105835 5.55227,9.2239 z m -5.00867,-2.677784 c 0.912795,-0.02352 1.634575,-0.791422 1.610415,-1.708045 -0.02492,-0.921176 -0.785955,-1.646583 -1.69875,-1.621543 -0.917325,0.02352 -1.63986,0.789905 -1.614945,1.707287 0.02416,0.921934 0.78671,1.647341 1.70328,1.622301 z"
         id="path6759"
         fill="#2d3136" />
      <circle
         id="ellipse6761"
         fill="#edf6fa"
         transform="rotate(-1.472619,57.97847,87.438279)"
         cx="57.97847"
         cy="87.438278"
         r="1" />
      <g
         id="g6763"
         opacity="0.8"
         transform="translate(36.24,39.457286)"
         fill="#ebd599">
        <path
           d="m 2.031705,17.569874 c 0,0 0.503585,-6.595437 1.53265,-9.1229795 0.53001,-1.3028493 3.77198,-2.1322111 6.24838,-2.7248292 2.47489,-0.5918593 6.42354,-1.7770954 7.19062,1.7179096 0.766325,3.4950051 2.003015,6.0422761 2.82823,7.1675681 L 18.771565,0.21322111 1.737255,4.3592714 0.616835,17.096387 1.1476,18.103306 2.031705,17.569874"
           id="path6765" />
        <path
           d="m 88.225525,17.569874 c 0,0 -0.50283,-6.595437 -1.531895,-9.1229795 C 86.162865,7.1440452 82.920895,6.3146834 80.446005,5.7220653 77.969605,5.130206 74.020955,3.9449699 73.253875,7.4399749 72.48906,10.93498 71.250105,13.482251 70.424135,14.607543 L 71.48642,0.21322111 88.52073,4.3592714 89.640395,17.096387 89.10963,18.103306 88.225525,17.569874"
           id="path6767" />
      </g>
      <path
         d="m 100.38858,13.945116 c 0,0 -0.451495,34.517537 -8.474125,34.517537 -8.02263,0 -9.62625,0 -9.62625,0 H 80.68383 c 0,0 -1.60513,0 -9.62776,0 -8.02263,0 -8.67042,-34.502361 -8.67042,-34.502361 l -3.9411,11.714261 0.06417,16.073532 2.798785,2.236166 1.272175,6.90199 1.779535,4.02692 34.33891,0.06374 1.589285,-2.876588 1.33559,-4.856282 0.19177,-3.067804 3.79237,-10.881864 z"
         id="path6769"
         fill="#ebd599"
         opacity="0.75" />
      <path
         d="m 125.6539,46.130121 c 0,0 1.65118,11.906995 6.02036,14.054381 4.36994,2.146629 0,0 0,0 L 125.5565,58.33001 Z"
         id="path6771"
         fill="#ebd599"
         opacity="0.75" />
      <path
         d="m 36.92554,46.130121 c 0,0 -1.651185,11.906995 -6.021125,14.054381 -4.36994,2.146629 0,0 0,0 l 6.11852,-1.854492 z"
         id="path6773"
         fill="#ebd599"
         opacity="0.75" />
      <path
         d="m 126.83019,58.275377 c 2.08002,0.684432 4.17212,1.409839 6.06717,2.52299 -1.01396,-0.403679 -2.06039,-0.692779 -3.11513,-0.953804 -1.0502,-0.269372 -2.10871,-0.49701 -3.17175,-0.701126 -2.1291,-0.402919 -4.26575,-0.745135 -6.41599,-1.006919 -2.14495,-0.280754 -4.29368,-0.517498 -6.45223,-0.701126 -2.15779,-0.182869 -4.31029,-0.366498 -6.47262,-0.493216 -8.641725,-0.534191 -17.307615,-0.667739 -25.979545,-0.676844 -8.669665,0.0046 -17.33631,0.167693 -25.978795,0.680638 -2.16081,0.12596 -4.314825,0.310347 -6.47186,0.493975 -2.157035,0.182869 -4.31105,0.415819 -6.45223,0.700367 -2.149485,0.261784 -4.28689,0.604 -6.41599,1.006919 -1.062285,0.200322 -2.12155,0.432513 -3.17553,0.697332 -1.050205,0.261025 -2.101165,0.550125 -3.11513,0.953804 1.894295,-1.112392 3.9864,-1.841593 6.070955,-2.527543 0.17516,-0.05691 0.352585,-0.105472 0.530765,-0.162382 -0.01132,-0.04477 -0.02416,-0.08574 -0.03247,-0.134306 -0.03624,-0.240538 -0.807095,-5.963362 0.535295,-14.147714 0.06493,-0.391538 0.34428,-0.709472 0.72631,-0.815703 l 2.202335,-0.630558 c 0.47867,-17.167714 7.51376,-25.24204 7.733465,-25.490925 -6.28613,10.165563 -6.22875,22.22204 -6.12003,25.029578 l 13.68664,-3.909307 c 0.01208,-0.0038 0.01963,-0.0038 0.03171,-0.0076 0.05738,-0.01214 0.114005,-0.02049 0.17063,-0.02428 0.01586,0 0.037,-0.0046 0.05663,-0.0046 0.06946,-0.0038 0.147225,0.0046 0.224235,0.02049 0.01132,0 0.0234,0.0083 0.04001,0.01214 0.05663,0.01214 0.109475,0.03187 0.16912,0.05691 0.02492,0.01214 0.04077,0.02504 0.06493,0.03718 0.04379,0.02504 0.08984,0.05312 0.133635,0.08499 0.01208,0.0083 0.02567,0.01214 0.03699,0.02504 0.0083,0.0083 0.01586,0.01669 0.02416,0.02428 0.01208,0.01214 0.02793,0.02049 0.04077,0.03339 0.0091,0.01214 0.37297,0.374086 0.95281,0.917382 -0.13741,-4.532276 0.07701,-17.534211 6.23781,-28.310603 -0.12986,0.37788 -5.01773,14.74185 -3.333325,30.841181 0.54662,0.440101 1.12193,0.871855 1.682895,1.251252 0.271045,0.187422 0.4379,0.49701 0.441675,0.827085 0.0045,0.05312 0.121555,5.184839 2.37674,9.550181 0.03171,0.06526 0.05587,0.134306 0.07701,0.203357 5.608895,-0.383191 11.23289,-0.537985 16.84556,-0.541779 5.61418,0.0038 11.2344,0.166934 16.841785,0.554678 0.02039,-0.0736 0.0453,-0.146447 0.0823,-0.216256 2.254425,-4.365342 2.372205,-9.497065 2.372205,-9.550181 0.008,-0.330834 0.17441,-0.639663 0.44621,-0.827085 0.55945,-0.379397 1.12721,-0.811151 1.67912,-1.251252 1.68666,-16.099331 -3.2012,-30.463301 -3.330305,-30.841181 6.155515,10.775633 6.375215,23.777568 6.237805,28.310603 0.57531,-0.542537 0.94073,-0.904482 0.95206,-0.917382 0.0121,-0.01214 0.0294,-0.02049 0.04,-0.03339 0.009,-0.0076 0.0136,-0.01593 0.0249,-0.02428 0.0121,-0.01214 0.0249,-0.01669 0.037,-0.02504 0.0453,-0.03187 0.0898,-0.05994 0.13363,-0.08954 0.0212,-0.0076 0.0408,-0.02049 0.0612,-0.03263 0.0611,-0.02504 0.11702,-0.04477 0.17818,-0.0607 0.0121,0 0.0249,-0.0083 0.037,-0.0083 0.0725,-0.01593 0.151,-0.02428 0.22348,-0.02049 0.0204,0 0.037,0.0046 0.0529,0.0046 0.0566,0.0038 0.11777,0.01214 0.1744,0.02428 0.009,0.0046 0.0211,0.0046 0.0317,0.0076 l 13.6874,3.909307 c 0.11022,-2.807538 0.16685,-14.864774 -6.11852,-25.029578 0.21819,0.248885 7.25479,8.323211 7.72893,25.490925 l 2.20611,0.630558 c 0.37675,0.106231 0.66063,0.424165 0.72631,0.815703 1.34164,8.184352 0.56776,13.907176 0.53454,14.147714 -0.008,0.04932 -0.0196,0.09409 -0.0317,0.1381 0.18044,0.05312 0.35485,0.105472 0.53379,0.163141 z m -2.48924,-0.734513 c 0.1057,-0.915864 0.5957,-5.925422 -0.4462,-12.748497 l -15.4926,-4.426045 c 0.13892,2.636809 0.20007,8.355839 -1.28879,13.809291 -0.0196,0.06526 -0.0438,0.130513 -0.0763,0.195769 0.15327,0.01594 0.30805,0.02808 0.45754,0.04856 4.35559,0.501562 8.6908,1.201929 12.97769,2.147387 1.29256,0.302 2.58663,0.624487 3.86862,0.973532 z m -19.18379,-3.908547 c 1.27444,-4.666583 1.34314,-9.65186 1.24952,-12.402488 -1.02151,0.933317 -2.41373,2.131452 -3.812,3.130025 -0.0861,1.438674 -0.48319,5.522503 -2.30425,9.357447 1.62249,0.131272 3.24499,0.277719 4.86673,0.448448 -0.0438,-0.16997 -0.0513,-0.352839 0,-0.533432 z m -42.868905,0.07436 c -1.81804,-3.831909 -2.21517,-7.90815 -2.29973,-9.346065 -1.40279,-0.998573 -2.79048,-2.196709 -3.811995,-3.130025 -0.08984,2.755181 -0.02416,7.744251 1.24877,12.402487 0.04908,0.179835 0.04379,0.35891 0,0.526603 1.619475,-0.172246 3.24046,-0.322487 4.862955,-0.453 z M 55.54384,54.362275 C 55.51439,54.305365 55.49099,54.24011 55.46985,54.174853 53.978725,48.721401 54.043655,43.00313 54.17729,40.365562 l -15.48807,4.426045 c -1.0419,6.815487 -0.55568,11.824287 -0.450735,12.745462 1.285765,-0.350563 2.575305,-0.67305 3.873905,-0.974291 2.140425,-0.476523 4.298215,-0.875648 6.45978,-1.242905 2.166095,-0.362703 4.338985,-0.639663 6.51263,-0.904482 0.154775,-0.02049 0.30502,-0.03187 0.45904,-0.05312 z"
         id="path6775"
         fill="#2d3136" />
      <g
         id="g6778"
         transform="translate(64.93,13.658291)">
        <path
           d="M 32.686215,0.73830653 V 13.656774 h -9.11134 V 9.8825327 h -2.0536 V 27.320377 h 3.102295 v 9.750502 H 8.686275 v -9.750502 h 3.08946 V 9.8832915 H 9.72893 V 13.657533 H 0.62363 V 0.73830653 Z M 29.948585,10.912216 V 3.4843819 H 25.97955 18.789685 3.354465 v 7.4278341 h 3.63608 V 7.1379749 h 7.52282 V 30.072523 h -3.0955 v 4.253799 H 21.88594 v -4.253799 h -3.0955 V 7.1379749 h 7.52282 v 3.7742411 z"
           id="path6780"
           fill="#2d3136" />
        <polygon
           id="polygon6782"
           fill="#cb3349"
           points="18.789685,3.4836231 25.97955,3.4836231 29.948585,3.4836231 29.948585,10.912216 26.312505,10.912216 26.312505,7.1379749 18.789685,7.1379749 18.789685,30.072523 21.885185,30.072523 21.885185,34.326322 11.417865,34.326322 11.417865,30.072523 14.513365,30.072523 14.513365,7.1379749 6.990545,7.1379749 6.990545,10.912216 3.354465,10.912216 3.354465,3.4836231 " />
      </g>
      <path
         d="m 23.17397,70.658136 c 1.328045,-0.302759 3.12268,-0.688227 5.323505,-1.115427 -1.352205,0.926487 -2.951295,2.089718 -4.69761,3.488175 z"
         id="path6786"
         fill="#656c67" />
      <path
         d="m 71.808805,106.06422 c 0,0 0.37146,2.40158 -2.97319,3.42899 -3.34314,1.02817 -24.52391,7.37244 -26.93991,7.02871 -2.415245,-0.34222 -8.545845,-4.45716 -8.545845,-4.45716 l -1.486595,-5.31459 9.07208,5.68489 z"
         id="path6788"
         fill="#c7b39a" />
      <path
         d="m 90.78271,105.59908 c 0,0 -0.26727,2.41448 3.118905,3.29696 3.38542,0.88096 24.820625,6.2942 27.217755,5.84575 2.39788,-0.44845 8.34501,-4.82669 8.34501,-4.82669 l 1.25556,-5.3753 -8.33897,4.99894 z"
         id="path6790"
         fill="#c7b39a" />
      <path
         d="m 21.45106,101.645 c 0,0 2.934685,5.89963 7.67533,3.85695 l 3.386175,1.24822 -0.33824,2.49643 -7.111345,0.90676 -1.918455,-1.13364 z"
         id="path6792"
         fill="#c7b39a" />
      <path
         d="m 141.601,100.02574 c 0,0 -4.79651,6.15761 -9.53716,4.1157 l -1.52434,0.98795 0.33824,2.49567 7.11134,0.90752 1.91771,-1.1344 z"
         id="path6794"
         fill="#c7b39a" />
      <path
         d="m 67.405645,146.37439 c 0,0 17.38765,8.81036 37.075035,-3.17783 l -6.322375,-0.43327 c 0,0 -13.79536,5.4876 -24.71719,2.4547 z"
         id="path6796"
         fill="#c7b39a" />
      <path
         d="m 85.03263,130.13999 1.20347,1.44096 c 0.02718,0.0349 2.700635,3.23246 5.96903,6.4892 2.173645,2.16484 4.799535,3.26054 7.80896,3.26054 1.02756,0 2.10721,-0.13279 3.19743,-0.39685 1.0117,-0.24737 2.11098,-0.51067 3.23669,-0.78156 4.06492,-0.97657 8.6689,-2.08592 10.90069,-2.71421 0.44167,-0.12595 0.93469,-0.23902 1.45337,-0.35815 2.97093,-0.68974 7.04339,-1.64127 9.20118,-5.98612 1.6225,-3.26054 3.81049,-7.49233 5.43374,-10.59352 -1.40657,0.6518 -2.88108,1.35824 -3.92827,1.91216 -1.61419,0.85212 -3.72818,1.26491 -6.46128,1.26491 -1.62476,0 -3.22084,-0.13735 -4.98678,-0.29517 -3.52963,-0.32629 -9.50243,-1.03272 -9.56358,-1.04107 l -0.45754,-0.0508 -0.36088,-0.29062 c -0.0536,-0.0395 -5.28727,-4.23027 -9.517535,-7.57352 -0.171385,-0.14114 -0.32767,-0.27165 -0.468855,-0.38926 -0.44545,-0.38167 -0.44545,-0.38167 -0.71121,-0.38167 -1.356735,0 -5.3001,1.22924 -13.93881,3.92068 l -0.530765,0.16922 -0.520195,-0.19729 c -0.05889,-0.0197 -5.726675,-2.13221 -12.518655,-2.13221 -0.55568,0 -1.10985,0.0144 -1.649675,0.0425 -0.680255,0.0349 -4.49829,1.85753 -9.380875,9.62151 l -0.316345,0.49853 -0.559455,0.18059 c -0.08078,0.0281 -8.48469,2.75442 -17.39671,5.31535 l -0.57833,0.16542 -0.547375,-0.25572 c -0.05814,-0.0235 -3.54548,-1.64961 -6.863705,-3.18238 1.809735,2.68689 4.12381,6.03848 6.160045,8.66695 3.556805,4.6036 8.039995,8.85816 16.63567,8.85816 1.07814,0 2.223475,-0.0668 3.399765,-0.20108 8.743655,-0.99326 10.995065,-1.39391 12.20684,-1.60637 0.409965,-0.0698 0.734615,-0.12975 1.14911,-0.18059 0.06644,-0.008 7.226105,-0.93863 9.23516,-5.46787 2.07172,-4.65444 2.48999,-5.76304 2.505845,-5.80554 l 0.73084,-1.95996 c 0,0 0.0906,-0.50763 0.239335,-0.66546 0,0.004 0,0.004 0.0038,0.004 l 0.01435,0.0121 c 0.230275,0.16618 0.571535,0.68443 0.571535,0.68443 z M 30.576745,42.272412 c -1.89958,0.769417 -3.78708,1.563116 -5.6323,2.43497 -1.848995,0.84909 -3.66628,1.760402 -5.402025,2.777186 -1.601355,0.927246 -3.138535,1.944789 -4.49527,3.092844 -0.05814,0.345251 -0.112495,0.722372 -0.159305,1.079764 -0.05889,0.506115 -0.11778,1.013749 -0.15704,1.524417 -0.08985,1.021337 -0.12533,2.05102 -0.1359,3.079945 -0.01963,2.058608 0.1208,4.117216 0.37901,6.155336 0.28086,2.042674 0.65232,4.073965 1.20347,6.03393 0.274065,0.982638 0.579085,1.952377 0.938465,2.886452 0.175915,0.472729 0.37146,0.931799 0.57531,1.379488 0.10117,0.223085 0.20687,0.443894 0.311815,0.655598 l 0.12986,0.247367 c 0.151755,0.07891 0.308795,0.15707 0.456775,0.227638 l 0.91053,0.435547 c 0.508115,0.235985 1.208,0.569855 1.78633,0.829362 0.03473,-0.02808 0.06644,-0.05919 0.09362,-0.0865 L 19.695685,68.56766 c 0.355605,-0.09788 3.561335,-0.93104 9.08416,-1.987281 -0.44545,-0.08271 -0.899205,-0.180593 -1.340125,-0.287583 -1.25481,-0.313382 -2.498295,-0.698849 -3.69799,-1.185995 -0.594185,-0.254955 -1.184595,-0.530397 -1.743295,-0.84909 C 21.43898,63.935221 20.88783,63.571 20.46201,63.083854 c 6.066425,1.991076 18.600935,1.087352 29.74549,-0.06677 10.193255,-1.057 20.40614,-1.739914 30.67414,-1.764196 10.268,0.02352 20.48919,0.706438 30.67565,1.764196 11.15135,1.154885 23.68737,2.058608 29.75153,0.06677 -0.42582,0.487146 -0.97622,0.851367 -1.53567,1.173855 -0.55795,0.318693 -1.14911,0.593376 -1.7433,0.84909 -1.20422,0.487146 -2.44317,0.871854 -3.70176,1.185995 -0.18422,0.04249 -0.37146,0.0865 -0.55946,0.12596 6.0551,1.127568 9.5802,2.046467 9.95543,2.148904 l -1.61419,6.151543 c 0.32465,-0.145688 0.65232,-0.286065 0.97244,-0.435548 l 0.91129,-0.435547 c 0.14798,-0.07133 0.30502,-0.148724 0.45753,-0.227639 l 0.12533,-0.247366 c 0.10872,-0.211704 0.21442,-0.432513 0.31634,-0.655599 0.20385,-0.448447 0.39864,-0.907517 0.57909,-1.379487 0.3556,-0.934075 0.66364,-1.904573 0.93318,-2.886452 0.5519,-1.959965 0.92714,-3.991256 1.20422,-6.03393 0.26123,-2.03812 0.39864,-4.097487 0.37901,-6.155337 -0.008,-1.028924 -0.0468,-2.058608 -0.13288,-3.079944 -0.043,-0.510669 -0.0982,-1.017543 -0.16081,-1.524417 -0.043,-0.357392 -0.10193,-0.734513 -0.16082,-1.079764 -1.35673,-1.148055 -2.8924,-2.164839 -4.49527,-3.092844 -1.73574,-1.016784 -3.55152,-1.928096 -5.40504,-2.777186 -1.84069,-0.871855 -3.73197,-1.665553 -5.6323,-2.43497 -0.95055,-0.385468 -1.90864,-0.762588 -2.86976,-1.11998 -0.95658,-0.372568 -1.92675,-0.725407 -2.89542,-1.079764 2.03548,0.337663 4.05359,0.804322 6.04982,1.319543 1.30161,0.338422 2.60021,0.719337 3.88145,1.123774 -9.14305,-24.0219 -31.00785,-39.6636787 -54.877175,-39.6636787 -23.87461,0 -45.73488,15.6417787 -54.87642,39.6636787 1.28501,-0.404437 2.57908,-0.785352 3.876925,-1.123774 2.001505,-0.514463 4.01811,-0.98188 6.0551,-1.319543 -0.97395,0.353598 -1.93884,0.706437 -2.90071,1.079764 -0.95734,0.356633 -1.913925,0.733754 -2.868245,1.119221 z m 120.369645,13.89807 c 0.11023,2.211126 0.0513,4.426046 -0.19479,6.626548 -0.23027,2.19595 -0.64477,4.372171 -1.22234,6.529422 -0.302,1.072935 -0.6493,2.13297 -1.06002,3.185417 -0.20763,0.525845 -0.4296,1.049412 -0.67195,1.571463 -0.12156,0.258748 -0.24991,0.514462 -0.39487,0.777764 l -0.21442,0.388502 c -0.0785,0.141136 -0.14118,0.247367 -0.26274,0.435548 l -0.22197,0.346769 -0.34805,0.179834 c -0.37146,0.192733 -0.67573,0.337663 -1.01321,0.495492 l -0.97999,0.443895 c -0.65761,0.282271 -1.31748,0.549366 -1.9781,0.808115 -0.4613,0.181352 -0.86825,0.346769 -1.25481,0.511427 l -1.09022,4.163503 c -0.0272,-0.0068 -0.35561,-0.09105 -0.96867,-0.23902 l -0.0589,0.435547 c 1.20347,0.632076 3.56813,1.913679 4.37372,2.582176 1.62174,1.34686 1.73574,3.480588 1.37636,7.467292 -0.18422,2.046467 -0.85994,6.029377 -1.79765,9.687524 -1.61872,6.29647 -2.47867,7.03629 -3.58851,7.3216 -0.56324,0.14569 -1.42998,0.29062 -2.27104,0.29062 -1.71084,0 -4.04152,0.0478 -5.6089,-0.33311 -0.40242,1.4326 -1.55153,5.1689 -3.82634,9.83549 0.11401,-0.0554 0.2265,-0.10244 0.32843,-0.15707 2.80633,-1.48117 8.20005,-3.84254 8.4273,-3.94497 l 4.26047,-1.86057 -2.18195,4.12405 c -0.0506,0.0895 -4.72932,8.93328 -7.59455,14.7077 -2.84559,5.71979 -8.18042,6.96497 -11.37407,7.70252 -0.48093,0.11458 -0.93695,0.22081 -1.30842,0.32249 -2.29142,0.64801 -6.93089,1.75964 -11.02224,2.74911 -0.0483,0.0121 -0.0981,0.025 -0.14874,0.0319 -2.51792,1.56387 -5.26536,2.95853 -8.27102,4.10583 -10.99884,4.18703 -22.591865,3.9518 -33.10222,0.0698 -1.707055,0.22081 -3.95167,0.49094 -6.940715,0.8324 -1.2986,0.14569 -2.56096,0.22081 -3.763675,0.22081 -10.01432,0 -15.32197,-5.11124 -19.195875,-10.11549 -4.147215,-5.3586 -9.22006,-13.3138 -9.435235,-13.64691 l -2.94148,-4.61119 4.971675,2.24679 c 2.37976,1.07673 9.45562,4.36838 11.479775,5.31156 0.163835,-0.0463 0.32465,-0.0941 0.48471,-0.14114 -3.365035,-4.82365 -6.12456,-10.32339 -8.074725,-16.41574 -1.657225,0.50232 -4.20988,0.89158 -6.19553,0.89158 -0.725555,0 -1.37561,-0.0546 -1.87542,-0.17301 -1.110605,-0.25495 -2.37674,-1.33092 -4.100405,-7.43238 -1.000375,-3.54205 -1.74707,-7.408868 -1.965265,-9.399184 -0.43035,-3.885784 -0.35183,-5.967156 1.25481,-7.311739 C 20.35328,86.976779 23.62092,85.25204 24.2974,84.899201 L 24.15245,83.700286 C 13.7712,89.831342 7.549245,95.249131 7.423915,95.359915 L 0,101.90755 5.288775,93.525151 c 4.18572,-6.643241 9.02074,-12.013226 13.4692,-16.150171 -0.18422,-0.07436 -0.355605,-0.148724 -0.53605,-0.223086 L 17.24118,76.708 c -0.335975,-0.157829 -0.640995,-0.302759 -1.0117,-0.495493 L 15.881425,76.032673 15.6587,75.685905 c -0.12533,-0.18894 -0.17969,-0.294413 -0.261985,-0.435548 l -0.21895,-0.388503 c -0.136655,-0.263301 -0.27029,-0.519015 -0.39109,-0.777763 -0.246885,-0.52281 -0.468855,-1.045619 -0.67195,-1.571463 -0.41072,-1.052447 -0.758775,-2.112482 -1.06002,-3.185417 -0.582105,-2.157251 -0.992825,-4.332714 -1.2231,-6.529422 -0.242355,-2.200503 -0.30502,-4.415422 -0.195545,-6.626548 0.05889,-1.104045 0.16459,-2.207332 0.316345,-3.303789 0.07852,-0.550125 0.160815,-1.100251 0.27029,-1.646583 0.11325,-0.556954 0.22348,-1.07597 0.39109,-1.685281 l 0.117025,-0.42796 0.30502,-0.240537 c 1.73197,-1.367347 3.59984,-2.400066 5.49942,-3.315171 1.563605,-0.738307 3.158165,-1.39087 4.764805,-1.985005 C 27.78702,31.052126 35.502365,19.954764 45.64126,12.220377 56.124435,4.2264824 68.45132,0 81.291605,0 94.13189,0 106.45878,4.2264824 116.94119,12.221136 c 10.13965,7.734387 17.855,18.832507 22.33894,31.343502 1.61042,0.597171 3.2012,1.245181 4.76858,1.98804 1.89883,0.915106 3.76745,1.947825 5.49867,3.315171 l 0.30502,0.240538 0.11778,0.42796 c 0.17139,0.609311 0.28086,1.128326 0.39033,1.685281 0.11023,0.546332 0.1963,1.096457 0.26954,1.646583 0.15326,1.09494 0.26274,2.198226 0.31634,3.302271 z m -9.05622,36.445634 c 0.34428,-3.833428 0.0438,-4.658237 -0.34353,-4.973136 -0.38731,-0.326282 -1.69648,-1.071417 -2.97092,-1.767231 l -2.09815,14.769161 c -0.0393,0.28683 -0.20007,0.54709 -0.4379,0.71479 l -3.00263,2.1102 c -0.23783,1.20876 -0.3239,1.77938 -0.61684,2.96158 1.71612,0.40064 4.52925,0.71175 5.87013,0.45148 1.21706,-1.32637 3.18157,-9.568392 3.59984,-14.266844 z m -3.89656,-13.391196 2.24764,-8.566784 c -3.26009,-0.742101 -9.26385,-1.984247 -17.4405,-3.147478 -4.17515,3.016965 -8.74441,5.429171 -13.23515,7.353473 13.74025,1.343824 23.83535,3.343246 28.42801,4.360789 z m -3.5334,20.667271 2.55568,-17.965206 c -1.13703,-0.247367 -2.59041,-0.553161 -4.32691,-0.88703 l -2.30954,16.254884 c -0.043,0.286824 -0.20008,0.550126 -0.43413,0.715543 l -8.66135,6.087808 c -0.20385,0.14568 -0.46508,0.21246 -0.71499,0.18438 l -26.10186,-2.9813 c -0.41827,-0.0478 -0.766325,-0.33842 -0.88788,-0.7383 L 88.877845,85.007688 c -1.25934,-0.32704 -4.491495,-1.085075 -7.32048,-1.085075 -2.84182,0 -6.070955,0.758035 -7.32954,1.085075 l -4.70214,15.555282 c -0.0823,0.27013 -0.27029,0.49549 -0.51491,0.62372 -0.07852,0.0433 -0.168365,0.0744 -0.258965,0.0949 l -26.10186,5.83665 c -0.08229,0.0167 -0.15251,0.025 -0.23103,0.025 -0.210645,0 -0.422045,-0.063 -0.59796,-0.1897 l -8.657585,-6.09236 c -0.242355,-0.16921 -0.40317,-0.43631 -0.441675,-0.73451 L 30.387995,81.102176 c -0.96942,0.18894 -1.844465,0.369533 -2.626645,0.533432 -0.55417,0.307312 -1.1023,0.613864 -1.64137,0.920417 l 2.477155,20.159635 12.58283,8.85892 31.745485,-7.09776 4.686285,-15.516574 c 0.11778,-0.39002 0.441675,-0.676844 0.83654,-0.739824 1.18837,-0.191975 2.22725,-0.289859 3.10758,-0.289859 0.870515,0 1.91468,0.09788 3.099275,0.289859 0.39864,0.06298 0.722535,0.349804 0.83654,0.739824 l 4.80633,15.901284 31.92291,3.64828 z m -6.09285,-3.34704 2.25896,-15.895216 C 124.25488,79.484427 114.93743,78.074588 103.52409,77.194387 93.220605,80.76603 84.590955,81.8291 84.07076,81.864764 l -0.601735,0.04325 c 3.286515,0.283789 6.38277,1.171578 6.5383,1.217864 0.34126,0.102438 0.60702,0.36498 0.71272,0.707955 l 4.67043,15.453598 25.019195,2.856099 z m 1.73877,8.987909 -1.06002,0.7459 -2.85314,2.01156 -3.09173,2.17622 c -0.21064,0.14569 -0.46885,0.21247 -0.72027,0.18439 l -30.76323,-3.51549 -2.23933,-0.25571 c -0.414495,-0.0478 -0.76255,-0.33843 -0.884105,-0.74135 L 83.67967,90.205427 c -0.80483,-0.110025 -1.52057,-0.166176 -2.12155,-0.166176 -0.610795,0 -1.322005,0.05539 -2.126835,0.166176 l -4.67496,15.473323 c -0.109475,0.36119 -0.40619,0.63663 -0.773875,0.71782 l -32.793425,7.33906 c -0.07776,0.0152 -0.15553,0.0228 -0.230275,0.0228 -0.210645,0 -0.422045,-0.063 -0.60249,-0.19197 l -1.19139,-0.83316 -3.56813,-2.50933 v -0.008 l -1.44205,-1.01299 c 0.101925,0.32628 0.218195,0.64498 0.332955,0.96215 l -0.0045,0.005 c 0.27784,0.8286 3.04114,8.8187 8.657585,16.63959 6.015085,-1.78317 11.21779,-3.44113 12.878035,-3.97153 3.38844,-5.24858 8.212135,-10.4539 11.64059,-10.63374 0.589655,-0.0281 1.204225,-0.0463 1.81351,-0.0463 1.676855,0 3.27972,0.1214 4.76405,0.2982 -1.261605,-1.15109 -1.519815,-2.5025 -1.70328,-3.09967 0,0 4.373715,3.43734 9.94335,2.71952 5.57039,-0.72313 9.029045,-3.94877 9.029045,-3.94877 0,0 -0.01586,2.35378 -2.44318,4.17565 4.66741,-1.41819 6.597945,-1.90533 7.919195,-1.90533 1.457905,0 2.176665,0.6131 2.806335,1.1526 0.121555,0.0979 0.24311,0.20336 0.38279,0.31794 3.58851,2.8394 7.90334,6.28509 9.16645,7.29504 1.46168,0.17225 6.09662,0.70265 9.01697,0.97354 1.68365,0.15251 3.20497,0.28227 4.69383,0.28227 0.48094,0 0.93091,-0.0197 1.35673,-0.0478 1.9313,-3.70291 3.66704,-7.8998 5.14004,-12.63619 0.19706,-0.72845 0.38958,-1.46296 0.56097,-2.20127 z M 118.75546,66.384608 c -0.008,-0.0046 -0.0151,-0.0091 -0.0234,-0.0091 -2.47036,-0.184386 -4.93997,-0.353597 -7.41864,-0.493974 -3.43902,-0.197287 -6.87956,-0.361945 -10.31858,-0.506875 -0.20008,0.298965 -0.60551,0.887789 -1.18837,1.688317 -1.871645,2.545754 -5.58549,7.21613 -10.34652,11.176276 6.73913,-1.21407 18.4288,-4.218894 28.54127,-11.309824 0.25368,-0.180593 0.50434,-0.368774 0.75424,-0.544814 z m -22.55638,0.702643 c 0.284635,-0.357392 0.550395,-0.702643 0.78822,-1.016784 -2.477155,0.251161 -4.91656,0.613106 -7.30085,1.068382 -8.16457,1.535799 -15.704755,4.089141 -21.97805,6.705463 4.444685,-0.216257 9.11889,-0.345252 13.9977,-0.345252 2.95054,0 5.81954,0.05084 8.61002,0.133548 2.400145,-2.318874 4.425055,-4.690864 5.88296,-6.545357 z m 2.708185,77.461479 c -3.399765,-0.25192 -6.49149,-1.67314 -8.986765,-4.15591 -0.129105,-0.13279 -0.25368,-0.26027 -0.37901,-0.3885 -1.20649,0.24357 -2.430345,0.42416 -3.685155,0.53419 -0.52699,0.0197 -1.027555,0.066 -1.578705,0.066 l -0.817665,0.008 -0.311815,-0.008 c -3.31898,4.96176 -10.690045,5.92846 -11.026775,5.97171 -0.304265,0.0349 -0.55417,0.0782 -0.899205,0.14114 4.10871,1.13136 8.30198,1.6223 12.43787,1.34306 4.14646,-0.27848 9.533385,-1.1822 15.247225,-3.5117 z m -13.137,-5.66136 c 0.79728,-0.063 1.598335,-0.16542 2.40392,-0.28682 -1.044165,-1.09115 -1.96602,-2.10566 -2.69384,-2.92667 -0.355605,0.82101 -0.82748,1.90078 -1.4496,3.29241 h 0.183465 c 0.49679,7.6e-4 1.04039,-0.0539 1.556055,-0.0789 z m -2.53227,-59.665486 c 1.379385,-0.836949 2.70441,-1.795306 3.962995,-2.816643 -1.802185,-0.03111 -3.630795,-0.05463 -5.49489,-0.05463 -7.653435,0 -14.80253,0.3149 -21.282695,0.80508 -6.50055,3.193764 -10.475625,5.821468 -10.56849,5.888242 l -6.24234,4.18399 4.287645,-6.183413 c 0.707435,-1.026648 1.457905,-2.00018 2.23178,-2.926668 -7.19968,0.808875 -13.195135,1.767231 -17.67455,2.596593 l 2.29369,18.690613 7.892015,5.555132 25.05392,-5.598383 4.69006,-15.52796 c 0.07852,-0.255713 0.249905,-0.471211 0.473385,-0.601723 0.07399,-0.0478 0.15251,-0.08271 0.237825,-0.106232 0.14496,-0.03946 2.65005,-0.758035 5.53868,-1.111633 l 4.60097,-2.792362 z m 2.88108,-14.256221 c -1.74405,-0.02732 -3.490365,-0.04325 -5.234415,-0.04705 h -0.0038 c -2.55945,0.0038 -5.124185,0.03111 -7.692695,0.08271 l -4.733095,2.254376 c -0.0038,0.0038 -0.03096,0.01593 -0.06644,0.03642 -0.71121,0.349045 -6.92637,3.500316 -12.773845,9.121462 5.241965,-2.769598 12.94523,-6.387528 22.010515,-9.192789 2.715735,-0.836191 5.56133,-1.607126 8.49375,-2.255136 z m -33.07957,9.973588 c 2.454505,-2.44711 4.986775,-4.466261 7.223085,-6.045311 -8.618325,2.011562 -16.551865,4.964789 -23.50164,8.178281 4.521695,-0.734512 9.99771,-1.500136 16.278555,-2.13297 z M 54.66955,67.39001 c 2.887875,-0.813427 5.867105,-1.524417 8.918815,-2.121588 -4.37749,0.160864 -8.758,0.36498 -13.131715,0.613106 -2.54133,0.141135 -5.069825,0.31414 -7.599075,0.506115 -1.26689,0.09789 -2.525475,0.199563 -3.780285,0.337664 -0.35938,0.0349 -0.71121,0.07436 -1.07059,0.121407 -3.298595,1.983487 -15.950885,9.966 -24.636405,20.403211 C 21.81044,81.354854 36.514065,72.496694 54.66955,67.39001 Z M 31.3778,108.51437 c -0.16459,-0.52585 -0.32012,-1.0608 -0.468855,-1.59499 l -3.89731,-2.74076 c -0.246885,-0.17301 -0.40317,-0.43631 -0.44243,-0.73527 l -1.89958,-15.516581 c -1.40732,0.758035 -3.032835,1.688316 -3.46696,2.054055 -0.375235,0.310347 -0.660625,1.107839 -0.25368,4.804683 0.50434,4.560352 2.80256,13.152173 4.03774,14.401153 1.48584,0.2633 4.776885,-0.19577 6.391075,-0.67229 z M 28.497475,69.542709 c -2.200825,0.427959 -3.99546,0.812668 -5.323505,1.115427 l 0.625895,2.372748 c 1.746315,-1.399216 3.345405,-2.561688 4.69761,-3.488175 z"
         id="path6798"
         fill="#2d3136" />
    </g>
  </g>
</svg>
