<?xml version="1.0" encoding="UTF-8" standalone="no"?>
<svg
   xmlns:dc="http://purl.org/dc/elements/1.1/"
   xmlns:cc="http://creativecommons.org/ns#"
   xmlns:rdf="http://www.w3.org/1999/02/22-rdf-syntax-ns#"
   xmlns:svg="http://www.w3.org/2000/svg"
   xmlns="http://www.w3.org/2000/svg"
   xmlns:sodipodi="http://sodipodi.sourceforge.net/DTD/sodipodi-0.dtd"
   xmlns:inkscape="http://www.inkscape.org/namespaces/inkscape"
   version="1.1"
   id="Layer_1"
   x="0px"
   y="0px"
   viewBox="0 0 296.79999 296.79999"
   xml:space="preserve"
   sodipodi:docname="Ansible-01.svg"
   width="296.79999"
   height="296.79999"
   inkscape:version="1.0.2 (e86c870879, 2021-01-15)"><metadata
   id="metadata19"><rdf:RDF><cc:Work
       rdf:about=""><dc:format>image/svg+xml</dc:format><dc:type
         rdf:resource="http://purl.org/dc/dcmitype/StillImage" /><dc:title></dc:title></cc:Work></rdf:RDF></metadata><defs
   id="defs17">
	
	
	
	
	
	
	
	
	
</defs><sodipodi:namedview
   pagecolor="#ffffff"
   bordercolor="#666666"
   borderopacity="1"
   objecttolerance="10"
   gridtolerance="10"
   guidetolerance="10"
   inkscape:pageopacity="0"
   inkscape:pageshadow="2"
   inkscape:window-width="1752"
   inkscape:window-height="855"
   id="namedview15"
   showgrid="false"
   fit-margin-top="0"
   fit-margin-left="0"
   fit-margin-right="0"
   fit-margin-bottom="0"
   inkscape:zoom="0.805"
   inkscape:cx="-141.0146"
   inkscape:cy="226.18875"
   inkscape:window-x="0"
   inkscape:window-y="27"
   inkscape:window-maximized="0"
   inkscape:current-layer="Layer_1" />
<style
   type="text/css"
   id="style2">
	.st0{fill:#1A1918;}
	.st1{fill:#FFFFFF;}
</style>
<g
   id="g32"
   transform="translate(-101.8,-67.5)"><path
     id="XMLID_15_"
     class="st0"
     d="m 398.6,215.9 c 0,81.9 -66.4,148.4 -148.4,148.4 -81.9,0 -148.4,-66.4 -148.4,-148.4 0,-81.9 66.4,-148.4 148.4,-148.4 82,0 148.4,66.4 148.4,148.4" /><path
     id="XMLID_18_"
     class="st1"
     d="m 252.8,158.1 38.4,94.8 -58,-45.7 z M 321,274.7 261.9,132.6 c -1.7,-4.1 -5.1,-6.3 -9.1,-6.3 -4.1,0 -7.7,2.2 -9.4,6.3 l -64.8,155.9 h 22.2 l 25.7,-64.3 76.6,61.9 c 3.1,2.5 5.3,3.6 8.2,3.6 5.8,0 10.8,-4.3 10.8,-10.6 -0.1,-1 -0.5,-2.6 -1.1,-4.4 z" /></g>
</svg>
