<?xml version="1.0" encoding="UTF-8" standalone="no"?>
<svg
   xmlns:dc="http://purl.org/dc/elements/1.1/"
   xmlns:cc="http://creativecommons.org/ns#"
   xmlns:rdf="http://www.w3.org/1999/02/22-rdf-syntax-ns#"
   xmlns:svg="http://www.w3.org/2000/svg"
   xmlns="http://www.w3.org/2000/svg"
   xmlns:xlink="http://www.w3.org/1999/xlink"
   xmlns:sodipodi="http://sodipodi.sourceforge.net/DTD/sodipodi-0.dtd"
   xmlns:inkscape="http://www.inkscape.org/namespaces/inkscape"
   viewBox="0 0 63.953999 64.000999"
   fill="#ffffff"
   fill-rule="evenodd"
   stroke="#000000"
   stroke-linecap="round"
   stroke-linejoin="round"
   version="1.1"
   id="svg7"
   sodipodi:docname="concourse-icon.svg"
   width="63.953999"
   height="64.000999"
   inkscape:version="1.0.2 (e86c870879, 2021-01-15)">
  <metadata
     id="metadata13">
    <rdf:RDF>
      <cc:Work
         rdf:about="">
        <dc:format>image/svg+xml</dc:format>
        <dc:type
           rdf:resource="http://purl.org/dc/dcmitype/StillImage" />
      </cc:Work>
    </rdf:RDF>
  </metadata>
  <defs
     id="defs11" />
  <sodipodi:namedview
     pagecolor="#ffffff"
     bordercolor="#666666"
     borderopacity="1"
     objecttolerance="10"
     gridtolerance="10"
     guidetolerance="10"
     inkscape:pageopacity="0"
     inkscape:pageshadow="2"
     inkscape:window-width="1517"
     inkscape:window-height="1002"
     id="namedview9"
     showgrid="false"
     inkscape:zoom="12.19697"
     inkscape:cx="32"
     inkscape:cy="32.5"
     inkscape:window-x="0"
     inkscape:window-y="27"
     inkscape:window-maximized="0"
     inkscape:current-layer="svg7" />
  <use
     xlink:href="#A"
     x="0.5"
     y="0.5"
     id="use2"
     width="100%"
     height="100%" />
  <symbol
     id="A"
     overflow="visible"
     transform="translate(-0.5,-0.5)">
    <path
       d="M 0,59.596 V 4.512 C 0.902,1.588 3.104,0 6.606,0 l 51.5,0.036 c 3.538,0 5.848,2.3 5.848,5.812 v 52.305 c 0,0.433 0,0.902 -0.072,1.336 -0.47,2.455 -2.094,3.826 -4.368,4.512 H 4.44 C 2.14,63.387 0.686,61.907 0,59.597 Z M 28.156,16.713 c -2.166,0.325 -4.08,1.2 -5.848,2.418 -3.538,2.455 -5.703,5.848 -6.714,10.035 -0.217,0.866 -1.047,1.336 -2.058,1.12 -0.866,-0.18 -0.47,-0.94 -0.578,-1.48 0,-0.108 0,-0.253 0.036,-0.36 0.866,-7.22 4.548,-12.5 10.973,-15.883 2.058,-1.083 4.295,-1.723 6.605,-2.058 -0.3,-0.072 -0.614,-0.072 -0.902,-0.072 -5.234,0.433 -9.746,2.418 -13.464,6.1 -3.8,3.718 -5.92,8.302 -6.425,13.6 -0.072,0.686 -0.325,1.083 -1,1.263 -0.866,0.217 -1.697,0.505 -2.563,0.794 -0.83,0.3 -1.66,0.65 -2.238,1.372 -0.686,0.866 -0.578,1.733 0.325,2.382 0.722,0.54 1.588,0.794 2.455,0.94 3.43,0.578 6.895,1.083 10.432,0.722 3.393,-0.325 6.642,-1.047 9.818,-2.274 0.794,-0.325 1.12,-0.758 0.94,-1.624 -0.108,-0.47 -0.108,-1 -0.072,-1.516 0.036,-0.686 -0.3,-1 -0.94,-1.155 -2.382,-0.578 -4.8,-0.975 -7.292,-1.083 -1.372,-0.036 -1.552,-0.217 -1.3,-1.588 0.794,-4.187 2.96,-7.472 6.534,-9.854 1.083,-0.686 2.202,-1.2 3.285,-1.805 z m 21.84,19.384 c 0.144,-0.578 0.325,-1.12 0.47,-1.697 0.072,-0.253 0.144,-0.505 0.18,-0.794 0.758,-5.703 -0.866,-10.576 -4.98,-14.62 -1.155,-1.12 -1.155,-1.227 -0.433,-2.635 0.217,-0.433 0.47,-0.578 0.902,-0.325 l 0.758,0.433 c 6.606,4.657 9.313,11.082 8.627,19.023 -0.108,1.408 -0.614,2.743 -0.83,4.15 0.217,-0.325 0.397,-0.686 0.54,-1 3.393,-8.988 0.758,-18.88 -6.858,-24.726 -1.697,-1.3 -1.95,-2.455 -1.336,-4.223 0.36,-1.047 0.47,-2.13 0.217,-3.25 -0.3,-1.227 -1.2,-1.697 -2.346,-1.2 a 4.52,4.52 0 0 0 -1.66,1.299 c -2.3,2.78 -4.476,5.667 -5.956,8.988 -1.444,3.285 -2.418,6.678 -2.852,10.215 -0.072,0.65 0.108,0.975 0.758,1.155 0.578,0.18 1.12,0.397 1.588,0.758 0.614,0.433 0.975,0.3 1.444,-0.217 1.733,-1.877 3.32,-3.862 4.584,-6.1 0.36,-0.65 0.686,-0.758 1.3,-0.3 3.032,2.166 4.837,5.126 5.667,8.735 0.433,2.13 0.47,4.223 0.217,6.317 z M 16.856,47.865 A 0.77,0.77 0 0 0 17,48.082 c 5.992,8.23 17.327,10.793 26.35,6.57 0.902,-0.433 1.516,-0.433 2.274,0.325 0.975,0.94 1.95,1.913 3.213,2.5 1.552,0.686 2.527,0.072 2.527,-1.588 0,-0.578 0,-1.12 -0.18,-1.66 -2.346,-7.04 -6.28,-12.96 -12.273,-17.4 -0.433,-0.325 -0.794,-0.397 -1.263,0 -0.433,0.397 -0.94,0.758 -1.444,1 -0.758,0.36 -0.794,0.866 -0.578,1.588 0.758,2.418 1.733,4.73 2.96,6.93 0.578,1.083 0.578,1.2 -0.578,1.66 -4.548,1.805 -8.916,1.372 -13.14,-0.975 -0.83,-0.47 -1.552,-1 -2.346,-1.552 a 12.65,12.65 0 0 0 1.913,1.95 c 4.512,3.393 9.494,4.404 14.908,2.78 1.2,-0.36 1.77,-0.072 2.455,0.83 0.47,0.614 0.36,0.866 -0.253,1.2 -6.678,3.393 -13.248,3.177 -19.745,-0.505 -1.877,-1.083 -3.393,-2.5 -4.945,-3.862 z M 37.179,32.632 c 0.036,-2.058 -1.588,-3.718 -3.6,-3.718 -1.985,-0.036 -3.718,1.66 -3.718,3.646 a 3.67,3.67 0 0 0 3.646,3.718 c 2.02,0.036 3.682,-1.588 3.682,-3.646 z"
       stroke="none"
       fill="#38c4e3"
       fill-rule="nonzero"
       id="path4" />
  </symbol>
</svg>
