<?xml version="1.0" encoding="UTF-8" standalone="no"?>
<svg
   xmlns:dc="http://purl.org/dc/elements/1.1/"
   xmlns:cc="http://creativecommons.org/ns#"
   xmlns:rdf="http://www.w3.org/1999/02/22-rdf-syntax-ns#"
   xmlns:svg="http://www.w3.org/2000/svg"
   xmlns="http://www.w3.org/2000/svg"
   xmlns:sodipodi="http://sodipodi.sourceforge.net/DTD/sodipodi-0.dtd"
   xmlns:inkscape="http://www.inkscape.org/namespaces/inkscape"
   version="1.1"
   id="Layer_1"
   x="0px"
   y="0px"
   viewBox="0 0 364 206.7"
   xml:space="preserve"
   sodipodi:docname="docker.svg"
   width="364"
   height="206.7"
   inkscape:version="1.0.2 (e86c870879, 2021-01-15)"><metadata
   id="metadata30"><rdf:RDF><cc:Work
       rdf:about=""><dc:format>image/svg+xml</dc:format><dc:type
         rdf:resource="http://purl.org/dc/dcmitype/StillImage" /><dc:title></dc:title></cc:Work></rdf:RDF></metadata><defs
   id="defs28">
	
	
	
	
	
	
	
	
	
	
	
	
	
	
	
	
	
	
	
	
</defs><sodipodi:namedview
   pagecolor="#ffffff"
   bordercolor="#666666"
   borderopacity="1"
   objecttolerance="10"
   gridtolerance="10"
   guidetolerance="10"
   inkscape:pageopacity="0"
   inkscape:pageshadow="2"
   inkscape:window-width="1517"
   inkscape:window-height="965"
   id="namedview26"
   showgrid="false"
   inkscape:zoom="1.61"
   inkscape:cx="182.5"
   inkscape:cy="153.1"
   inkscape:window-x="0"
   inkscape:window-y="27"
   inkscape:window-maximized="0"
   inkscape:current-layer="Layer_1"
   inkscape:document-rotation="0"
   fit-margin-top="0"
   fit-margin-left="0"
   fit-margin-right="0"
   fit-margin-bottom="0" />
<style
   type="text/css"
   id="style2">
	.st0{fill:#364548;}
	.st1{fill:#22A0C8;}
	.st2{fill:#37B1D9;}
	.st3{fill:#1B81A5;}
	.st4{fill:#1D91B4;}
	.st5{fill:#23A3C2;}
	.st6{fill:#34BBDE;}
	.st7{fill:#D3ECEC;}
	.st8{fill:#BDD9D7;}
</style>
<g
   id="g67"><path
     id="XMLID_13_"
     class="st0"
     d="m 210.5,65.3 h 32.6 v 33.4 h 16.5 c 7.6,0 15.5,-1.4 22.7,-3.8 3.5,-1.2 7.5,-2.9 11,-5 -4.6,-6 -7,-13.6 -7.7,-21.1 -0.9,-10.2 1.1,-23.4 8,-31.4 l 3.4,-4 4.1,3.3 c 10.3,8.3 19,19.8 20.5,33 12.4,-3.6 26.9,-2.8 37.9,3.5 l 4.5,2.6 -2.4,4.6 c -9.2,18 -28.6,23.6 -47.4,22.6 -28.3,70.4 -89.8,103.7 -164.4,103.7 -38.5,0 -73.9,-14.4 -94,-48.6 l -0.3,-0.6 -2.9,-6 c -6.8,-15.1 -9.1,-31.5 -7.5,-48 l 0.5,-4.9 H 73.5 V 65.2 h 32.6 V 32.6 h 65.3 V 0 h 39.1 v 65.3" /><path
     id="XMLID_14_"
     class="st1"
     d="m 316.3,77.6 c 2.2,-17 -10.5,-30.4 -18.4,-36.7 -9.1,10.5 -10.5,38.1 3.8,49.7 -8,7.1 -24.8,13.5 -41.9,13.5 H 50.5 c -1.7,17.9 1.5,34.5 8.7,48.6 l 2.4,4.4 c 1.5,2.6 3.2,5 4.9,7.4 v 0 c 8.6,0.6 16.5,0.7 23.8,0.6 v 0 c 14.3,-0.3 25.9,-2 34.7,-5.1 1.3,-0.5 2.7,0.2 3.2,1.6 0.5,1.3 -0.2,2.7 -1.6,3.2 -1.2,0.4 -2.4,0.8 -3.7,1.1 v 0 c -6.9,2 -14.4,3.3 -24,3.9 0.6,0 -0.6,0.1 -0.6,0.1 -0.3,0 -0.7,0.1 -1.1,0.1 -3.8,0.2 -7.9,0.3 -12,0.3 -4.6,0 -9.1,-0.1 -14.1,-0.3 l -0.1,0.1 c 17.4,19.6 44.7,31.3 78.8,31.3 72.3,0 133.6,-32.1 160.8,-104 19.3,2 37.8,-2.9 46.2,-19.4 -13.3,-7.8 -30.6,-5.4 -40.5,-0.4" /><path
     id="XMLID_15_"
     class="st2"
     d="m 316.3,77.6 c 2.2,-17 -10.5,-30.4 -18.4,-36.7 -9.1,10.5 -10.5,38.1 3.8,49.7 -8,7.1 -24.8,13.5 -41.9,13.5 H 62.9 c -0.9,27.5 9.3,48.3 27.4,60.9 v 0 c 14.3,-0.3 25.9,-2 34.7,-5.1 1.3,-0.5 2.7,0.2 3.2,1.6 0.5,1.3 -0.2,2.7 -1.6,3.2 -1.2,0.4 -2.4,0.8 -3.7,1.1 v 0 c -6.9,2 -15,3.5 -24.6,4.1 l -0.2,-0.2 c 24.6,12.6 60.3,12.6 101.2,-3.1 45.9,-17.6 88.5,-51.2 118.3,-89.6 -0.4,0.2 -0.9,0.4 -1.3,0.6" /><path
     id="XMLID_16_"
     class="st3"
     d="m 50.9,125.9 c 1.3,9.6 4.1,18.6 8.3,26.8 l 2.4,4.4 c 1.5,2.6 3.2,5 4.9,7.4 8.6,0.6 16.5,0.7 23.8,0.6 14.3,-0.3 25.9,-2 34.7,-5.1 1.3,-0.5 2.7,0.2 3.2,1.6 0.5,1.3 -0.2,2.7 -1.6,3.2 -1.2,0.4 -2.4,0.8 -3.7,1.1 v 0 c -6.9,2 -15,3.4 -24.6,4 -0.3,0 -0.9,0 -1.2,0 -3.8,0.2 -7.8,0.3 -12,0.3 -4.6,0 -9.2,-0.1 -14.2,-0.3 17.4,19.6 44.9,31.4 79,31.4 61.9,0 115.8,-23.5 147,-75.4 h -246" /><path
     id="XMLID_17_"
     class="st4"
     d="m 64.8,125.9 c 3.7,16.9 12.6,30.1 25.5,39.1 14.3,-0.3 25.9,-2 34.7,-5.1 1.3,-0.5 2.7,0.2 3.2,1.6 0.5,1.3 -0.2,2.7 -1.6,3.2 -1.2,0.4 -2.4,0.8 -3.7,1.1 v 0 c -6.9,2 -15.2,3.4 -24.8,4 24.6,12.6 60.2,12.4 101.1,-3.3 24.7,-9.5 48.6,-23.7 69.9,-40.7 H 64.8" /><path
     id="XMLID_25_"
     class="st5"
     d="m 78.9,70.7 h 28.3 V 99 H 78.9 Z m 2.3,2.4 h 2.2 v 23.6 h -2.2 z m 4.2,0 h 2.3 v 23.6 h -2.3 z m 4.3,0 H 92 v 23.6 h -2.3 z m 4.3,0 h 2.3 V 96.7 H 94 Z m 4.3,0 h 2.3 v 23.6 h -2.3 z m 4.3,0 h 2.2 v 23.6 h -2.2 z" /><path
     id="XMLID_33_"
     class="st5"
     d="m 111.5,38.1 h 28.3 v 28.3 h -28.3 z m 2.4,2.3 h 2.2 V 64 h -2.2 z m 4.2,0 h 2.3 V 64 h -2.3 z m 4.3,0 h 2.3 V 64 h -2.3 z m 4.3,0 H 129 V 64 h -2.3 z m 4.2,0 h 2.3 V 64 h -2.3 z m 4.3,0 h 2.2 V 64 h -2.2 z" /><path
     id="XMLID_41_"
     class="st6"
     d="m 111.5,70.7 h 28.3 V 99 h -28.3 z m 2.4,2.4 h 2.2 v 23.6 h -2.2 z m 4.2,0 h 2.3 v 23.6 h -2.3 z m 4.3,0 h 2.3 v 23.6 h -2.3 z m 4.3,0 h 2.3 v 23.6 h -2.3 z m 4.2,0 h 2.3 v 23.6 h -2.3 z m 4.3,0 h 2.2 v 23.6 h -2.2 z" /><path
     id="XMLID_49_"
     class="st5"
     d="m 144.2,70.7 h 28.3 V 99 h -28.3 z m 2.3,2.4 h 2.2 v 23.6 h -2.2 z m 4.2,0 h 2.3 v 23.6 h -2.3 z m 4.3,0 h 2.3 V 96.7 H 155 Z m 4.3,0 h 2.3 v 23.6 h -2.3 z m 4.3,0 h 2.3 v 23.6 h -2.3 z m 4.3,0 h 2.2 v 23.6 h -2.2 z" /><path
     id="XMLID_57_"
     class="st6"
     d="m 144.2,38.1 h 28.3 v 28.3 h -28.3 z m 2.3,2.3 h 2.2 V 64 h -2.2 z m 4.2,0 H 153 V 64 h -2.3 z m 4.3,0 h 2.3 V 64 H 155 Z m 4.3,0 h 2.3 V 64 h -2.3 z m 4.3,0 h 2.3 V 64 h -2.3 z m 4.3,0 h 2.2 V 64 h -2.2 z" /><path
     id="XMLID_65_"
     class="st6"
     d="m 176.8,70.7 h 28.3 V 99 h -28.3 z m 2.4,2.4 h 2.2 v 23.6 h -2.2 z m 4.2,0 h 2.3 v 23.6 h -2.3 z m 4.3,0 h 2.3 v 23.6 h -2.3 z m 4.2,0 h 2.3 v 23.6 h -2.3 z m 4.3,0 h 2.3 v 23.6 h -2.3 z m 4.3,0 h 2.2 v 23.6 h -2.2 z" /><path
     id="XMLID_73_"
     class="st5"
     d="m 176.8,38.1 h 28.3 v 28.3 h -28.3 z m 2.4,2.3 h 2.2 V 64 h -2.2 z m 4.2,0 h 2.3 V 64 h -2.3 z m 4.3,0 H 190 V 64 h -2.3 z m 4.2,0 h 2.3 V 64 h -2.3 z m 4.3,0 h 2.3 V 64 h -2.3 z m 4.3,0 h 2.2 V 64 h -2.2 z" /><path
     id="XMLID_81_"
     class="st6"
     d="m 176.8,5.4 h 28.3 v 28.3 h -28.3 z m 2.4,2.4 h 2.2 v 23.6 h -2.2 z m 4.2,0 h 2.3 v 23.6 h -2.3 z m 4.3,0 h 2.3 v 23.6 h -2.3 z m 4.2,0 h 2.3 v 23.6 h -2.3 z m 4.3,0 h 2.3 v 23.6 h -2.3 z m 4.3,0 h 2.2 v 23.6 h -2.2 z" /><path
     id="XMLID_89_"
     class="st5"
     d="m 209.5,70.7 h 28.3 V 99 h -28.3 z m 2.3,2.4 h 2.2 v 23.6 h -2.2 z m 4.2,0 h 2.3 V 96.7 H 216 Z m 4.3,0 h 2.3 v 23.6 h -2.3 z m 4.3,0 h 2.3 v 23.6 h -2.3 z m 4.3,0 h 2.3 v 23.6 h -2.3 z m 4.3,0 h 2.2 v 23.6 h -2.2 z" /><path
     id="XMLID_90_"
     class="st7"
     d="m 138.1,144.9 c 4.3,0 7.8,3.5 7.8,7.8 0,4.3 -3.5,7.8 -7.8,7.8 -4.3,0 -7.8,-3.5 -7.8,-7.8 0,-4.3 3.4,-7.8 7.8,-7.8" /><path
     id="XMLID_91_"
     class="st0"
     d="m 138.1,147.1 c 0.7,0 1.4,0.1 2,0.4 -0.7,0.4 -1.1,1.1 -1.1,2 0,1.3 1,2.3 2.3,2.3 0.9,0 1.6,-0.5 2,-1.2 0.3,0.7 0.4,1.4 0.4,2.1 0,3.1 -2.5,5.6 -5.6,5.6 -3.1,0 -5.6,-2.5 -5.6,-5.6 0,-3.1 2.5,-5.6 5.6,-5.6" /><path
     id="XMLID_92_"
     class="st0"
     d="m 0,128.7 h 363.1 c -7.9,-2 -25,-4.7 -22.2,-15.1 -14.4,16.6 -49,11.7 -57.8,3.5 -9.7,14.1 -66.5,8.8 -70.4,-2.2 -12.2,14.3 -50.1,14.3 -62.3,0 -4,11 -60.7,16.4 -70.4,2.2 -8.7,8.2 -43.4,13.2 -57.8,-3.5 C 25,124 7.9,126.7 0,128.7" /><path
     id="XMLID_93_"
     class="st8"
     d="m 158.8,201.1 c -19.3,-9.2 -29.9,-21.6 -35.8,-35.3 -7.2,2 -15.8,3.4 -25.8,3.9 -3.8,0.2 -7.8,0.3 -11.9,0.3 -4.8,0 -9.9,-0.1 -15.2,-0.4 17.7,17.7 39.5,31.4 79.9,31.6 2.9,0.1 5.9,0 8.8,-0.1" /><path
     id="XMLID_94_"
     class="st7"
     d="m 130.1,178.4 c -2.7,-3.6 -5.3,-8.2 -7.2,-12.6 -7.2,2.1 -15.8,3.4 -25.8,3.9 6.9,3.8 16.8,7.3 33,8.7" /></g>
</svg>
