<?xml version="1.0" encoding="UTF-8" standalone="no"?>
<svg
   xmlns:dc="http://purl.org/dc/elements/1.1/"
   xmlns:cc="http://creativecommons.org/ns#"
   xmlns:rdf="http://www.w3.org/1999/02/22-rdf-syntax-ns#"
   xmlns:svg="http://www.w3.org/2000/svg"
   xmlns="http://www.w3.org/2000/svg"
   xmlns:sodipodi="http://sodipodi.sourceforge.net/DTD/sodipodi-0.dtd"
   xmlns:inkscape="http://www.inkscape.org/namespaces/inkscape"
   id="Layer_1"
   data-name="Layer 1"
   viewBox="0 0 500.02011 171.37384"
   version="1.1"
   sodipodi:docname="elastic.svg"
   width="500.02011"
   height="171.37384"
   inkscape:version="1.0.2 (e86c870879, 2021-01-15)">
  <metadata
     id="metadata40">
    <rdf:RDF>
      <cc:Work
         rdf:about="">
        <dc:format>image/svg+xml</dc:format>
        <dc:type
           rdf:resource="http://purl.org/dc/dcmitype/StillImage" />
      </cc:Work>
    </rdf:RDF>
  </metadata>
  <sodipodi:namedview
     pagecolor="#ffffff"
     bordercolor="#666666"
     borderopacity="1"
     objecttolerance="10"
     gridtolerance="10"
     guidetolerance="10"
     inkscape:pageopacity="0"
     inkscape:pageshadow="2"
     inkscape:window-width="1517"
     inkscape:window-height="1002"
     id="namedview38"
     showgrid="false"
     inkscape:zoom="2.636"
     inkscape:cx="250.00012"
     inkscape:cy="85.697487"
     inkscape:window-x="0"
     inkscape:window-y="27"
     inkscape:window-maximized="0"
     inkscape:current-layer="Layer_1" />
  <defs
     id="defs4">
    <style
       id="style2">.cls-1{fill:#fff;}.cls-2{fill:#fec514;}.cls-3{fill:#00bfb3;}.cls-4{fill:#f04e98;}.cls-5{fill:#1ba9f5;}.cls-6{fill:#93c90e;}.cls-7{fill:#07c;}.cls-8{fill:#1c1e23;}</style>
  </defs>
  <title
     id="title6">logo-elastic-horizontal-color</title>
  <g
     id="logo-elastic-horizontal-color"
     transform="translate(1.1522881e-4,0.0074845)">
    <path
       class="cls-1"
       d="m 172.05,89.79 a 33.85,33.85 0 0 0 -22.39,-31.93 48.11,48.11 0 0 0 0.9,-9.25 48.59,48.59 0 0 0 -88,-28.45 25.81,25.81 0 0 0 -40,29.4 A 34.31,34.31 0 0 0 0,81.62 a 33.88,33.88 0 0 0 22.5,32 49.73,49.73 0 0 0 -0.89,9.24 48.46,48.46 0 0 0 87.86,28.26 25.77,25.77 0 0 0 40,-29.29 34.29,34.29 0 0 0 22.57,-32.06"
       id="path8" />
    <path
       class="cls-2"
       d="m 67.64,73.81 37.65,17.19 38,-33.28 a 42,42 0 0 0 0.81,-8.34 42.46,42.46 0 0 0 -77.48,-24 l -6.33,32.74 z"
       id="path10" />
    <path
       class="cls-3"
       d="m 28.67,113.68 a 43.14,43.14 0 0 0 -0.83,8.47 42.57,42.57 0 0 0 77.77,23.94 l 6.27,-32.67 -8.37,-16 L 65.72,80.2 Z"
       id="path12" />
    <path
       class="cls-4"
       d="m 28.44,48.53 25.8,6.09 5.65,-29.34 A 20.38,20.38 0 0 0 28.44,48.53"
       id="path14" />
    <path
       class="cls-5"
       d="M 26.2,54.67 A 28.74,28.74 0 0 0 6.65,81.67 28.44,28.44 0 0 0 25,108.28 L 61.2,75.56 54.55,61.36 Z"
       id="path16" />
    <path
       class="cls-6"
       d="m 112.23,146.09 a 20.35,20.35 0 0 0 31.39,-23.2 l -25.78,-6 z"
       id="path18" />
    <path
       class="cls-7"
       d="m 117.47,110.1 28.38,6.63 a 28.7,28.7 0 0 0 19.55,-27 28.41,28.41 0 0 0 -18.34,-26.54 l -37.12,32.5 z"
       id="path20" />
    <path
       class="cls-8"
       d="m 240.56,120.4 3.44,-0.35 0.24,7 a 171,171 0 0 1 -23.12,1.9 q -12.8,0 -18.14,-7.41 -5.34,-7.41 -5.33,-23.06 0,-31.17 24.78,-31.18 12,0 17.9,6.7 5.9,6.7 5.92,21 l -0.47,6.76 h -39.12 q 0,9.84 3.56,14.58 3.56,4.74 12.38,4.74 8.84,0.03 17.96,-0.68 z m -3.2,-25.72 q 0,-10.91 -3.49,-15.41 -3.49,-4.5 -11.38,-4.51 -7.89,0 -11.86,4.74 -3.97,4.74 -4.09,15.18 z"
       id="path22" />
    <path
       class="cls-8"
       d="m 258.65,128.48 v -78 h 8.89 v 78 z"
       id="path24" />
    <path
       class="cls-8"
       d="m 323.53,86.38 v 29.9 c 0,3 7.38,2.84 7.38,2.84 l -0.45,7.86 c -6.25,0 -11.42,0.52 -14.52,-2.49 a 51.71,51.71 0 0 1 -21.33,4.45 q -8.17,0 -12.45,-4.63 -4.28,-4.63 -4.27,-13.31 0,-8.66 4.39,-12.75 4.39,-4.09 13.75,-5 l 18.61,-1.77 v -5.1 q 0,-6 -2.6,-8.66 a 9.65,9.65 0 0 0 -7.12,-2.6 h -23.36 v -7.83 h 22.77 q 10.08,0 14.64,4.63 4.56,4.63 4.56,14.46 z M 287,110.56 q 0,10.91 9,10.91 a 47.93,47.93 0 0 0 15.89,-2.73 l 2.72,-0.95 V 98.23 l -17.51,1.66 q -5.34,0.48 -7.71,3.08 -2.37,2.6 -2.39,7.59 z"
       id="path26" />
    <path
       class="cls-8"
       d="m 358.24,75.24 q -12.93,0 -12.93,9 0,4.16 3,5.87 3,1.71 13.51,3.56 10.56,1.85 14.94,5.16 4.38,3.31 4.39,12.44 0,9.14 -5.87,13.4 -5.87,4.26 -17.13,4.27 c -4.9,0 -21.26,-1.82 -21.26,-1.82 l 0.48,-7.7 c 9.4,0.9 16.19,1.57 20.78,1.57 4.59,0 8.08,-0.73 10.49,-2.19 2.41,-1.46 3.61,-3.91 3.61,-7.35 0,-3.44 -1,-5.77 -3.08,-7 -2.08,-1.23 -6.56,-2.39 -13.51,-3.5 -6.95,-1.11 -11.9,-2.73 -14.82,-4.86 -2.92,-2.13 -4.39,-6.09 -4.39,-11.86 0,-5.77 2,-10 6.11,-12.8 4.11,-2.8 9.15,-4.15 15.23,-4.15 4.82,0 21.55,1.23 21.55,1.23 v 7.75 c -8.83,-0.39 -16.05,-1.02 -21.1,-1.02 z"
       id="path28" />
    <path
       class="cls-8"
       d="m 424,76.18 h -18.85 v 28.34 q 0,10.19 1.48,13.39 c 1,2.14 3.34,3.2 7.05,3.2 l 10.55,-0.71 0.6,7.35 a 81.28,81.28 0 0 1 -12.1,1.31 q -9.24,0 -12.8,-4.51 -3.56,-4.51 -3.55,-17.19 V 76.18 H 388 v -7.7 h 8.42 V 50.34 h 8.77 V 68.48 H 424 Z"
       id="path30" />
    <path
       class="cls-8"
       d="M 436.36,60.91 V 50.59 h 8.89 v 10.32 z m 0,67.57 v -60 h 8.89 v 60 z"
       id="path32" />
    <path
       class="cls-8"
       d="M 483.76,67.29 A 102.62,102.62 0 0 1 497,68.72 l 2.84,0.35 -0.35,7.23 a 139.18,139.18 0 0 0 -14,-1.06 q -10.08,0 -13.69,4.8 -3.61,4.8 -3.62,17.78 0,13 3.38,18.08 3.38,5.08 14.1,5.1 l 14,-1.06 0.36,7.35 a 122.94,122.94 0 0 1 -16.48,1.66 q -13.86,0 -19.14,-7.12 -5.28,-7.12 -5.28,-24 0,-16.89 5.69,-23.71 5.69,-6.82 18.95,-6.83 z"
       id="path34" />
  </g>
</svg>
