<?xml version="1.0" encoding="UTF-8" standalone="no"?>
<svg
   xmlns:dc="http://purl.org/dc/elements/1.1/"
   xmlns:cc="http://creativecommons.org/ns#"
   xmlns:rdf="http://www.w3.org/1999/02/22-rdf-syntax-ns#"
   xmlns:svg="http://www.w3.org/2000/svg"
   xmlns="http://www.w3.org/2000/svg"
   xmlns:sodipodi="http://sodipodi.sourceforge.net/DTD/sodipodi-0.dtd"
   xmlns:inkscape="http://www.inkscape.org/namespaces/inkscape"
   width="553.98779"
   height="766.00775"
   viewBox="10 10 225.52089 311.85916"
   version="1.1"
   id="svg80"
   sodipodi:docname="jenkins.svg"
   inkscape:version="1.0.2 (e86c870879, 2021-01-15)">
  <metadata
     id="metadata86">
    <rdf:RDF>
      <cc:Work
         rdf:about="">
        <dc:format>image/svg+xml</dc:format>
        <dc:type
           rdf:resource="http://purl.org/dc/dcmitype/StillImage" />
        <dc:title></dc:title>
      </cc:Work>
    </rdf:RDF>
  </metadata>
  <defs
     id="defs84" />
  <sodipodi:namedview
     pagecolor="#ffffff"
     bordercolor="#666666"
     borderopacity="1"
     objecttolerance="10"
     gridtolerance="10"
     guidetolerance="10"
     inkscape:pageopacity="0"
     inkscape:pageshadow="2"
     inkscape:window-width="1517"
     inkscape:window-height="965"
     id="namedview82"
     showgrid="false"
     inkscape:zoom="0.3727867"
     inkscape:cx="1180.7026"
     inkscape:cy="552.65246"
     inkscape:window-x="0"
     inkscape:window-y="27"
     inkscape:window-maximized="0"
     inkscape:current-layer="svg80"
     inkscape:document-rotation="0"
     fit-margin-top="0"
     fit-margin-left="0"
     fit-margin-right="0"
     fit-margin-bottom="0" />
  <g
     id="g82"
     transform="translate(2.4166533e-4)">
    <path
       d="m 232.10161,160.27761 c 0,61.786 -48.968,111.874 -109.375,111.874 -60.405004,0 -109.373004,-50.088 -109.373004,-111.874 0,-61.786999 48.968,-111.874999 109.373004,-111.874999 60.407,0 109.375,50.089 109.375,111.875999"
       fill="#d33833"
       id="path2" />
    <path
       d="m 17.810606,187.98561 c 0,0 -7.9170003,-116.667999 99.583004,-119.999999 l -7.499,-12.5 -58.332004,19.582 -16.668,19.168 -14.584,27.916999 -8.334,32.5 2.5,21.666"
       fill="#ef3d3a"
       id="path4" />
    <path
       d="m 47.814606,83.958611 c -19.19,19.634999 -31.065,46.744999 -31.065,76.736999 0,29.983 11.875,57.097 31.065,76.73 19.2,19.63 45.659,31.745 74.911004,31.745 29.253,0 55.714,-12.114 74.913,-31.745 19.188,-19.632 31.065,-46.745 31.065,-76.73 0,-29.992 -11.878,-57.102 -31.065,-76.736999 -19.199,-19.627 -45.659,-31.74 -74.913,-31.743 -29.252004,0.002 -55.711004,12.116 -74.911004,31.743 z m -4.856,158.214999 c -20.395,-20.857 -33.0040003,-49.681 -33.0040003,-81.478 0,-31.802 12.6090003,-60.624 33.0020003,-81.482999 20.39,-20.864 48.614,-33.794 79.768004,-33.79 31.154,-0.004 59.381,12.926 79.767,33.79 20.397,20.858999 33.008,49.683999 33.004,81.482999 0.003,31.796 -12.607,60.62 -33.004,81.478 -20.386,20.862 -48.613,33.792 -79.767,33.792 -31.153004,0 -59.378004,-12.93 -79.766004,-33.792"
       fill="#231f20"
       id="path6" />
    <path
       d="m 168.76861,160.89761 -16.668,2.5 -22.5,2.5 -14.583,0.416 -14.167,-0.416 -10.833004,-3.334 -9.583,-10.416 -7.5,-21.25 -1.667,-4.584 -10,-3.332 -5.833,-9.584 -4.167,-13.749999 4.583,-12.084 10.834,-3.75 8.75,4.168 4.166,9.166 5,-0.834 1.667,-2.082 -1.667,-9.584 -0.416,-12.084 2.5,-16.666 -0.097,-9.52 7.597,-12.145 13.333004,-9.584 23.333,-10 25.834,3.75 22.5,16.25 10.416,16.667 6.668,12.083 1.666,30 -5,25.833999 -9.166,22.916 -8.75,12.084"
       fill="#f0d6b7"
       id="path8" />
    <path
       d="m 154.60061,232.98061 -59.583004,2.5 v 10 l 5.000004,35 -2.500004,2.917 -41.667,-14.167 -2.916,-5 -4.167,-47.083 -9.583,-28.334 -2.084,-6.666 33.334,-22.915 10.416,-4.168 9.167,11.25 7.917,7.084 9.166004,2.916 4.167,1.25 5,21.667 3.75,4.583 9.583,-3.333 -6.666,12.917 36.25,17.083 -4.584,2.5"
       fill="#335061"
       id="path10" />
    <path
       d="m 55.850606,87.563611 10.834,-3.75 8.75,4.168 4.166,9.166 5,-0.834 1.25,-5 -2.5,-9.582 2.5,-22.918 -2.084,-12.5 7.5,-8.75 16.250004,-12.916 -4.582,-6.25 -22.918004,11.25 -9.582,7.5 -5.417,11.666 -8.333,11.25 -2.5,13.334 1.666,14.166"
       fill="#6d6b6d"
       id="path12" />
    <path
       d="m 72.933606,48.397611 c 0,0 6.25,-15.416 31.250004,-22.916 25,-7.5 1.25,-5.418 1.25,-5.418 l -27.084004,10.419 -10.416,10.415 -4.584,8.334 9.584,-0.834 m -12.5,36.25 c 0,0 -8.75,-29.167 24.582,-33.334 l -1.25,-5 -22.916,5.418 -6.666,21.666 1.666,14.166 4.584,-2.916"
       fill="#dcd9d8"
       id="path14" />
    <path
       d="m 73.765606,123.39761 5.456,-5.286 c 0,0 2.462,0.286 2.878,3.202 0.416,2.918 1.666,29.168 19.584004,43.335 1.633,1.293 -13.334004,-2.085 -13.334004,-2.085 l -13.334,-20.831 m 75.420004,-26.251 c 0,0 0.972,-12.63 4.374,-11.659 3.401,0.971 3.401,4.373 3.401,4.373 0,0 -8.261,5.343 -7.775,7.286 m 34.582,-46.249999 c 0,0 -6.87,1.45 -7.5,7.5 -0.633,6.051 7.5,1.25 8.75,0.832 m -51.667,-7.915 c 0,0 -9.166,1.25 -9.166,7.083 0,5.832 10.416,5.417 13.334,2.917 m -60.835004,17.083 c 0,0 -15.834,-9.584 -17.5,-0.418 -1.668,9.167999 -5.418,15.833999 2.5,25.417999 l -5.418,-1.668 -5,-12.916 -1.666,-12.499999 9.584,-10.001 10.832,0.834 6.25,5 0.418,6.25 m 7.5,-26.249 c 0,0 7.082,-36.668 42.916004,-43.75 29.503,-5.831 44.999,1.25 50.834,7.916 0,0 -26.25,-31.2490005 -51.25,-21.666 -25,9.582 -43.334004,27.082 -42.918004,38.332 0.71,19.16 0.418,19.168 0.418,19.168 m 96.667004,-31.668 c 0,0 -12.082,-0.416 -12.5,10.418 0,0 -10e-4,1.666 0.834,3.332 0,0 9.585,-10.833 15.416,-5"
       fill="#f7e4cd"
       id="path16" />
    <path
       d="m 129.18961,53.692611 c 0,0 -2.08,-16.629 -16.256,-6.961 -9.168,6.25 -8.334,15 -6.668,16.666 1.668,1.668 1.214,5.024 2.483,2.72 1.267,-2.304 0.85,-9.804 5.435,-11.886 4.582,-2.084 12.096,-4.411 15.006,-0.539"
       fill="#f7e4cd"
       id="path18" />
    <path
       d="m 90.015606,166.31361 -39.166,17.5 c 0,0 16.25,64.584 7.916,84.584 l -5.832,-2.082 -0.418,-24.584 -10.832,-46.666 -4.584,-12.918 40.834,-27.499 12.082,11.665 m 4.028,35.722 5.556,6.778 v 25 h -6.666 c 0,0 -0.834,-17.5 -0.834,-19.583 0,-2.083 0.834,-9.583 0.834,-9.583 m 1.25,32.918 -18.75,0.832 5.416,3.75 13.334,2.083"
       fill="#49728b"
       id="path20" />
    <path
       d="m 158.35061,233.39761 15.418,-0.417 3.75,38.333 -15.834,2.083 -3.334,-39.999"
       fill="#335061"
       id="path22" />
    <path
       d="m 162.51761,233.39761 23.332,-1.25 c 0,0 9.584,-24.167 9.584,-25.417 0,-1.25 8.334,-35 8.334,-35 l -18.75,-19.582 -3.75,-3.333 -10,10 v 38.75 l -8.75,35.832"
       fill="#335061"
       id="path24" />
    <path
       d="m 172.93361,230.48061 -14.584,2.917 2.084,11.668 c 5.416,2.5 14.584,-4.168 14.584,-4.168 m -1.667,-83.332 29.168,21.667 0.832,-10 -22.082,-20.417 -7.918,8.75"
       fill="#49728b"
       id="path26" />
    <path
       d="m 108.64361,315.48561 -8.626,-35.007 -4.290004,-25.828 -0.71,-19.172 39.043004,-2.078 24.29,-0.004 -2.207,43.754 3.75,33.75 -0.418,6.25 -31.665,2.5 -19.167,-4.165"
       fill="#ffffff"
       id="path28" />
    <path
       d="m 152.93361,232.98061 c 0,0 -2.084,43.333 4.166,74.167 0,0 -12.5,7.918 -30.834,10 l 35.001,-1.25 4.167,-2.5 -5,-68.332 -1.25,-14.585"
       fill="#dcd9d8"
       id="path30" />
    <path
       d="m 178.22661,267.98561 16.25,-4.584 30.833,-1.666 4.584,-14.168 -8.334,-24.582 -9.582,-1.25 -13.334,4.166 -12.793,6.246 -6.791,-1.246 -5.293,2.079"
       fill="#ffffff"
       id="path32" />
    <path
       d="m 177.93361,259.64761 c 0,0 10.832,-4.999 12.5,-4.582 l -4.584,-22.918 5.417,-2.082 c 0,0 3.75,21.666 3.75,24.166 0,0 23.333,1.25 25.417,1.25 0,0 5,-9.583 3.75,-19.583 l 4.583,13.333 0.417,7.5 -6.667,10 -7.5,1.667 -12.5,-0.417 -4.167,-5.416 -14.582,2.082 -4.584,1.668"
       fill="#dcd9d8"
       id="path34" />
    <path
       d="m 161.55961,230.06861 -9.166,-23.332 -9.584,-13.75 c 0,0 2.083,-5.834 5,-5.834 h 9.584 l 9.166,3.334 -0.832,15.416 -4.168,24.166"
       fill="#ffffff"
       id="path36" />
    <path
       d="m 163.35061,222.14761 c 0,0 -11.666,-22.499 -11.666,-25.832 0,0 2.083,-5 5,-3.75 2.916,1.25 9.166,4.582 9.166,4.582 v -7.916 l -14.166,-2.918 -9.584,1.25 16.25,38.334 3.334,0.418"
       fill="#dcd9d8"
       id="path38" />
    <path
       d="m 112.39361,167.15261 -11.543,-1.255 -10.834004,-3.334 v 3.75 l 5.294,5.838 16.667004,7.5"
       fill="#ffffff"
       id="path40" />
    <path
       d="m 93.768606,168.40161 c 0,0 12.916004,5.417 17.084004,4.167 l 0.413,4.995 -11.664004,-2.495 -7.083,-5 1.25,-1.667"
       fill="#dcd9d8"
       id="path42" />
    <path
       d="m 178.18161,188.57061 c -7.07,-0.208 -13.457,-1.048 -19.05,-2.625 0.38,-2.293 -0.332,-4.543 0.24,-6.195 1.558,-1.123 4.172,-1.105 6.527,-1.368 -2.038,-1.002 -4.899,-1.397 -7.251,-0.82 -0.056,-1.591 -0.77,-2.577 -1.202,-3.822 3.975,-1.42 13.359,-10.72 18.638,-7.64 2.515,1.465 3.584,9.832 3.779,13.9 0.163,3.377 -0.305,6.782 -1.68,8.57"
       fill="#d33833"
       id="path44" />
    <path
       d="m 178.18161,188.57061 c -7.07,-0.208 -13.457,-1.048 -19.05,-2.625 0.38,-2.293 -0.332,-4.543 0.24,-6.195 1.558,-1.123 4.172,-1.105 6.527,-1.368 -2.038,-1.002 -4.899,-1.397 -7.251,-0.82 -0.056,-1.591 -0.77,-2.577 -1.202,-3.822 3.975,-1.42 13.359,-10.72 18.638,-7.64 2.515,1.465 3.584,9.832 3.779,13.9 0.163,3.377 -0.305,6.782 -1.68,8.57 z"
       fill="none"
       stroke="#d33833"
       stroke-width="2.5"
       id="path46" />
    <path
       d="m 144.37361,177.01261 c -0.019,0.535 -0.042,1.074 -0.063,1.614 -2.207,1.45 -5.77,1.432 -8.194,2.651 3.572,0.156 6.383,1.016 8.815,2.229 l -0.157,4.042 c -4.046,2.77 -7.742,6.895 -12.506,9.493 -2.253,1.229 -10.159,4.39 -12.555,3.831 -1.355,-0.315 -1.478,-1.997 -2.02,-3.584 -1.155,-3.395 -3.814,-8.8 -4.047,-13.915 -0.294,-6.457 -0.947,-17.278 6.012,-15.948 5.614,1.07 12.145,3.657 16.491,6.032 2.657,1.45 4.194,3.245 8.224,3.555"
       fill="#d33833"
       id="path48" />
    <path
       d="m 144.37361,177.01261 c -0.019,0.535 -0.042,1.074 -0.063,1.614 -2.207,1.45 -5.77,1.432 -8.194,2.651 3.572,0.156 6.383,1.016 8.815,2.229 l -0.157,4.042 c -4.046,2.77 -7.742,6.895 -12.506,9.493 -2.253,1.229 -10.159,4.39 -12.555,3.831 -1.355,-0.315 -1.478,-1.997 -2.02,-3.584 -1.155,-3.395 -3.814,-8.8 -4.047,-13.915 -0.294,-6.457 -0.947,-17.278 6.012,-15.948 5.614,1.07 12.145,3.657 16.491,6.032 2.657,1.45 4.194,3.245 8.224,3.555 z"
       fill="none"
       stroke="#d33833"
       stroke-width="2.5"
       id="path50" />
    <path
       d="m 148.39261,184.71761 c -0.62,-3.517 -1.333,-4.521 -1.057,-7.591 9.383,-6.254 11.144,10.745 1.056,7.591"
       fill="#d33833"
       id="path52" />
    <path
       d="m 148.39261,184.71761 c -0.62,-3.517 -1.333,-4.521 -1.057,-7.591 9.383,-6.254 11.144,10.745 1.056,7.591 z"
       fill="none"
       stroke="#d33833"
       stroke-width="2.5"
       id="path54" />
    <path
       d="m 161.97561,187.56861 c 0,0 -2.917,-4.167 -0.832,-5.417 2.082,-1.25 4.167,0.001 5.417,-2.083 1.25,-2.082 0,-3.332 0.416,-5.832 0.418,-2.5 2.503,-2.918 4.584,-3.334 2.083,-0.416 7.918,-1.25 8.75,0.834 l -2.5,-7.5 -5,-1.668 -15.834,9.168 -0.832,4.582 v 9.168 m -37.919,15.832 c -0.501,-6.502 -1.03,-12.996 -1.62,-19.492 -0.881,-9.7 2.33,-8.008 10.739,-8.008 1.284,0 7.907,1.532 8.381,2.5 2.273,4.642 -3.8,3.61 2.619,7.11 5.416,2.954 14.988,-1.793 12.799,-8.36 -1.225,-1.46 -6.383,-0.455 -8.231,-1.412 l -9.765,-5.063 c -4.142,-2.15 -13.713,-5.28 -18.13,-2.278 -11.187,7.61 0.707,26.62 4.698,34.557"
       fill="#ef3d3a"
       id="path56" />
    <path
       d="m 129.18961,53.692611 c -11.356,-2.645 -16.999,4.753 -20.441,12.425 -3.074,-0.745 -1.85,-4.925 -1.074,-7.055 2.033,-5.59 10.225,-13.031 16.918,-12.022 2.88,0.433 6.778,3.067 4.597,6.652 m 55.334,12.933 0.539,0.02 c 2.566,5.332 4.787,10.98 8.023,15.686 -2.167,5.051 -16.421,9.521 -16.202,0.451 3.082,-1.347 8.403,-0.275 11.136,-1.996 -1.579,-4.336 -3.859,-8.028 -3.496,-14.161 m -49.519,0.138 c 2.435,4.464 3.228,9.154 6.689,12.528 1.559,1.519 4.59,3.37 3.087,7.594 -0.351,0.996 -2.917,3.217 -4.4,3.653 -5.411,1.597 -18.02,0.33 -13.75,-6.417 4.477,0.209 10.49,2.906 13.835,-0.341 -2.567,-4.107 -7.146,-12.23 -5.461,-17.017 m 47.487,45.367999 c -8.147,5.235 -17.232,10.925 -30.582,9.605 -2.853,-2.48 -3.94,-7.999 -1.169,-11.644 1.443,2.48 0.536,7.041 4.556,7.728 7.575,1.296 16.392,-4.634 21.842,-6.708 3.377,-5.696 -0.293,-7.791 -3.336,-11.456999 -6.23,-7.512 -14.59,-16.822 -14.287,-28.067 2.52,-1.826 2.736,2.788 3.098,3.628 3.254,7.614 11.442,17.354 17.419,23.871 1.467,1.604999 3.883,3.144999 4.152,4.205999 0.775,3.088 -2.016,6.785 -1.692,8.838 m -107.411004,-5.51 c -2.553,-1.458 -3.162,-7.877999 -6.16,-8.059999 -4.283,-0.261 -3.502,8.326999 -3.486,13.349999 -2.948,-2.676 -3.467,-10.921 -1.301,-15.153999 -2.47,-1.212 -3.573,1.338 -4.941,2.236 1.76,-12.787 18.706,-5.93 15.889,7.627999 m 112.597004,10.835 c -3.792,7.219 -9.157,15.169 -20.286,15.4 -0.226,-2.331 -0.4,-5.879 0.012,-7.284 8.508,-0.816 13.76,-5.146 20.274,-8.116 m -53.316,4.68 c 7.097,3.734 20.142,4.134 29.79,3.851 0.517,2.114 0.505,4.725 0.525,7.303 -12.402,0.618 -27.064,-2.45 -30.315,-11.154 m -1.35,6.96 c 4.909,12.324 21.779,10.905 36.005,10.565 -0.626,1.6 -1.984,3.49 -3.671,4.174 -4.56,1.855 -17.133,3.262 -23.463,-0.1 -4.014,-2.133 -6.591,-6.954 -8.791,-9.78 -1.061,-1.365 -6.35,-4.852 -0.08,-4.86"
       fill="#231f20"
       id="path58" />
    <path
       d="m 181.89961,197.07361 c -5.76,9.865 -11.27,19.998 -18.105,28.7 2.865,-8.425 4.091,-22.523 4.524,-33.272 5.994,-2.804 11.126,0.632 13.581,4.572"
       fill="#81b0c4"
       id="path60" />
    <path
       d="m 212.89461,232.53161 c -6.449,1.291 -10.98,7.559 -17.271,7.156 3.457,-4.874 9.516,-6.929 17.271,-7.156 m 2.845,10.092 c -5.256,0.557 -11.43,1.407 -16.761,0.968 2.523,-3.855 12.247,-2.525 16.761,-0.968 m 1.821,8.702 c -5.907,0.128 -13.25,0.01 -18.863,-0.46 3.32,-3.568 15.032,-1.325 18.863,0.46"
       fill="#231f20"
       id="path62" />
    <path
       d="m 170.78461,275.13661 c 0.846,7.419 3.787,14.936 3.42,23.061 -3.266,1.101 -5.143,2.065 -9.52,2.06 -0.309,-6.906 -1.233,-17.462 -0.956,-24.045 2.153,0.143 5.327,-1.537 7.056,-1.076"
       fill="#dcd9d8"
       id="path64" />
    <path
       d="m 161.26061,165.79661 c -2.966,1.936 -5.492,4.355 -8.341,6.422 -6.318,0.313 -9.765,-0.437 -14.406,-4.065 0.076,-0.29 0.542,-0.16 0.56,-0.518 6.762,3.012 15.359,-1.23 22.187,-1.84"
       fill="#f0d6b7"
       id="path66" />
    <path
       d="m 125.76061,211.89361 c 1.858,-8.05 9.138,-12.22 15.749,-16.655 6.824,8.66 10.974,19.798 15.544,30.545 -10.798,-3.255 -21.83,-8.536 -31.293,-13.89"
       fill="#81b0c4"
       id="path68" />
    <path
       d="m 163.72961,276.21261 c -0.276,6.583 0.647,17.139 0.956,24.045 4.378,0.006 6.253,-0.957 9.52,-2.06 0.369,-8.125 -2.573,-15.642 -3.42,-23.061 -1.73,-0.461 -4.903,1.219 -7.056,1.076 z m -68.142004,-37.436 c 2.886,26.529 7.065004,48.829 14.730004,72.321 17.016,5.166 37.526,5.616 52.565,0.955 -2.76,-13.259 -1.555,-29.401 -3.168,-43.551 -1.217,-10.635 -0.596,-21.335 -2.264,-32.185 -18.223,-3.79 -43.98,-0.885 -61.863004,2.46 z m 66.170004,-2.291 c -0.153,11.392 0.51,22.63 1.38,34.038 4.376,-0.656 7.345,-1.095 11.408,-1.986 -1.319,-10.982 -1.157,-23.34 -3.846,-33.055 -3.106,0.029 -5.843,-0.036 -8.941,1.003 z m 22.195,-1.838 c -2.077,-0.475 -4.494,-0.019 -6.478,0.02 0.933,9.288 3.195,19.538 3.991,29.286 3.122,0.097 4.789,-1.375 7.357,-1.87 0.137,-8.558 -0.75,-20.348 -4.87,-27.436 z m 33.605,30.704 c 6.506,-1.579 10.596,-9.548 8.777,-17.733 -1.221,-5.5 -3.396,-15.856 -5.724,-19.375 -1.72,-2.6 -6.383,-6.008 -10.107,-3.625 -6.058,3.88 -16.73,5.005 -21.146,9.7 2.215,7.375 2.902,17.505 3.816,26.85 7.567,0.473 16.877,-2.082 23.171,0.63 -4.394,1.422 -10.095,1.433 -13.89,3.507 3.103,1.498 10.366,1.196 15.103,0.046 z m -60.504,-39.568 c -4.57,-10.747 -8.721,-21.885 -15.544,-30.545 -6.611,4.435 -13.891,8.604 -15.749,16.655 9.463,5.354 20.495,10.635 31.293,13.89 z m 11.265,-33.28 c -0.433,10.748 -1.659,24.847 -4.524,33.27 6.834,-8.7 12.345,-18.833 18.105,-28.698 -2.455,-3.942 -7.587,-7.378 -13.581,-4.573 z m -12.77,-4.538 c -2.589,-0.28 -4.786,2.976 -8.154,1.568 -0.77,0.853 -1.471,1.777 -2.257,2.61 7.435,8.96 10.813,21.672 16.556,32.203 3.081,-10.115 2.726,-21.196 3.405,-32.236 -4.234,0.267 -6.583,-3.83 -9.55,-4.145 z m -8.211,-10.838 c -0.277,3.069 0.437,4.074 1.056,7.591 10.086,3.153 8.325,-13.846 -1.056,-7.59 z m -11.187,-3.672 c -4.346,-2.375 -10.877,-4.963 -16.491,-6.033 -6.959,-1.332 -6.306,9.493 -6.011,15.949 0.232,5.114 2.89,10.52 4.046,13.915 0.543,1.586 0.664,3.269 2.02,3.584 2.396,0.558 10.301,-2.603 12.555,-3.832 4.764,-2.597 8.46,-6.722 12.506,-9.492 0.053,-1.348 0.104,-2.695 0.158,-4.043 -2.433,-1.21 -5.244,-2.072 -8.815,-2.228 2.422,-1.22 5.986,-1.202 8.194,-2.652 0.02,-0.54 0.043,-1.077 0.062,-1.613 -4.031,-0.308 -5.567,-2.103 -8.224,-3.555 z m -41.516004,-7.543 c -3.608,3.663 10.117004,8.654 14.489004,8.924 -0.025,-2.319 1.32,-4.502 1.05,-6.165 -5.192,-0.911 -12.013004,-0.31 -15.540004,-2.759 z m 44.440004,1.72 c -0.018,0.358 -0.484,0.228 -0.56,0.52 4.641,3.627 8.089,4.377 14.406,4.064 2.849,-2.067 5.375,-4.485 8.341,-6.422 -6.829,0.61 -15.425,4.852 -22.187,1.838 z m 40.79,12.37 c -0.195,-4.07 -1.264,-12.436 -3.779,-13.9 -5.279,-3.083 -14.662,6.22 -18.637,7.64 0.432,1.244 1.146,2.23 1.2,3.822 2.352,-0.578 5.215,-0.183 7.252,0.82 -2.355,0.263 -4.969,0.246 -6.527,1.367 -0.572,1.651 0.14,3.901 -0.24,6.195 5.592,1.578 11.98,2.418 19.05,2.625 1.374,-1.79 1.843,-5.195 1.68,-8.57 z m -91.303004,-10.547 c -1.132,-0.808 -8.796,-10.779 -9.845,-10.365 -13.867,5.469 -26.833,14.926 -38.421,23.869 11.048,23.705 15.508,52.747 16.295,80.738 12.655,5.92 23.771,14.453 40.944,15.343 -1.988,-14.06 -3.803,-26.604 -4.93,-39.841 -4.315,-1.82 -10.505,0.082 -14.543,-0.565 -0.033,-4.865 6.168,-2.132 6.684,-5.403 0.389,-2.475 -3.413,-2.662 -2.175,-6.56 3.158,1.148 4.815,3.681 8.181,4.634 3.077,-6.73 -0.042,-18.638 0.4,-24.263 0.084,-1.056 0.528,-5.85 2.893,-5.01 2.094,0.744 -0.119,12.753 0.11,18.077 0.209,4.905 -0.593,9.65 1.394,12.73 16.595004,-2.26 33.457004,-3.72 51.412004,-4.212 -3.95,-1.695 -8.642,-3.298 -13.787,-6.198 -2.79,-1.572 -11.582,-4.844 -12.387,-7.493 -1.283,-4.221 3.369,-6.47 4.165,-10.089 -8.376,4.57 -10.011,-4.378 -11.992,-10.716 -1.795,-5.741 -2.818,-10.03 -3.258,-13.341 -7.215,-3.44 -14.930004,-6.924 -21.140004,-11.335 z m 83.974004,-9.159 c 11.554,-5.602 13.636,20.939 9.107,29.489 0.7,2.55 3.108,3.526 4.09,5.819 -6.447,11.55 -13.608,22.332 -20.187,33.745 4.894,-3.047 11.884,-0.545 17.643,-2.824 2.105,-0.833 3.628,-5.651 5.222,-9.506 4.384,-10.607 8.985,-23.978 11.034,-34.1 0.462,-2.305 1.722,-7.33 1.44,-9.383 -0.504,-3.675 -5.49,-6.4 -8.026,-8.672 -4.673,-4.198 -7.615,-7.89 -12.49,-11.815 -1.975,2.915 -6.217,4.875 -7.833,7.247 z M 62.137606,57.837611 c -5.507,6.056 -4.354,17.408 -3.687,25.483 9.952,-6.262 23.159,0.493 23.034,11.142 4.751,-0.127 1.775,-5.935 0.916,-9.676 -2.808,-12.22 4.732,-25.496 0.342,-36.671 -8.523,0.647 -15.525,4.128 -20.605,9.722 z m 39.392004,-35.157 c -12.462004,3.532 -28.436004,12.588 -33.557004,23.785 3.966,-0.577 6.718,-2.577 10.63,-2.824 1.48,-0.096 3.416,0.619 5.115,0.197 3.386,-0.84 6.243,-8.432 8.798,-11.257 2.49,-2.759 5.484,-3.938 7.533004,-6.453 1.315,-0.635 3.261,-0.59 3.336,-2.567 -0.571,-0.61 -1.172,-1.075 -1.855,-0.881 z m 64.879,3.322 c -12.936,-7.297 -34.833,-12.787 -48.593,-5.929 -11.103,5.538 -26.112004,14.697 -31.230004,26.304 4.78,11.203 -1.416,21.466 -1.811,32.838 -0.21,6.05 2.849,11.333 3.083,17.92 -1.637,2.7 -6.633,3.031999 -10.093,2.847 -1.164,-5.827 -3.202,-12.377 -9.204,-13.035 -8.491,-0.929 -14.698,6.099 -15.085,13.442999 -0.457,8.636 6.633,22.95 16.682,21.957 3.88,-0.384 4.836,-4.275 9.064,-4.235 2.292,4.574 -3.536,6.01 -4.136,9.281 -0.156,0.845 0.484,4.148 0.855,5.697 1.825,7.54 5.894,17.3 9.899,23.042 5.082,7.284 15.070004,8.38 25.814004,9.094 1.918,-4.134 8.987,-3.793 13.593,-2.711 -5.52,-2.187 -10.652,-7.487 -14.905,-12.178 -4.885,-5.382 -9.833,-11.156 -10.083,-18.191 9.232,12.807 16.86,23.994 33.646,29.626 12.703,4.261 27.538,-1.952 37.296,-8.806 4.05,-2.849 6.468,-7.369 9.346,-11.506 10.77,-15.494 15.797,-37.61 14.693,-59.042999 -0.455,-8.841 -0.436,-17.65 -3.401,-23.597 -3.1,-6.22 -13.585,-11.783 -19.723,-6.158 -1.137,-6.047 5.104,-9.789 12.435,-7.611 -5.226,-6.75 -10.712,-14.856 -18.142,-19.049 z m 24.101,199.458999 c 10.109,-5.025 28.996,-13.526 35.334,0.019 2.339,4.993 5.082,13.432 6.294,18.587 1.71,7.27 -1.855,22.554 -9.33,24.994 -6.6,2.155 -14.303,2.025 -22.254,0.426 -0.936,-0.779 -1.979,-2.136 -2.708,-3.551 -5.677,-0.22 -10.994,0.306 -15.479,2.639 0.425,4.198 -2.415,4.872 -5.077,5.737 -1.974,7.826 3.949,18.048 2.531,25.184 -1.011,5.084 -7.266,5.87 -11.864,6.821 -0.15,2.825 0.202,5.184 0.515,7.574 -1.05,3.874 -5.766,6.079 -10.235,6.619 -14.697,1.765 -37.016,2.56 -51.153,-2.525 -3.945,-9.678 -7.054,-21.45 -10.340004,-32.498 -13.789,1.473 -24.942,-5.95 -35.455,-10.812 -3.64,-1.688 -8.677,-2.618 -10.035,-5.515 -1.319,-2.807 -0.78,-8.182 -1.107,-13.262 -0.832,-12.97 -1.545,-25.482 -4.97,-38.763 -1.538,-5.96 -4.22,-11.22 -6.09,-16.962 -1.728,-5.322 -4.747,-11.9 -5.536,-17.207 -1.167,-7.866 6.239,-8.304 10.975,-11.713 7.323,-5.27 13.07,-8.186 20.999,-12.943 2.349,-1.41 9.43,-4.975 10.236,-6.618 1.601,-3.256 -2.749,-7.847 -3.912,-10.4 -1.84,-4.036 -2.799,-7.465 -3.063,-11.449 -6.652,-1.05 -11.694,-5.01 -14.74,-9.473 -5.039,-7.387 -8.534,-21.054999 -4.174,-31.451999 0.342,-0.818 2.048,-2.428 2.3,-3.685 0.495,-2.476 -0.935,-5.77 -1.023,-8.403 -0.458,-13.512 2.286,-25.154 11.382,-29.23 3.693,-14.712 16.91,-19.603 29.363,-26.914 4.655,-2.733 9.786004,-4.479 15.086004,-6.429 19.01,-6.9960005 48.176,-5.6790005 63.954,6.254 6.69,5.06 17.383,15.744 21.208,23.479 10.103,20.42 9.385,54.55 2.32,79.389999 -0.95,3.336 -2.328,8.238 -4.252,12.245 -1.341,2.797 -5.51,8.395 -5.004,10.865 0.521,2.553 9.506,9.375 11.431,11.232 3.47,3.346 10.06,7.788 10.593,12.011 0.574,4.493 -1.98,10.64 -3.275,14.978 -4.321,14.472 -8.541,27.849 -13.445,40.75"
       fill="#231f20"
       id="path70" />
    <path
       d="m 123.06861,125.28861 c 0.548,-0.73 3.563,-1.838 7.782,0.193 0,0 -5,0.832 -4.583,9.17 l -2.083,-0.418 c -0.001,0 -2.155,-7.558 -1.116,-8.945"
       fill="#f7e4cd"
       id="path72" />
    <path
       d="m 159.60061,196.94061 a 2.291,2.291 0 1 1 -4.582,0 2.291,2.291 0 0 1 4.582,0 m 2.292,10.625 a 2.2925002,2.2925002 0 1 1 -4.585,-0.002 2.2920002,2.2920002 0 0 1 4.584,0.002"
       fill="#1d1919"
       id="path74" />
  </g>
</svg>
