<?xml version="1.0" encoding="UTF-8" standalone="no"?>
<svg
   xmlns:dc="http://purl.org/dc/elements/1.1/"
   xmlns:cc="http://creativecommons.org/ns#"
   xmlns:rdf="http://www.w3.org/1999/02/22-rdf-syntax-ns#"
   xmlns:svg="http://www.w3.org/2000/svg"
   xmlns="http://www.w3.org/2000/svg"
   xmlns:xlink="http://www.w3.org/1999/xlink"
   xmlns:sodipodi="http://sodipodi.sourceforge.net/DTD/sodipodi-0.dtd"
   xmlns:inkscape="http://www.inkscape.org/namespaces/inkscape"
   viewBox="0 0 111.996 52"
   fill="#ffffff"
   fill-rule="evenodd"
   stroke="#000000"
   stroke-linecap="round"
   stroke-linejoin="round"
   version="1.1"
   id="svg7"
   sodipodi:docname="kafka.svg"
   width="111.996"
   height="52"
   inkscape:version="1.0.2 (e86c870879, 2021-01-15)">
  <metadata
     id="metadata13">
    <rdf:RDF>
      <cc:Work
         rdf:about="">
        <dc:format>image/svg+xml</dc:format>
        <dc:type
           rdf:resource="http://purl.org/dc/dcmitype/StillImage" />
      </cc:Work>
    </rdf:RDF>
  </metadata>
  <defs
     id="defs11" />
  <sodipodi:namedview
     pagecolor="#ffffff"
     bordercolor="#666666"
     borderopacity="1"
     objecttolerance="10"
     gridtolerance="10"
     guidetolerance="10"
     inkscape:pageopacity="0"
     inkscape:pageshadow="2"
     inkscape:window-width="1517"
     inkscape:window-height="1002"
     id="namedview9"
     showgrid="false"
     inkscape:zoom="11.663717"
     inkscape:cx="56"
     inkscape:cy="26"
     inkscape:window-x="0"
     inkscape:window-y="27"
     inkscape:window-maximized="0"
     inkscape:current-layer="svg7" />
  <use
     xlink:href="#A"
     x="0.5"
     y="0.5"
     id="use2"
     width="100%"
     height="100%" />
  <symbol
     id="A"
     overflow="visible"
     transform="translate(-0.5,-0.5)">
    <path
       d="M 10.9,4.627 C 10.335,4.049 9.55,3.694 8.676,3.694 A 3.05,3.05 0 0 0 6.468,4.627 H 6.453 A 3.18,3.18 0 0 0 5.53,6.885 3.18,3.18 0 0 0 6.443,9.137 l 0.015,0.016 a 3.06,3.06 0 0 0 2.208,0.923 c 0.874,0 1.658,-0.35 2.224,-0.923 l 0.006,-0.016 c 0.566,-0.568 0.9,-1.363 0.9,-2.252 A 3.2,3.2 0 0 0 10.885,4.628 h 0.005 z m -2.224,43.68 c 0.874,0 1.658,-0.362 2.224,-0.93 l 0.006,-0.016 c 0.566,-0.566 0.9,-1.366 0.9,-2.245 0,-0.9 -0.345,-1.686 -0.9,-2.262 H 10.9 C 10.335,42.271 9.55,41.918 8.676,41.918 A 3.03,3.03 0 0 0 6.468,42.854 H 6.453 a 3.22,3.22 0 0 0 -0.913,2.262 3.18,3.18 0 0 0 0.913,2.245 l 0.015,0.016 a 3.09,3.09 0 0 0 2.208,0.929 z M 25.76,38.64 a 3.1,3.1 0 0 0 1.91,-1.482 l 0.058,-0.112 a 3.19,3.19 0 0 0 0.248,-2.311 c -0.206,-0.796 -0.7,-1.502 -1.462,-1.94 l -0.044,-0.03 a 3.08,3.08 0 0 0 -2.334,-0.286 c -0.78,0.198 -1.48,0.727 -1.908,1.487 a 3.26,3.26 0 0 0 -0.316,2.425 3.23,3.23 0 0 0 1.461,1.942 h 0.005 c 0.75,0.44 1.597,0.517 2.383,0.3 z M 11.883,22.74 C 11.06,21.905 9.923,21.38 8.667,21.38 a 4.49,4.49 0 0 0 -3.21,1.359 c -0.82,0.834 -1.324,1.985 -1.324,3.265 a 4.69,4.69 0 0 0 1.324,3.279 c 0.82,0.83 1.954,1.35 3.2,1.35 1.246,0 2.393,-0.52 3.216,-1.35 a 4.69,4.69 0 0 0 1.326,-3.28 4.63,4.63 0 0 0 -1.326,-3.265 z m -1.8,-5.438 a 8.57,8.57 0 0 1 4.716,2.479 h 0.01 l 0.573,0.647 3.13,-1.843 A 6.9,6.9 0 0 1 18.41,14.668 c 0.446,-1.7 1.53,-3.22 3.152,-4.173 l 0.053,-0.034 a 6.63,6.63 0 0 1 5.077,-0.663 6.75,6.75 0 0 1 4.1,3.2 v 0.005 c 0.932,1.64 1.12,3.522 0.677,5.216 -0.444,1.7 -1.53,3.23 -3.152,4.178 l -0.428,0.257 h -0.043 a 6.69,6.69 0 0 1 -4.663,0.435 6.76,6.76 0 0 1 -3.277,-2.044 l -3.126,1.837 a 8.84,8.84 0 0 1 0.558,3.112 c 0,1.096 -0.198,2.154 -0.558,3.126 l 3.126,1.833 c 0.893,-1.018 2.034,-1.7 3.277,-2.045 1.67,-0.464 3.518,-0.267 5.134,0.692 l 0.104,0.05 v 0.005 a 6.86,6.86 0 0 1 3.048,4.129 6.97,6.97 0 0 1 -0.677,5.211 l -0.056,0.115 h -0.007 a 6.82,6.82 0 0 1 -4.042,3.112 c -1.67,0.448 -3.52,0.257 -5.135,-0.688 V 41.521 A 6.84,6.84 0 0 1 18.4,37.346 6.87,6.87 0 0 1 18.502,33.435 l -3.13,-1.838 -0.573,0.637 -0.01,0.01 c -1.252,1.28 -2.9,2.17 -4.716,2.465 v 3.68 a 6.69,6.69 0 0 1 3.377,1.867 l 0.005,0.01 c 1.223,1.238 1.98,2.964 1.98,4.86 a 6.9,6.9 0 0 1 -1.98,4.85 l -0.005,0.02 C 12.22,51.23 10.53,52 8.667,52 6.813,52 5.119,51.23 3.891,49.985 H 3.886 v -0.02 A 6.9,6.9 0 0 1 1.903,45.114 c 0,-1.897 0.76,-3.622 1.983,-4.86 v -0.01 h 0.005 a 6.58,6.58 0 0 1 3.374,-1.867 v -3.68 C 5.44,34.401 3.805,33.512 2.565,32.232 L 2.552,32.222 A 8.88,8.88 0 0 1 0,25.995 c 0,-2.43 0.978,-4.628 2.54,-6.223 H 2.553 A 8.55,8.55 0 0 1 7.264,17.293 V 13.628 A 6.81,6.81 0 0 1 3.89,11.756 H 3.885 v -0.01 A 6.92,6.92 0 0 1 1.902,6.885 6.93,6.93 0 0 1 3.885,2.025 L 3.9,2.02 A 6.65,6.65 0 0 1 8.667,0 c 1.864,0 3.553,0.77 4.784,2.02 v 0.005 h 0.005 c 1.223,1.245 1.98,2.973 1.98,4.86 a 6.94,6.94 0 0 1 -1.98,4.86 l -0.005,0.01 c -0.912,0.924 -2.076,1.585 -3.377,1.872 v 3.665 z m 17.585,-2.445 -0.026,-0.04 a 3.15,3.15 0 0 0 -1.883,-1.447 3.09,3.09 0 0 0 -2.388,0.317 h 0.005 c -0.752,0.434 -1.255,1.145 -1.466,1.94 a 3.24,3.24 0 0 0 0.316,2.425 l 0.014,0.02 c 0.433,0.75 1.123,1.255 1.893,1.458 0.773,0.222 1.636,0.128 2.378,-0.312 l 0.04,-0.02 c 0.73,-0.444 1.22,-1.146 1.422,-1.916 0.207,-0.795 0.125,-1.664 -0.305,-2.425 m 13.892,1.077 h 3.493 v 10.852 l 5.038,-5.67 h 4.2 l -6.082,6.57 6.087,8.314 h -4 L 45.044,28.562 V 36 H 41.55 V 15.924 m 16.778,12.693 c 0,1.848 1.306,4.534 4.453,4.534 1.947,0 3.228,-1.032 3.893,-2.385 0.348,-0.657 0.508,-1.36 0.562,-2.1 a 4.75,4.75 0 0 0 -0.402,-2.095 c -0.612,-1.407 -1.972,-2.627 -4.078,-2.627 -2.825,0 -4.427,2.33 -4.427,4.638 v 0.025 z M 70.7,36 h -3.495 v -2.143 c -0.93,1.733 -2.878,2.603 -4.932,2.603 -4.693,0 -7.44,-3.72 -7.44,-7.922 0,-4.693 3.333,-7.894 7.44,-7.894 2.666,0 4.292,1.438 4.932,2.633 V 21.104 H 70.7 V 36 m 3.957,-12.154 h -1.8 v -2.74 h 1.8 v -0.84 c 0,-4.426 3.307,-4.693 5.815,-4.722 v 2.736 c -0.882,0 -2.32,0 -2.32,2.094 v 0.73 h 2.32 v 2.74 h -2.32 V 36 H 74.657 V 23.846 m 8.2,-7.922 h 3.492 v 10.852 l 5.04,-5.67 h 4.2 L 89.507,27.676 95.6,36 h -4 L 86.348,28.562 V 36 H 82.856 V 15.924 m 16.78,12.693 c 0,1.848 1.305,4.534 4.453,4.534 1.944,0 3.226,-1.032 3.9,-2.385 0.35,-0.657 0.5,-1.36 0.562,-2.1 0.024,-0.707 -0.107,-1.442 -0.403,-2.095 -0.6,-1.407 -1.97,-2.627 -4.077,-2.627 -2.826,0 -4.427,2.33 -4.427,4.638 v 0.025 z M 111.996,36 h -3.494 v -2.143 c -0.933,1.733 -2.88,2.603 -4.932,2.603 -4.693,0 -7.437,-3.72 -7.437,-7.922 0,-4.693 3.33,-7.894 7.437,-7.894 2.665,0 4.292,1.438 4.932,2.633 v -2.173 h 3.494 V 36"
       stroke="none"
       fill="#231f20"
       fill-rule="nonzero"
       id="path4" />
  </symbol>
</svg>
