<?xml version="1.0" encoding="UTF-8"?> <svg xmlns="http://www.w3.org/2000/svg" width="135" height="33" viewBox="0 0 135 33"> <title>Plan de travail 11</title> <path d="M103,32V18.1a4.1,4.1,0,0,0-1.6-3.3,5.5,5.5,0,0,0-3.5-1.2,10,10,0,0,0-5.7,1.6c-.1.1-.5.1-.6,0A6.2,6.2,0,0,0,86,13.7a23.2,23.2,0,0,0-2.9.7c0-.3-.1-.5-.1-.8H77.2V32h5.9V15.5h1a2.8,2.8,0,0,1,3.1,2.9c-.1,3.8,0,7.5,0,11.2A2.1,2.1,0,0,0,89,31.8a37.3,37.3,0,0,0,3.8.2V18.9a5.2,5.2,0,0,0-.7-3.1,5.8,5.8,0,0,1,3.1-.3,2.6,2.6,0,0,1,2,2.5c-.1,3.8,0,7.6,0,11.5A2.3,2.3,0,0,0,99.7,32ZM38,32V.2L32.5,5.7a1.8,1.8,0,0,0-.4,1V32Zm95.6-.4a2.3,2.3,0,0,1-2.3-2.5c.1-3.6,0-7.2,0-10.8v-.7h3.1V13.7h-3.1V4.7H131L125.8,10a1.1,1.1,0,0,0-.3.8V27.8a4,4,0,0,0,.1.9C126.5,32.1,131.1,33.1,133.6,31.6Zm-60,0A2.3,2.3,0,0,1,71.3,29V18.2a4,4,0,0,0-.1-1.2,4.6,4.6,0,0,0-3.3-3.2A11.5,11.5,0,0,0,58.6,15a6,6,0,0,0-1.7,1.7,3,3,0,0,0,1.2,4.2,3.1,3.1,0,0,0,4.2-1.2,3.1,3.1,0,0,0-1.2-4.2l-.5-.3a5,5,0,0,1,1.6-.3,3.2,3.2,0,0,1,3.3,3.4v9.3a3.8,3.8,0,0,0,.7,2.3A5.8,5.8,0,0,0,73.6,31.6ZM28.3,8.9,17.6,19.4,28.3,30ZM47,13.5l-.6.6-6.1,6c-.3.3-.3.5-.1.8l6.2,9.6A2.8,2.8,0,0,0,49,32h5.3l-.4-.6L47.4,21.2a2.9,2.9,0,0,1-.5-1.6Zm16.1,8.8a8.2,8.2,0,0,0-5.5,1.6c-2.5,1.9-2.4,4.9.1,6.7a8,8,0,0,0,4.5,1.6h3.2a3.5,3.5,0,0,1-2.5-3,19.8,19.8,0,0,1-.2-3.4C62.7,24.7,63,23.6,63.1,22.3Z" style="fill:#fff"></path> <path d="M114.9,32.5a21,21,0,0,1-4-1.3,8.8,8.8,0,0,1-5.2-8.3,8.9,8.9,0,0,1,4.9-8.5,8.7,8.7,0,0,1,12.6,6.2l.2,1.5h-8l.4-.5a6,6,0,0,0,1.6-4.7,2.3,2.3,0,0,0-3.6-1.7,3.7,3.7,0,0,0-1.6,2.7,14,14,0,0,0-.1,2.3,40.6,40.6,0,0,0,.1,5.6c.5,3.9,2.7,6,6.7,6.1h.4l-1.8.4Z"></path> <path d="M103,32H99.6a2.3,2.3,0,0,1-2.3-2.5c0-3.8-.1-7.6,0-11.5a2.5,2.5,0,0,0-2-2.5,6.5,6.5,0,0,0-3.1.3,5.2,5.2,0,0,1,.7,3.1V32a37.3,37.3,0,0,1-3.8-.2,2.1,2.1,0,0,1-1.8-2.3c0-3.8-.1-7.5,0-11.2a2.7,2.7,0,0,0-3.1-2.9h-1V32H77.2V13.6H83c0,.3.1.6.1.8a23.2,23.2,0,0,1,2.9-.7,6.2,6.2,0,0,1,5.5,1.4c.1.1.5.1.6,0a11.1,11.1,0,0,1,5.7-1.6,6.1,6.1,0,0,1,3.5,1.2,4.1,4.1,0,0,1,1.6,3.3V31.4A1.6,1.6,0,0,1,103,32Z"></path> <path d="M38,32H32.1V6.7a1.8,1.8,0,0,1,.4-1L38.1.2C38,10.9,38,21.4,38,32Z"></path> <path d="M133.6,31.6c-2.5,1.5-7,.5-7.9-2.8a4.2,4.2,0,0,1-.1-.9V10.7a1.1,1.1,0,0,1,.3-.8L131,4.8h.3v9.1h3.1v3.8h-3.1v.7c0,3.6.1,7.2,0,10.8A2.3,2.3,0,0,0,133.6,31.6Z"></path> <path d="M73.6,31.6A5.8,5.8,0,0,1,66.3,30a4.3,4.3,0,0,1-.7-2.3V18.4a3.2,3.2,0,0,0-3.3-3.4,4.8,4.8,0,0,0-1.6.3l.5.3a3.1,3.1,0,0,1,1.2,4.2,3.1,3.1,0,0,1-4.2,1.2,3,3,0,0,1-1.2-4.2A4.7,4.7,0,0,1,58.6,15a11.3,11.3,0,0,1,9.3-1.2A4.5,4.5,0,0,1,71.2,17a4,4,0,0,1,.1,1.2V29C71.3,30.5,72,31.3,73.6,31.6Z"></path> <path d="M28.3,8.9V30L17.7,19.4Z"></path> <path d="M47,13.5v6.1a2.9,2.9,0,0,0,.5,1.6L54,31.4l.4.6H49a2.8,2.8,0,0,1-2.5-1.4L40.3,21c-.3-.4-.2-.6.1-.8l6.1-6Z"></path> <path d="M63.1,22.3c-.1,1.2-.4,2.3-.4,3.4a15.2,15.2,0,0,0,.2,3.4,3.4,3.4,0,0,0,2.5,3H62.2a8,8,0,0,1-4.5-1.6c-2.5-1.9-2.5-4.8-.1-6.7A7.9,7.9,0,0,1,63.1,22.3Z"></path> <polygon points="0 7.2 12.7 19.9 0 32.7 0 7.2" style="fill:#009ee4"></polygon> <polygon points="0 7.2 12.7 19.9 0 32.7 0 7.2" style="fill:#009ee4"></polygon> <polygon points="25.5 7.2 12.7 19.9 0 7.2 25.5 7.2" style="fill:#81cff4"></polygon> <polygon points="0 32.7 12.7 19.9 25.5 32.7 0 32.7" style="fill:#81cff4"></polygon> </svg> 