<svg xmlns="http://www.w3.org/2000/svg" xmlns:xlink="http://www.w3.org/1999/xlink" width="135" height="34" viewBox="0 0 135 34"><defs><path id="ncoja" d="M45.88 47.19V38.8h8.37v8.38z"/><path id="ncojb" d="M54.25 47.19V38.8h8.38v8.38z"/><path id="ncojc" d="M45.88 38.81v-8.37h8.37v8.37z"/><path id="ncojd" d="M54.25 38.81v-8.37h8.38v8.37z"/><path id="ncoje" d="M62.63 38.81v-8.37H71v8.37z"/><path id="ncojf" d="M54.25 30.37V22h8.38v8.37z"/><path id="ncojg" d="M45.88 55.56V47.2h8.37v8.37z"/><path id="ncojh" d="M37.5 55.56V38.81h8.38v16.75z"/><path id="ncoji" d="M80.56 42.63h3.63c2.25 0 3.62-1.63 3.62-3.76 0-2.12-1.43-3.74-3.62-3.74h-3.63zm-5.31-9.38c0-1.63 1-2.75 2.75-2.75h6.25c5.19 0 9 3.38 9 8.44 0 5.12-4 8.37-8.81 8.37H80.5v5.75c0 1.75-1.12 2.75-2.62 2.75s-2.63-1-2.63-2.75V33.25z"/><path id="ncojj" d="M102.81 51.31c2.63 0 3.94-2.69 3.94-5.12 0-2.44-1.25-5.19-3.94-5.19-2.81 0-4 2.75-4 5.19 0 2.5 1.25 5.12 4 5.12zm9 1.13c0 1.31 0 3.31-2.43 3.31-1.5 0-2.07-.81-2.44-2.12a6.03 6.03 0 0 1-4.81 2.37c-4.75 0-8.38-4.06-8.38-9.75 0-5.56 3.75-9.81 8.38-9.81a5.8 5.8 0 0 1 4.8 2.31 2.39 2.39 0 0 1 2.45-2.13c2.43 0 2.43 2 2.43 3.32z"/><path id="ncojk" d="M122.75 41.06c-2.62 0-3.94 2.81-3.94 5.19 0 2.38 1.32 5.13 3.94 5.13 2.81 0 4-2.82 4-5.32 0-2.5-1.25-5-4-5zm9.06 11.88c0 1.69-1.06 2.81-2.56 2.81-1.44 0-2.25-.75-2.56-2.13-.94 1.57-2.94 2.32-4.63 2.32-5.12 0-8.37-4.75-8.37-9.56 0-4.94 2.69-10.07 8.19-10.07 1.75 0 3.5.63 4.8 1.75v-6.81c0-1.69 1.07-2.81 2.57-2.81 1.5 0 2.56 1.12 2.56 2.81v21.69z"/><path id="ncojl" d="M138.63 46.25c0 2.44 1.25 5.13 4 5.13s4-2.7 4-5.13c0-2.44-1.25-5.19-4-5.19s-4 2.75-4 5.19zm13.12 0c0 5.31-3.62 9.75-9.06 9.75s-9.06-4.5-9.06-9.75c0-5.13 3.75-9.81 9.06-9.81 5.31-.07 9.06 4.62 9.06 9.81z"/><path id="ncojm" d="M162.25 51.31c2.63 0 3.94-2.69 3.94-5.12 0-2.44-1.25-5.19-3.94-5.19-2.81 0-4 2.75-4 5.19-.06 2.5 1.25 5.12 4 5.12zm8.94 1.13c0 1.31 0 3.31-2.44 3.31-1.5 0-2.06-.81-2.44-2.12A6.03 6.03 0 0 1 161.5 56c-4.75 0-8.37-4.06-8.37-9.75 0-5.56 3.75-9.81 8.37-9.81a5.8 5.8 0 0 1 4.81 2.31 2.39 2.39 0 0 1 2.44-2.13c2.44 0 2.44 2 2.44 3.32z"/><path id="ncojn" d="M80.56 42.62h3.63c2.25 0 3.62-1.62 3.62-3.75 0-2.12-1.43-3.75-3.62-3.75h-3.63zm-5.31-9.37c0-1.63 1-2.75 2.75-2.75h6.25c5.19 0 9 3.37 9 8.44 0 5.12-4 8.37-8.81 8.37H80.5v5.75c0 1.75-1.12 2.75-2.62 2.75s-2.63-1-2.63-2.75V33.25z"/><path id="ncojo" d="M102.81 51.31c2.63 0 3.94-2.69 3.94-5.12 0-2.44-1.25-5.19-3.94-5.19-2.81 0-4 2.75-4 5.19 0 2.5 1.25 5.12 4 5.12zm9 1.13c0 1.31 0 3.31-2.43 3.31-1.5 0-2.07-.81-2.44-2.12a6.03 6.03 0 0 1-4.81 2.37c-4.75 0-8.38-4.06-8.38-9.75 0-5.56 3.75-9.81 8.38-9.81a5.8 5.8 0 0 1 4.8 2.31 2.39 2.39 0 0 1 2.45-2.13c2.43 0 2.43 2 2.43 3.32z"/><path id="ncojp" d="M122.75 41.06c-2.62 0-3.94 2.81-3.94 5.19 0 2.38 1.32 5.13 3.94 5.13 2.81 0 4-2.82 4-5.32 0-2.5-1.25-5-4-5zm9.06 11.88c0 1.69-1.06 2.81-2.56 2.81-1.44 0-2.25-.75-2.56-2.13-.94 1.57-2.94 2.32-4.63 2.32-5.12 0-8.37-4.75-8.37-9.56 0-4.94 2.69-10.07 8.19-10.07 1.75 0 3.5.63 4.8 1.75v-6.81c0-1.69 1.07-2.81 2.57-2.81 1.5 0 2.56 1.12 2.56 2.81v21.69z"/><path id="ncojq" d="M138.63 46.25c0 2.44 1.25 5.13 4 5.13s4-2.7 4-5.13c0-2.44-1.25-5.19-4-5.19s-4 2.75-4 5.19zm13.12 0c0 5.31-3.62 9.75-9.06 9.75s-9.06-4.5-9.06-9.75c0-5.13 3.75-9.81 9.06-9.81 5.31-.07 9.06 4.62 9.06 9.81z"/><path id="ncojr" d="M162.25 51.31c2.63 0 3.94-2.69 3.94-5.12 0-2.44-1.25-5.19-3.94-5.19-2.81 0-4 2.75-4 5.19-.06 2.5 1.25 5.12 4 5.12zm8.94 1.13c0 1.31 0 3.31-2.44 3.31-1.5 0-2.06-.81-2.44-2.12A6.03 6.03 0 0 1 161.5 56c-4.75 0-8.37-4.06-8.37-9.75 0-5.56 3.75-9.81 8.37-9.81a5.8 5.8 0 0 1 4.81 2.31 2.39 2.39 0 0 1 2.44-2.13c2.44 0 2.44 2 2.44 3.32z"/></defs><g><g transform="translate(-37 -22)"><g><g><g><use fill="#d169a6" xlink:href="#ncoja"/></g><g><use fill="#5068ac" xlink:href="#ncojb"/></g><g><use fill="#254186" xlink:href="#ncojc"/></g><g><use fill="#2b7abb" xlink:href="#ncojd"/></g><g><use fill="#86b3dd" xlink:href="#ncoje"/></g><g><use fill="#adcce6" xlink:href="#ncojf"/></g><g><use fill="#8070af" xlink:href="#ncojg"/></g><g><use fill="#bb6ba8" xlink:href="#ncojh"/></g></g><g><g><use fill="#201e55" xlink:href="#ncoji"/></g><g><use fill="#201e55" xlink:href="#ncojj"/></g><g><use fill="#201e55" xlink:href="#ncojk"/></g><g><use fill="#201e55" xlink:href="#ncojl"/></g><g><use fill="#201e55" xlink:href="#ncojm"/></g></g></g><g><g><use fill="#d169a6" xlink:href="#ncoja"/></g><g><use fill="#5068ac" xlink:href="#ncojb"/></g><g><use fill="#254186" xlink:href="#ncojc"/></g><g><use fill="#2b7abb" xlink:href="#ncojd"/></g><g><use fill="#86b3dd" xlink:href="#ncoje"/></g><g><use fill="#adcce6" xlink:href="#ncojf"/></g><g><use fill="#8070af" xlink:href="#ncojg"/></g><g><use fill="#bb6ba8" xlink:href="#ncojh"/></g></g><g><g><use fill="#201e55" xlink:href="#ncojn"/></g><g><use fill="#201e55" xlink:href="#ncojo"/></g><g><use fill="#201e55" xlink:href="#ncojp"/></g><g><use fill="#201e55" xlink:href="#ncojq"/></g><g><use fill="#201e55" xlink:href="#ncojr"/></g></g></g></g></svg>