<svg xmlns="http://www.w3.org/2000/svg" width="249" height="121.597"><path fill="none" pointer-events="none" d="M0 0h249v121.597H0z"/><defs><linearGradient id="a" x1="131.37" y1="155.01" x2="294.77" y2="318.4" gradientUnits="userSpaceOnUse"><stop offset="0" stop-color="#f39355"/><stop offset=".75" stop-color="#ed6767"/><stop offset="1" stop-color="#ec6567"/></linearGradient></defs><path class="cls-1" d="M72.782 83.195a14.044 14.044 0 01-.432-.445c12.359-6.211 19.59-16.91 19.59-30 0-18.039-14.358-32.636-32.065-32.636-12.556 0-23.43 7.347-28.69 18.048l10.879 6.241c2.74-7.253 9.024-12.287 17.983-12.287 12.08 0 19.524 9.446 19.52 21.084 0 9.083-5.29 16.32-12.721 19.093 0 0 1.002 8.258 5.514 10.444m66.269-.308H127.49q-2.089-2.614-2.089-6.876-4.525 8.093-14.447 8.109-6.44 0-10.487-3.698t-4.045-9.79q0-6.163 4.308-9.705t11.096-4.57l12.975-2.001v-1.67q0-6.53-7.918-6.53-3.652 0-5.702 1.394t-2.044 3.48a3.266 3.266 0 00.175 1.045l-9.835 3.309a8.794 8.794 0 01-.785-3.653q0-5.31 4.963-9.27t13.228-3.96q9.219 0 14.055 3.918t4.83 11.748v18.013q-.01 6.53 2.86 10.707zm-25.064-7.658q4.963 0 8.093-3.267t3.12-9.267v-.782l-10.441 1.739q-7.227 1.22-7.224 6.354 0 2.524 1.739 3.873t4.713 1.35zm61.063-36.057l-5.11 9.854a11.149 11.149 0 00-2.36-.256q-4.788 0-7.617 3.613t-2.828 9.18V82.43h-10.964V39.252h10.964v6.877q4.002-8.11 12.001-8.11c1.343.023 4.752.345 5.914.695zm41.69 24.736h-33.244q.52 4.957 3.743 7.876t8.11 2.92q8.002 0 11.92-7.922l8.184 4.7q-6.098 12.622-20.28 12.618-9.225 0-15.709-6.396t-6.487-16.404q0-10.094 6.568-16.448t16.144-6.355q9.225 0 15.142 6.05t5.92 15.534zM194.91 46.392a11.476 11.476 0 00-7.44 2.569 13.17 13.17 0 00-4.396 6.487h23.15q-.785-4.262-3.743-6.656t-7.57-2.404z" fill="#0bb3b7"/><path class="cls-2" d="M182.3 156.66a19.18 19.18 0 00-34.72-16.3 103.92 103.92 0 00-10.53 45.25c0 55.58 44.26 100.63 98.86 100.63h.94c8.67 15.31 26.45 32.94 51 39.06l16.76-31.68c-42.64-7.29-44.54-48.8-44.54-48.8a60.13 60.13 0 01-23.67 4.84c-33.25 0-60.19-26.7-60.19-62.61a73.57 73.57 0 016.09-30.39z" fill="url(#a)" transform="translate(-16.647 -7.457) scale(.32437)"/><path d="M-16.647-7.496H260.43v136.68H-16.647V-7.496z" class="cls-3" fill="none"/></svg>